<svg xmlns="http://www.w3.org/2000/svg" xmlns:xlink="http://www.w3.org/1999/xlink" width="118" height="118" viewBox="0 0 118 118">
  <defs>
    <filter id="Trazado_982547" x="0" y="0" width="118" height="118" filterUnits="userSpaceOnUse">
      <feOffset dy="3" input="SourceAlpha"/>
      <feGaussianBlur stdDeviation="3" result="blur"/>
      <feFlood flood-opacity="0.161"/>
      <feComposite operator="in" in2="blur"/>
      <feComposite in="SourceGraphic"/>
    </filter>
  </defs>
  <g id="Grupo_1202336" data-name="Grupo 1202336" transform="translate(-740.796 -2239.033)">
    <g id="Grupo_1201991" data-name="Grupo 1201991" transform="translate(749.796 2245.033)">
      <g id="Grupo_1201680" data-name="Grupo 1201680">
        <g id="Grupo_1201330" data-name="Grupo 1201330">
          <g id="Grupo_1172010" data-name="Grupo 1172010">
            <g id="Grupo_1171046" data-name="Grupo 1171046">
              <g id="Grupo_1148525" data-name="Grupo 1148525">
                <g transform="matrix(1, 0, 0, 1, -9, -6)" filter="url(#Trazado_982547)">
                  <g id="Trazado_982547-2" data-name="Trazado 982547" transform="translate(9 6)" fill="#fdfbec">
                    <path d="M 50 98.5 C 43.45188522338867 98.5 37.10042953491211 97.21787261962891 31.12207221984863 94.68923950195312 C 25.34691429138184 92.24655914306641 20.15997123718262 88.74931335449219 15.70532894134521 84.29468536376953 C 11.2506856918335 79.84004211425781 7.753442764282227 74.65309906005859 5.310757160186768 68.8779296875 C 2.782128572463989 62.89957046508789 1.5 56.54811477661133 1.5 50 C 1.5 43.45188522338867 2.782128572463989 37.10042953491211 5.310757160186768 31.12207221984863 C 7.753442764282227 25.34691429138184 11.2506856918335 20.15997123718262 15.70532894134521 15.70532894134521 C 20.15997123718262 11.2506856918335 25.34691429138184 7.753442764282227 31.12207221984863 5.310757160186768 C 37.10042953491211 2.782128572463989 43.45188522338867 1.5 50 1.5 C 56.54811477661133 1.5 62.89957046508789 2.782128572463989 68.8779296875 5.310757160186768 C 74.65309906005859 7.753442764282227 79.84004211425781 11.2506856918335 84.29468536376953 15.70532894134521 C 88.74931335449219 20.15997123718262 92.24655914306641 25.34691429138184 94.68923950195312 31.12207221984863 C 97.21787261962891 37.10042953491211 98.5 43.45188522338867 98.5 50 C 98.5 56.54811477661133 97.21787261962891 62.89957046508789 94.68923950195312 68.8779296875 C 92.24655914306641 74.65309906005859 88.74931335449219 79.84004211425781 84.29468536376953 84.29468536376953 C 79.84004211425781 88.74931335449219 74.65309906005859 92.24655914306641 68.8779296875 94.68923950195312 C 62.89957046508789 97.21787261962891 56.54811477661133 98.5 50 98.5 Z" stroke="none"/>
                    <path d="M 50 3 C 43.65372467041016 3 37.49886322021484 4.242263793945312 31.70639801025391 6.6922607421875 C 26.11003112792969 9.059326171875 21.08335113525391 12.44861602783203 16.76598358154297 16.76598358154297 C 12.44861602783203 21.08335113525391 9.059326171875 26.11003112792969 6.6922607421875 31.70639801025391 C 4.242263793945312 37.49886322021484 3 43.65372467041016 3 50 C 3 56.34627532958984 4.242263793945312 62.50113677978516 6.6922607421875 68.29360198974609 C 9.059326171875 73.88996887207031 12.44861602783203 78.91666412353516 16.76598358154297 83.23401641845703 C 21.08335113525391 87.55138397216797 26.11003112792969 90.940673828125 31.70639801025391 93.3077392578125 C 37.49886322021484 95.75773620605469 43.65372467041016 97 50 97 C 56.34627532958984 97 62.50113677978516 95.75773620605469 68.29360198974609 93.3077392578125 C 73.88996887207031 90.940673828125 78.91666412353516 87.55138397216797 83.23401641845703 83.23401641845703 C 87.55138397216797 78.91666412353516 90.940673828125 73.88996887207031 93.3077392578125 68.29360198974609 C 95.75773620605469 62.50113677978516 97 56.34627532958984 97 50 C 97 43.65372467041016 95.75773620605469 37.49886322021484 93.3077392578125 31.70639801025391 C 90.940673828125 26.11003112792969 87.55138397216797 21.08335113525391 83.23401641845703 16.76598358154297 C 78.91666412353516 12.44861602783203 73.88996887207031 9.059326171875 68.29360198974609 6.6922607421875 C 62.50113677978516 4.242263793945312 56.34627532958984 3 50 3 M 50 0 C 77.61424255371094 0 100 22.38577270507812 100 50 C 100 77.61424255371094 77.61424255371094 100 50 100 C 22.38577270507812 100 0 77.61424255371094 0 50 C 0 22.38577270507812 22.38577270507812 0 50 0 Z" stroke="none" fill="#83793c"/>
                  </g>
                </g>
              </g>
            </g>
          </g>
        </g>
      </g>
    </g>
    <g id="time-off_17322452" transform="translate(758.979 2233.432)">
      <path id="Trazado_1047339" data-name="Trazado 1047339" d="M449.059,204.522l1.99,1.99a.924.924,0,0,1,0,1.306l-3.115,3.115a.924.924,0,0,1-1.306,0l-1.99-1.99a.924.924,0,0,1,0-1.306l3.115-3.115A.924.924,0,0,1,449.059,204.522Z" transform="translate(-378.031 -149.435)" fill="#e4e8eb" fill-rule="evenodd"/>
      <path id="Trazado_1047340" data-name="Trazado 1047340" d="M111.351,55.022h-1.2a4.882,4.882,0,0,1-4.88-4.88V43.636a4.882,4.882,0,0,1,4.88-4.88h23.392a4.882,4.882,0,0,1,4.88,4.88v6.507a4.882,4.882,0,0,1-4.88,4.88h-1.2v-9.06a1.281,1.281,0,0,0-1.28-1.28H112.632a1.281,1.281,0,0,0-1.281,1.28Z" transform="translate(-84.265 -6.064)" fill="#7e6451" fill-rule="evenodd"/>
      <path id="Trazado_1047341" data-name="Trazado 1047341" d="M88.169,178.949V212.54a2.94,2.94,0,0,1-2.939,2.939H39.617a2.94,2.94,0,0,1-2.939-2.939V178.949a2.94,2.94,0,0,1,2.939-2.939H85.23a2.94,2.94,0,0,1,2.939,2.939Z" transform="translate(-24.843 -124.969)" fill="#efc7a4" fill-rule="evenodd"/>
      <path id="Trazado_1047342" data-name="Trazado 1047342" d="M15.009,141.468V124.475a2.005,2.005,0,0,1,2.005-2.005H70.288a2.006,2.006,0,0,1,2.005,2.005v16.977l-2.268,2.884H17.276Z" transform="translate(-6.071 -78.587)" fill="#d5a889" fill-rule="evenodd"/>
      <path id="Trazado_1047343" data-name="Trazado 1047343" d="M109.651,252.757v5.823a1.775,1.775,0,0,1-1.775,1.775H105.74a1.775,1.775,0,0,1-1.775-1.775v-5.823a1.775,1.775,0,0,1,1.775-1.774h2.137A1.775,1.775,0,0,1,109.651,252.757Z" transform="translate(-83.135 -189.919)" fill="#7e6451" fill-rule="evenodd"/>
      <path id="Trazado_1047344" data-name="Trazado 1047344" d="M281.364,206.512l1.99-1.99a.924.924,0,0,1,1.306,0l3.117,3.115a.928.928,0,0,1,0,1.306l-1.993,1.99a.921.921,0,0,1-1.3,0l-3.117-3.115A.924.924,0,0,1,281.364,206.512Z" transform="translate(-236.584 -149.435)" fill="#e4e8eb" fill-rule="evenodd"/>
      <path id="Trazado_1047345" data-name="Trazado 1047345" d="M355.132,149.22h7.638a.777.777,0,0,1,.776.778v2.323a.777.777,0,0,1-.776.778h-7.638a.778.778,0,0,1-.778-.778V150A.778.778,0,0,1,355.132,149.22Z" transform="translate(-300.05 -101.761)" fill="#fdcd56" fill-rule="evenodd"/>
      <path id="Trazado_1047346" data-name="Trazado 1047346" d="M307.1,237.893a12.5,12.5,0,1,0-12.5-12.5A12.524,12.524,0,0,0,307.1,237.893Z" transform="translate(-248.285 -156.922)" fill="#f4f6f8" fill-rule="evenodd"/>
      <path id="Trazado_1047347" data-name="Trazado 1047347" d="M299.3,231.3a13.7,13.7,0,1,1,13.7-13.7A13.729,13.729,0,0,1,299.3,231.3Zm0-2.406a11.3,11.3,0,1,0-11.3-11.3A11.318,11.318,0,0,0,299.3,228.893Z" transform="translate(-240.488 -149.126)" fill="#fdcd56" fill-rule="evenodd"/>
      <path id="Trazado_1047348" data-name="Trazado 1047348" d="M377.809,354.232a1.687,1.687,0,1,1,1.687-1.687A1.687,1.687,0,0,1,377.809,354.232Z" transform="translate(-318.908 -276.443)" fill="#f76c82" fill-rule="evenodd"/>
      <path id="Trazado_1047349" data-name="Trazado 1047349" d="M375.394,238.042a1.468,1.468,0,0,1,1.464,1.571l-.837,9.473a1.33,1.33,0,0,1-1.326,1.236h-.066a1.26,1.26,0,0,1-1.256-1.171l-.842-9.538a1.468,1.468,0,0,1,1.464-1.571Z" transform="translate(-315.794 -178.708)" fill="#f76c82" fill-rule="evenodd"/>
      <path id="Trazado_1047350" data-name="Trazado 1047350" d="M10.9,66.634a.936.936,0,0,1-.428-.3L8.2,63.462a.935.935,0,0,1-.2-.58V45.889a2.941,2.941,0,0,1,2.941-2.941h9.125V37.572a5.818,5.818,0,0,1,5.816-5.816H49.275a5.818,5.818,0,0,1,5.816,5.816v5.376h9.126a2.941,2.941,0,0,1,2.941,2.941v8.178a.936.936,0,0,1-1.872,0V45.889a1.069,1.069,0,0,0-1.069-1.069H52.422v9.307a.936.936,0,0,1-1.872,0V44.819H24.608V60.128h.133a2.71,2.71,0,0,1,2.71,2.71v1.975H42.943a.936.936,0,1,1,0,1.872H27.451v1.975a2.71,2.71,0,0,1-2.71,2.71H22.6a2.71,2.71,0,0,1-2.71-2.71V66.685H12.769V87.57a2,2,0,0,0,2,2H60.385a2,2,0,0,0,2-2v-3.5a.936.936,0,0,1,1.872,0v3.5a3.877,3.877,0,0,1-3.875,3.875H14.773A3.877,3.877,0,0,1,10.9,87.57ZM21.939,42.947h4.21V39.9a2.217,2.217,0,0,1,2.216-2.216H46.792A2.217,2.217,0,0,1,49.009,39.9v3.049h4.21V37.572a3.946,3.946,0,0,0-3.944-3.944H25.883a3.946,3.946,0,0,0-3.944,3.944Zm6.082,0H47.137V39.9a.345.345,0,0,0-.345-.345H28.366a.345.345,0,0,0-.345.345Zm-5.285,1.872H10.942a1.07,1.07,0,0,0-1.069,1.069V62.556l1.785,2.257h8.236V62.838a2.71,2.71,0,0,1,2.71-2.71h.133Zm2.843,23.842V62.838A.839.839,0,0,0,24.74,62H22.6a.839.839,0,0,0-.839.839v5.823a.839.839,0,0,0,.839.839H24.74A.839.839,0,0,0,25.579,68.661ZM46.461,61.1l-2.186-2.184a1.78,1.78,0,0,1,0-2.515l1.816-1.816a1.78,1.78,0,0,1,2.515,0l2.048,2.046A14.442,14.442,0,0,1,56,54.34V52.2H55.08a1.713,1.713,0,0,1-1.714-1.714V48.168a1.713,1.713,0,0,1,1.714-1.714h7.638a1.714,1.714,0,0,1,1.712,1.714v2.323A1.714,1.714,0,0,1,62.718,52.2H61.8V54.34a14.444,14.444,0,0,1,5.347,2.289l2.046-2.046a1.78,1.78,0,0,1,2.515,0L73.521,56.4a1.78,1.78,0,0,1,0,2.515L71.338,61.1a14.513,14.513,0,1,1-24.877,0Zm2.718-3.3-1.829-1.828-1.685,1.685,1.882,1.881A14.688,14.688,0,0,1,49.179,57.8Zm8.692-3.715q.509-.036,1.027-.036t1.027.036V52.2H57.871ZM68.619,57.8a14.678,14.678,0,0,1,1.632,1.737l1.88-1.88-1.685-1.685ZM55.238,48.326v2.007h7.32V48.326ZM58.9,81.2a12.641,12.641,0,1,0-12.64-12.64A12.665,12.665,0,0,0,58.9,81.2Zm.7-22.8A2.4,2.4,0,0,1,62,60.97c0,.005,0,.011,0,.016l-.836,9.459a2.266,2.266,0,0,1-2.26,2.1,2.232,2.232,0,0,1-2.255-2.031L55.8,60.987c0-.005,0-.011,0-.016A2.4,2.4,0,0,1,58.2,58.4Zm0,1.872H58.2a.532.532,0,0,0-.531.563l.841,9.528v.016a.362.362,0,0,0,.389.3.394.394,0,0,0,.393-.366v-.016s.836-9.463.836-9.465a.532.532,0,0,0-.531-.56Zm-.7,13.21A2.623,2.623,0,1,1,56.277,76.1,2.624,2.624,0,0,1,58.9,73.48Zm0,3.373a.751.751,0,1,0-.751-.751A.751.751,0,0,0,58.9,76.853Z" transform="translate(0)" fill-rule="evenodd"/>
    </g>
  </g>
</svg>
