<svg xmlns="http://www.w3.org/2000/svg" xmlns:xlink="http://www.w3.org/1999/xlink" width="108" height="108" viewBox="0 0 108 108">
  <defs>
    <filter id="Trazado_904820" x="0" y="0" width="108" height="108" filterUnits="userSpaceOnUse">
      <feOffset dy="3" input="SourceAlpha"/>
      <feGaussianBlur stdDeviation="3" result="blur"/>
      <feFlood flood-opacity="0.161"/>
      <feComposite operator="in" in2="blur"/>
      <feComposite in="SourceGraphic"/>
    </filter>
    <clipPath id="clip-path">
      <path id="path513" d="M0-682.665H58.272v58.272H0Z" transform="translate(0 682.665)"/>
    </clipPath>
  </defs>
  <g id="Grupo_1202346" data-name="Grupo 1202346" transform="translate(-200.522 -1225.176)">
    <g id="Grupo_1202148" data-name="Grupo 1202148" transform="translate(209.522 1231.176)">
      <g id="Grupo_1173585" data-name="Grupo 1173585" transform="translate(0 0)">
        <g id="Grupo_1173428" data-name="Grupo 1173428">
          <g id="Grupo_1171958" data-name="Grupo 1171958">
            <g id="Grupo_1167341" data-name="Grupo 1167341">
              <g id="Grupo_1166792" data-name="Grupo 1166792">
                <g transform="matrix(1, 0, 0, 1, -9, -6)" filter="url(#Trazado_904820)">
                  <g id="Trazado_904820-2" data-name="Trazado 904820" transform="translate(9 6)" fill="#fdfbec">
                    <path d="M 44.99999618530273 88.49999237060547 C 39.12687301635742 88.49999237060547 33.43022155761719 87.35006713867188 28.06829643249512 85.08216857910156 C 22.88852119445801 82.89130401611328 18.23629570007324 79.75457763671875 14.24084663391113 75.75914001464844 C 10.24540901184082 71.76369476318359 7.108683586120605 67.11146545410156 4.917821407318115 61.93169403076172 C 2.649921178817749 56.56976699829102 1.499996185302734 50.87311553955078 1.499996185302734 44.99999237060547 C 1.499996185302734 39.12686920166016 2.649921178817749 33.43021774291992 4.917821407318115 28.06829261779785 C 7.108683586120605 22.88851737976074 10.24540901184082 18.23630523681641 14.24084663391113 14.24085521697998 C 18.23629570007324 10.24540519714355 22.88852119445801 7.108692169189453 28.06829643249512 4.917829990386963 C 33.43022155761719 2.649929761886597 39.12687301635742 1.500004887580872 44.99999618530273 1.500004887580872 C 50.87311935424805 1.500004887580872 56.56977081298828 2.649929761886597 61.93169784545898 4.917829990386963 C 67.11147308349609 7.108692169189453 71.76369476318359 10.24540519714355 75.75914764404297 14.24085521697998 C 79.75458526611328 18.23630523681641 82.89131164550781 22.88851737976074 85.08216857910156 28.06829261779785 C 87.35007476806641 33.43021774291992 88.5 39.12686920166016 88.5 44.99999237060547 C 88.5 50.87311553955078 87.35007476806641 56.56976699829102 85.08216857910156 61.93169403076172 C 82.89131164550781 67.11146545410156 79.75458526611328 71.76369476318359 75.75914764404297 75.75914001464844 C 71.76369476318359 79.75457763671875 67.11147308349609 82.89130401611328 61.93169784545898 85.08216857910156 C 56.56977081298828 87.35006713867188 50.87311935424805 88.49999237060547 44.99999618530273 88.49999237060547 Z" stroke="none"/>
                    <path d="M 44.99999618530273 2.999992370605469 C 39.32870864868164 2.999992370605469 33.82865142822266 4.11004638671875 28.65262603759766 6.299331665039062 C 23.65165710449219 8.414566040039062 19.15968322753906 11.44333648681641 15.301513671875 15.30150604248047 C 11.44333648681641 19.15967559814453 8.414566040039062 23.65164947509766 6.299339294433594 28.65262222290039 C 4.110054016113281 33.82864761352539 2.999992370605469 39.32870483398438 2.999992370605469 44.99999237060547 C 2.999992370605469 50.67127990722656 4.110054016113281 56.17132186889648 6.299339294433594 61.34736633300781 C 8.414566040039062 66.34833526611328 11.44333648681641 70.84029388427734 15.301513671875 74.69846343994141 C 19.15968322753906 78.55663299560547 23.65165710449219 81.58540344238281 28.65262603759766 83.70063781738281 C 33.82865142822266 85.88992309570312 39.32870864868164 86.99997711181641 44.99999618530273 86.99997711181641 C 50.67128372192383 86.99997711181641 56.17134094238281 85.88992309570312 61.34736633300781 83.70063781738281 C 66.34834289550781 81.58540344238281 70.84030914306641 78.55663299560547 74.69847869873047 74.69846343994141 C 78.55665588378906 70.84029388427734 81.58542633056641 66.34833526611328 83.70065307617188 61.34736633300781 C 85.88993835449219 56.17132186889648 87 50.67127990722656 87 44.99999237060547 C 87 39.32870483398438 85.88993835449219 33.82864761352539 83.70065307617188 28.65262222290039 C 81.58542633056641 23.65164947509766 78.55665588378906 19.15967559814453 74.69847869873047 15.30150604248047 C 70.84030914306641 11.44333648681641 66.34834289550781 8.414566040039062 61.34736633300781 6.299331665039062 C 56.17134094238281 4.11004638671875 50.67128372192383 2.999992370605469 44.99999618530273 2.999992370605469 M 44.99999618530273 -7.62939453125e-06 C 69.85281372070312 -7.62939453125e-06 90 20.14717864990234 90 44.99999237060547 C 90 69.85279083251953 69.85281372070312 89.99997711181641 44.99999618530273 89.99997711181641 C 20.14717864990234 89.99997711181641 -7.62939453125e-06 69.85279083251953 -7.62939453125e-06 44.99999237060547 C -7.62939453125e-06 20.14717864990234 20.14717864990234 -7.62939453125e-06 44.99999618530273 -7.62939453125e-06 Z" stroke="none" fill="#83793c"/>
                  </g>
                </g>
              </g>
            </g>
          </g>
        </g>
      </g>
    </g>
    <g id="g507" transform="translate(225.387 1929.705)">
      <g id="g509" transform="translate(0 -682.665)">
        <g id="g511" clip-path="url(#clip-path)">
          <g id="g517" transform="translate(27.787 18.82)">
            <path id="path519" d="M-110.208,0a11.925,11.925,0,0,0,.5,6.328,5.633,5.633,0,0,1-2.858,6.93,12.486,12.486,0,0,1-5.784,1.165l-2.148-5.188L-113.59,0Z" transform="translate(120.493)" fill="#475066"/>
          </g>
          <g id="g521" transform="translate(39.224 42.182)">
            <path id="path523" d="M-149.417-81.505c0,4.2-3.122,5.744-6.972,5.744s-6.972-1.543-6.972-5.744,3.121-7.606,6.972-7.606,6.972,3.406,6.972,7.606" transform="translate(163.361 89.112)" fill="#d1986f"/>
          </g>
          <g id="g525" transform="translate(36.612 26.033)">
            <path id="path527" d="M-76.931-38.466a3.59,3.59,0,0,1-3.59,3.59,3.59,3.59,0,0,1-3.59-3.59,3.59,3.59,0,0,1,3.59-3.59,3.59,3.59,0,0,1,3.59,3.59" transform="translate(84.11 42.056)" fill="#c37b47"/>
          </g>
          <g id="g529" transform="translate(48.6 26.033)">
            <path id="path531" d="M0-38.466a3.59,3.59,0,0,0,3.59,3.59,3.59,3.59,0,0,0,3.59-3.59,3.59,3.59,0,0,0-3.59-3.59A3.59,3.59,0,0,0,0-38.466" transform="translate(0 42.056)" fill="#c37b47"/>
          </g>
          <g id="g533" transform="translate(39.821 42.182)">
            <path id="path535" d="M-68.314-68.184a11.942,11.942,0,0,0,6.375-1.836,6.979,6.979,0,0,0-6.375-4.528,6.979,6.979,0,0,0-6.375,4.528,11.941,11.941,0,0,0,6.375,1.836" transform="translate(74.689 74.548)" fill="#c37b47"/>
          </g>
          <g id="g537" transform="translate(37.596 27.931)">
            <path id="path539" d="M-184.295-92.148a8.6,8.6,0,0,1-8.6,8.6,8.6,8.6,0,0,1-8.6-8.6,8.6,8.6,0,0,1,8.6-8.6,8.6,8.6,0,0,1,8.6,8.6" transform="translate(201.494 100.748)" fill="#d1986f"/>
          </g>
          <g id="g541" transform="translate(13.812 48.762)">
            <path id="path543" d="M-74.859-30.917v2.278a3.494,3.494,0,0,1-3.493,3.493,3.493,3.493,0,0,1-3.493-3.493v-2.278l3.493-2.885Z" transform="translate(81.845 33.803)" fill="#f98797"/>
          </g>
          <g id="g545" transform="translate(20.799 48.762)">
            <path id="path547" d="M0-30.917v2.278a3.5,3.5,0,0,0,3.493,3.493A3.493,3.493,0,0,0,6.986-28.64v-2.278L3.493-33.8Z" transform="translate(0 33.803)" fill="#f98797"/>
          </g>
          <g id="g549" transform="translate(13.812 43.548)">
            <path id="path551" d="M-74.859,0l3.493,5.214L-74.859,8.1h-6.986V0Z" transform="translate(81.845)" fill="#fed2a4"/>
          </g>
          <g id="g553" transform="translate(2.832 0.854)">
            <path id="path555" d="M0-192.514a17.987,17.987,0,0,1,17.966-17.966,17.987,17.987,0,0,1,17.966,17.966Z" transform="translate(0 210.481)" fill="#475066"/>
          </g>
          <g id="g557" transform="translate(2.701 18.82)">
            <path id="path559" d="M-8.828,0a11.924,11.924,0,0,1-.5,6.328,5.633,5.633,0,0,0,2.858,6.93A12.487,12.487,0,0,0-.691,14.423L1.457,9.234-5.446,0Z" transform="translate(9.652)" fill="#303646"/>
          </g>
          <g id="g561" transform="translate(22.768 26.168)">
            <path id="path563" d="M-157.487-41.867a14.11,14.11,0,0,1-8.686-3.907l-6.012,3.736a20.551,20.551,0,0,0,13.91,7.113A3.493,3.493,0,0,0-154.41-38a3.493,3.493,0,0,0-3.077-3.864" transform="translate(172.185 45.775)" fill="#ffbd86"/>
          </g>
          <path id="path565" d="M243.661-164.392h6.986v-8.1h-6.986Z" transform="translate(-222.862 216.04)" fill="#ffbd86"/>
          <g id="g567" transform="translate(9.692 28.055)">
            <path id="path569" d="M-237.732-147.342a42.206,42.206,0,0,0-4.092-13.751H-255.8a42.205,42.205,0,0,0-4.091,13.751,3.77,3.77,0,0,0,3.738,4.219h14.684a3.77,3.77,0,0,0,3.738-4.219" transform="translate(259.919 161.093)" fill="#f98797"/>
          </g>
          <g id="g571" transform="translate(2.832 1.007)">
            <path id="path573" d="M-81.083-179.361c0-6.952,2.865-13.543,8.051-16.739A17.993,17.993,0,0,0-88.65-178.287h7.6c-.021-.355-.033-.713-.033-1.074" transform="translate(88.65 196.1)" fill="#303646"/>
          </g>
          <g id="g575" transform="translate(30.74 14.754)">
            <path id="path577" d="M0-44.817a4.183,4.183,0,0,0,4.183,4.183,4.183,4.183,0,0,0,4.183-4.183A4.183,4.183,0,0,0,4.183-49,4.183,4.183,0,0,0,0-44.817" transform="translate(0 49)" fill="#ffbd86"/>
          </g>
          <g id="g579" transform="translate(6.907 7.427)">
            <path id="path581" d="M-292.588-83.3a5.3,5.3,0,0,0-4.085-3.8,18.718,18.718,0,0,1-8.153-3.557,1.88,1.88,0,0,0-2.353,0,18.713,18.713,0,0,1-8.152,3.557,5.326,5.326,0,0,0-4.1,3.874,13.9,13.9,0,0,0-.458,3.549A13.892,13.892,0,0,0-305.447-65.8a13.928,13.928,0,0,0,13.334-13.8,13.917,13.917,0,0,0-.476-3.7" transform="translate(319.894 91.078)" fill="#fed2a4"/>
          </g>
          <g id="g583" transform="translate(9.692 28.055)">
            <path id="path585" d="M-45.895-100.232a11.613,11.613,0,0,1,4.719-9.354H-46.06a42.2,42.2,0,0,0-4.092,13.751,3.77,3.77,0,0,0,3.738,4.219h4.336a11.6,11.6,0,0,1-3.817-8.615" transform="translate(50.178 109.586)" fill="#e35b70"/>
          </g>
          <g id="g587" transform="translate(8.846 25.325)">
            <path id="path589" d="M-10.962-111.165a3.493,3.493,0,0,1,0-4.94l4.412-4.411a3.493,3.493,0,0,1,4.94,0,3.493,3.493,0,0,1,0,4.94l-4.411,4.411a3.493,3.493,0,0,1-4.94,0" transform="translate(11.985 121.539)" fill="#ffbd86"/>
          </g>
          <g id="g591" transform="translate(2.492 11.455)">
            <path id="path593" d="M-170.428-225.54a17.6,17.6,0,0,1-8-14.758,24.305,24.305,0,0,1,.816-6.291,5.324,5.324,0,0,0-3.717,3.391,3.488,3.488,0,0,0-.823-.093,4.183,4.183,0,0,0-4.183,4.183,4.183,4.183,0,0,0,4.183,4.183,3.441,3.441,0,0,0,.877-.107,13.911,13.911,0,0,0,10.845,9.492" transform="translate(186.333 246.589)" fill="#ffbd86"/>
          </g>
          <g id="g595" transform="translate(8.959 18.598)">
            <path id="path597" d="M-68.389-27.231c0,1.4-1.429,2.541-3.191,2.541s-3.191-1.138-3.191-2.541,1.429-2.541,3.191-2.541,3.191,1.138,3.191,2.541" transform="translate(74.772 29.772)" fill="#f98797"/>
          </g>
          <g id="g599" transform="translate(26.256 18.598)">
            <path id="path601" d="M0-27.231c0,1.4,1.429,2.541,3.191,2.541s3.191-1.138,3.191-2.541-1.429-2.541-3.191-2.541S0-28.634,0-27.231" transform="translate(0 29.772)" fill="#f98797"/>
          </g>
          <g id="g603" transform="translate(38.831 51.375)">
            <path id="path605" d="M-29.476,0a2.751,2.751,0,0,0-2.751,2.751c0,1.519,1.232,2.324,2.751,2.324s2.751-.805,2.751-2.324A2.751,2.751,0,0,0-29.476,0" transform="translate(32.227)" fill="#e8aa79"/>
          </g>
          <g id="g607" transform="translate(48.059 51.375)">
            <path id="path609" d="M-29.475,0a2.751,2.751,0,0,1,2.751,2.751c0,1.519-1.231,2.324-2.751,2.324s-2.751-.805-2.751-2.324A2.751,2.751,0,0,1-29.475,0" transform="translate(32.225)" fill="#e8aa79"/>
          </g>
          <g id="g611" transform="translate(37.575 42.246)">
            <path id="path613" d="M-58.384-29.192a2.724,2.724,0,0,1-2.724,2.724,2.724,2.724,0,0,1-2.724-2.724,2.724,2.724,0,0,1,2.724-2.724,2.724,2.724,0,0,1,2.724,2.724" transform="translate(63.833 31.916)" fill="#e8aa79"/>
          </g>
          <g id="g615" transform="translate(49.369 42.246)">
            <path id="path617" d="M0-29.192a2.724,2.724,0,0,0,2.724,2.724,2.724,2.724,0,0,0,2.724-2.724,2.724,2.724,0,0,0-2.724-2.724A2.724,2.724,0,0,0,0-29.192" transform="translate(0 31.916)" fill="#e8aa79"/>
          </g>
          <g id="g619" transform="translate(13.812 51.647)">
            <path id="path621" d="M-74.859,0V2.277a3.494,3.494,0,0,1-3.493,3.493,3.493,3.493,0,0,1-3.493-3.493V0Z" transform="translate(81.845)" fill="none" stroke="#000" stroke-linecap="round" stroke-linejoin="round" stroke-miterlimit="10" stroke-width="1.2"/>
          </g>
          <g id="g623" transform="translate(20.799 51.647)">
            <path id="path625" d="M0,0V2.277a3.493,3.493,0,0,0,6.986,0V0Z" fill="none" stroke="#000" stroke-linecap="round" stroke-linejoin="round" stroke-miterlimit="10" stroke-width="1.2"/>
          </g>
          <g id="g627" transform="translate(14.01 17.388)">
            <path id="path629" d="M0,0V1.3" fill="none" stroke="#000" stroke-linecap="round" stroke-linejoin="round" stroke-miterlimit="10" stroke-width="1.2"/>
          </g>
          <g id="g631" transform="translate(27.587 17.388)">
            <path id="path633" d="M0,0V1.3" fill="none" stroke="#000" stroke-linecap="round" stroke-linejoin="round" stroke-miterlimit="10" stroke-width="1.2"/>
          </g>
          <g id="g635" transform="translate(19.009 19.585)">
            <path id="path637" d="M-38.358-8.738a2.368,2.368,0,0,0-1.79-.815,2.368,2.368,0,0,0-1.79.815" transform="translate(41.937 9.553)" fill="none" stroke="#000" stroke-linecap="round" stroke-linejoin="round" stroke-miterlimit="10" stroke-width="1.2"/>
          </g>
          <g id="g639" transform="translate(41.576 37.846)">
            <path id="path641" d="M0,0V.888" fill="none" stroke="#000" stroke-linecap="round" stroke-linejoin="round" stroke-miterlimit="10" stroke-width="1.2"/>
          </g>
          <g id="g643" transform="translate(50.816 37.846)">
            <path id="path645" d="M0,0V.888" fill="none" stroke="#000" stroke-linecap="round" stroke-linejoin="round" stroke-miterlimit="10" stroke-width="1.2"/>
          </g>
          <g id="g647" transform="translate(44.978 38.707)">
            <path id="path649" d="M0,0A1.612,1.612,0,0,0,1.218.555,1.611,1.611,0,0,0,2.436,0" fill="none" stroke="#000" stroke-linecap="round" stroke-linejoin="round" stroke-miterlimit="10" stroke-width="1.2"/>
          </g>
          <g id="g651" transform="translate(2.915 0.854)">
            <path id="path653" d="M-65.727-47.008a17.946,17.946,0,0,0-6.134,11.862,4.183,4.183,0,0,1,3.76-2.349,4.2,4.2,0,0,1,.826.082,5.321,5.321,0,0,1,3.969-3.438,18.714,18.714,0,0,0,8.152-3.557,1.88,1.88,0,0,1,2.353,0,18.72,18.72,0,0,0,8.153,3.558,5.3,5.3,0,0,1,3.972,3.437,4.205,4.205,0,0,1,.823-.081,4.182,4.182,0,0,1,3.76,2.35,17.991,17.991,0,0,0-17.884-16.25A17.853,17.853,0,0,0-62.9-49.016" transform="translate(71.861 51.395)" fill="none" stroke="#000" stroke-linecap="round" stroke-linejoin="round" stroke-miterlimit="10" stroke-width="1.2"/>
          </g>
          <g id="g655" transform="translate(2.701 21.89)">
            <path id="path657" d="M-76.807-95.038l1.626-1.626a13.9,13.9,0,0,1-3.94-6.108,4.19,4.19,0,0,1-.881.094,4.169,4.169,0,0,1-2.962-1.229,12.6,12.6,0,0,1-.693,3.258,5.633,5.633,0,0,0,2.858,6.93,11.433,11.433,0,0,0,2.974.954A3.479,3.479,0,0,1-76.807-95.038Z" transform="translate(83.975 103.908)" fill="none" stroke="#000" stroke-linecap="round" stroke-linejoin="round" stroke-miterlimit="10" stroke-width="1.2"/>
          </g>
          <g id="g659" transform="translate(31.172 21.89)">
            <path id="path661" d="M-.087-65.906a15.143,15.143,0,0,0,5.449,1.92c-.01-.111-.016-.224-.016-.337a3.59,3.59,0,0,1,2.236-3.325A5.586,5.586,0,0,0,7.31-68.8a12.6,12.6,0,0,1-.693-3.258,4.17,4.17,0,0,1-2.961,1.229,4.2,4.2,0,0,1-.888-.1A13.948,13.948,0,0,1-.095-65.911Z" transform="translate(0.095 72.057)" fill="none" stroke="#000" stroke-linecap="round" stroke-linejoin="round" stroke-miterlimit="10" stroke-width="1.2"/>
          </g>
          <g id="g663" transform="translate(2.492 14.754)">
            <path id="path665" d="M-47.31-43.572a13.9,13.9,0,0,1,.458-3.549c.039-.148.085-.293.136-.436a4.2,4.2,0,0,0-.826-.082,4.183,4.183,0,0,0-4.183,4.183,4.183,4.183,0,0,0,4.183,4.183,4.2,4.2,0,0,0,.881-.094A13.882,13.882,0,0,1-47.31-43.572Z" transform="translate(51.725 47.639)" fill="none" stroke="#000" stroke-linecap="round" stroke-linejoin="round" stroke-miterlimit="10" stroke-width="1.2"/>
          </g>
          <g id="g667" transform="translate(34.034 14.754)">
            <path id="path669" d="M-9.52,0a4.2,4.2,0,0,0-.823.081q.063.18.113.366a13.912,13.912,0,0,1,.476,3.7,13.772,13.772,0,0,1-.655,4.122,4.2,4.2,0,0,0,.888.1A4.183,4.183,0,0,0-5.337,4.183,4.183,4.183,0,0,0-9.52,0Z" transform="translate(10.408)" fill="none" stroke="#000" stroke-linecap="round" stroke-linejoin="round" stroke-miterlimit="10" stroke-width="1.2"/>
          </g>
          <g id="g671" transform="translate(8.846 25.325)">
            <path id="path673" d="M-10.962-111.165a3.493,3.493,0,0,1,0-4.94l4.411-4.411a3.493,3.493,0,0,1,4.94,0,3.493,3.493,0,0,1,0,4.94l-4.411,4.411A3.493,3.493,0,0,1-10.962-111.165Z" transform="translate(11.985 121.539)" fill="none" stroke="#000" stroke-linecap="round" stroke-linejoin="round" stroke-miterlimit="10" stroke-width="1.2"/>
          </g>
          <g id="g675" transform="translate(6.907 7.427)">
            <path id="path677" d="M-213.839-255.942a13.942,13.942,0,0,0,7.825-12.411,13.917,13.917,0,0,0-.476-3.7,5.3,5.3,0,0,0-4.085-3.8,18.72,18.72,0,0,1-8.153-3.558,1.88,1.88,0,0,0-2.353,0,18.714,18.714,0,0,1-8.152,3.557,5.326,5.326,0,0,0-4.1,3.874,13.909,13.909,0,0,0-.458,3.549,13.854,13.854,0,0,0,4.587,10.314l2.786-2.786a3.493,3.493,0,0,1,4.94,0,3.493,3.493,0,0,1,0,4.94l-1.154,1.154a13.992,13.992,0,0,0,3.288.258,13.783,13.783,0,0,0,2.418-.31" transform="translate(233.795 279.828)" fill="none" stroke="#000" stroke-linecap="round" stroke-linejoin="round" stroke-miterlimit="10" stroke-width="1.2"/>
          </g>
          <path id="path679" d="M161.814-137.86H168.8v-5.623h-6.986Z" transform="translate(-148.002 189.508)" fill="none" stroke="#000" stroke-linecap="round" stroke-linejoin="round" stroke-miterlimit="10" stroke-width="1.2"/>
          <path id="path681" d="M243.659-137.86h6.986v-5.623h-6.986Z" transform="translate(-222.861 189.508)" fill="none" stroke="#000" stroke-linecap="round" stroke-linejoin="round" stroke-miterlimit="10" stroke-width="1.2"/>
          <g id="g683" transform="translate(9.692 30.179)">
            <path id="path685" d="M-150.872-23.688a13.769,13.769,0,0,1-2.418.311,13.993,13.993,0,0,1-3.288-.258l-3.257,3.257a3.494,3.494,0,0,1-4.064.639,41.4,41.4,0,0,0-1.027,5.467,3.77,3.77,0,0,0,3.738,4.219H-146.5a3.77,3.77,0,0,0,3.738-4.219,43.517,43.517,0,0,0-3.1-11.627,13.9,13.9,0,0,1-1.914,1.132" transform="translate(164.952 25.899)" fill="none" stroke="#000" stroke-linecap="round" stroke-linejoin="round" stroke-miterlimit="10" stroke-width="1.2"/>
          </g>
          <g id="g687" transform="translate(28.776 28.036)">
            <path id="path689" d="M-93.1-21.854a15.413,15.413,0,0,1-6.293-2.04,14.054,14.054,0,0,1-2.4,2.143,44.035,44.035,0,0,1,1.861,5.36,23.509,23.509,0,0,0,6.04,1.478,3.493,3.493,0,0,0,3.864-3.077A3.493,3.493,0,0,0-93.1-21.854Z" transform="translate(101.79 23.893)" fill="none" stroke="#000" stroke-linecap="round" stroke-linejoin="round" stroke-miterlimit="10" stroke-width="1.2"/>
          </g>
          <g id="g691" transform="translate(36.612 26.033)">
            <path id="path693" d="M-74.409-24.76a3.59,3.59,0,0,0-3.354-2.311,3.59,3.59,0,0,0-3.59,3.59c0,.114.006.226.016.337.272.043.55.083.837.115a3.476,3.476,0,0,1,2.079,1A8.613,8.613,0,0,1-74.409-24.76Z" transform="translate(81.353 27.071)" fill="none" stroke="#000" stroke-linecap="round" stroke-linejoin="round" stroke-miterlimit="10" stroke-width="1.2"/>
          </g>
          <g id="g695" transform="translate(48.835 26.033)">
            <path id="path697" d="M-54.572-72.122a3.588,3.588,0,0,0,1.852-3.141,3.59,3.59,0,0,0-3.59-3.59,3.59,3.59,0,0,0-3.355,2.312A8.623,8.623,0,0,1-54.572-72.122Z" transform="translate(59.665 78.853)" fill="none" stroke="#000" stroke-linecap="round" stroke-linejoin="round" stroke-miterlimit="10" stroke-width="1.2"/>
          </g>
          <g id="g699" transform="translate(37.575 42.246)">
            <path id="path701" d="M-58.384-29.192a2.724,2.724,0,0,1-2.724,2.724,2.724,2.724,0,0,1-2.724-2.724,2.724,2.724,0,0,1,2.724-2.724A2.724,2.724,0,0,1-58.384-29.192Z" transform="translate(63.833 31.916)" fill="none" stroke="#000" stroke-linecap="round" stroke-linejoin="round" stroke-miterlimit="10" stroke-width="1.2"/>
          </g>
          <g id="g703" transform="translate(37.609 27.931)">
            <path id="path705" d="M-155.195-153.387a2.741,2.741,0,0,1,.488.044,8.567,8.567,0,0,0,2.215-5.76,8.6,8.6,0,0,0-8.6-8.6,8.582,8.582,0,0,0-6.651,3.149,3.486,3.486,0,0,1,1,2.86,3.494,3.494,0,0,1-2.933,3.058,8.564,8.564,0,0,0,2.2,5.292,2.739,2.739,0,0,1,.486-.044,2.725,2.725,0,0,1,2.685,2.264,8.574,8.574,0,0,0,3.212.621,8.573,8.573,0,0,0,3.212-.623A2.724,2.724,0,0,1-155.195-153.387Z" transform="translate(169.678 167.702)" fill="none" stroke="#000" stroke-linecap="round" stroke-linejoin="round" stroke-miterlimit="10" stroke-width="1.2"/>
          </g>
          <g id="g707" transform="translate(49.369 42.246)">
            <path id="path709" d="M0-29.192a2.724,2.724,0,0,0,2.724,2.724,2.724,2.724,0,0,0,2.724-2.724,2.724,2.724,0,0,0-2.724-2.724A2.724,2.724,0,0,0,0-29.192Z" transform="translate(0 31.916)" fill="none" stroke="#000" stroke-linecap="round" stroke-linejoin="round" stroke-miterlimit="10" stroke-width="1.2"/>
          </g>
          <g id="g711" transform="translate(38.831 51.376)">
            <path id="path713" d="M-29.475,0a2.751,2.751,0,0,0-2.751,2.751c0,1.519,1.232,2.324,2.751,2.324s2.751-.805,2.751-2.324A2.751,2.751,0,0,0-29.475,0Z" transform="translate(32.225)" fill="none" stroke="#000" stroke-linecap="round" stroke-linejoin="round" stroke-miterlimit="10" stroke-width="1.2"/>
          </g>
          <g id="g715" transform="translate(39.224 44.508)">
            <path id="path717" d="M-94.674-103.063a2.751,2.751,0,0,1,2.751-2.751,2.742,2.742,0,0,1,1.936.8,6.321,6.321,0,0,0,.422-2.385,8.247,8.247,0,0,0-.3-2.206,2.723,2.723,0,0,1-.776.113,2.724,2.724,0,0,1-2.724-2.724,2.74,2.74,0,0,1,.04-.462,8.573,8.573,0,0,1-3.212.623,8.574,8.574,0,0,1-3.212-.621,2.73,2.73,0,0,1,.04.461,2.725,2.725,0,0,1-2.724,2.724,2.724,2.724,0,0,1-.776-.113,8.247,8.247,0,0,0-.3,2.206,6.321,6.321,0,0,0,.422,2.385,2.742,2.742,0,0,1,1.936-.8,2.751,2.751,0,0,1,2.751,2.751,2.219,2.219,0,0,1-.332,1.212,11.792,11.792,0,0,0,2.195.194,11.79,11.79,0,0,0,2.195-.194A2.22,2.22,0,0,1-94.674-103.063Z" transform="translate(103.509 112.681)" fill="none" stroke="#000" stroke-linecap="round" stroke-linejoin="round" stroke-miterlimit="10" stroke-width="1.2"/>
          </g>
          <g id="g719" transform="translate(48.059 51.376)">
            <path id="path721" d="M-29.475,0a2.751,2.751,0,0,1,2.751,2.751c0,1.519-1.231,2.324-2.751,2.324s-2.751-.805-2.751-2.324A2.751,2.751,0,0,1-29.475,0Z" transform="translate(32.225)" fill="none" stroke="#000" stroke-linecap="round" stroke-linejoin="round" stroke-miterlimit="10" stroke-width="1.2"/>
          </g>
        </g>
      </g>
    </g>
  </g>
</svg>
