<svg xmlns="http://www.w3.org/2000/svg" xmlns:xlink="http://www.w3.org/1999/xlink" width="118" height="118" viewBox="0 0 118 118">
  <defs>
    <filter id="Trazado_982547" x="0" y="0" width="118" height="118" filterUnits="userSpaceOnUse">
      <feOffset dy="3" input="SourceAlpha"/>
      <feGaussianBlur stdDeviation="3" result="blur"/>
      <feFlood flood-opacity="0.161"/>
      <feComposite operator="in" in2="blur"/>
      <feComposite in="SourceGraphic"/>
    </filter>
  </defs>
  <g id="Grupo_1202383" data-name="Grupo 1202383" transform="translate(-740.796 -3473.017)">
    <g id="Grupo_1202233" data-name="Grupo 1202233" transform="translate(749.796 3479.017)">
      <g id="Grupo_1201680" data-name="Grupo 1201680">
        <g id="Grupo_1201330" data-name="Grupo 1201330">
          <g id="Grupo_1172010" data-name="Grupo 1172010">
            <g id="Grupo_1171046" data-name="Grupo 1171046">
              <g id="Grupo_1148525" data-name="Grupo 1148525">
                <g transform="matrix(1, 0, 0, 1, -9, -6)" filter="url(#Trazado_982547)">
                  <g id="Trazado_982547-2" data-name="Trazado 982547" transform="translate(9 6)" fill="#effbfe">
                    <path d="M 50 98.5 C 43.45188522338867 98.5 37.10042953491211 97.21787261962891 31.12207221984863 94.68923950195312 C 25.34691429138184 92.24655914306641 20.15997123718262 88.74931335449219 15.70532894134521 84.29468536376953 C 11.2506856918335 79.84004211425781 7.753442764282227 74.65309906005859 5.310757160186768 68.8779296875 C 2.782128572463989 62.89957046508789 1.5 56.54811477661133 1.5 50 C 1.5 43.45188522338867 2.782128572463989 37.10042953491211 5.310757160186768 31.12207221984863 C 7.753442764282227 25.34691429138184 11.2506856918335 20.15997123718262 15.70532894134521 15.70532894134521 C 20.15997123718262 11.2506856918335 25.34691429138184 7.753442764282227 31.12207221984863 5.310757160186768 C 37.10042953491211 2.782128572463989 43.45188522338867 1.5 50 1.5 C 56.54811477661133 1.5 62.89957046508789 2.782128572463989 68.8779296875 5.310757160186768 C 74.65309906005859 7.753442764282227 79.84004211425781 11.2506856918335 84.29468536376953 15.70532894134521 C 88.74931335449219 20.15997123718262 92.24655914306641 25.34691429138184 94.68923950195312 31.12207221984863 C 97.21787261962891 37.10042953491211 98.5 43.45188522338867 98.5 50 C 98.5 56.54811477661133 97.21787261962891 62.89957046508789 94.68923950195312 68.8779296875 C 92.24655914306641 74.65309906005859 88.74931335449219 79.84004211425781 84.29468536376953 84.29468536376953 C 79.84004211425781 88.74931335449219 74.65309906005859 92.24655914306641 68.8779296875 94.68923950195312 C 62.89957046508789 97.21787261962891 56.54811477661133 98.5 50 98.5 Z" stroke="none"/>
                    <path d="M 50 3 C 43.65372467041016 3 37.49886322021484 4.242263793945312 31.70639801025391 6.6922607421875 C 26.11003112792969 9.059326171875 21.08335113525391 12.44861602783203 16.76598358154297 16.76598358154297 C 12.44861602783203 21.08335113525391 9.059326171875 26.11003112792969 6.6922607421875 31.70639801025391 C 4.242263793945312 37.49886322021484 3 43.65372467041016 3 50 C 3 56.34627532958984 4.242263793945312 62.50113677978516 6.6922607421875 68.29360198974609 C 9.059326171875 73.88996887207031 12.44861602783203 78.91666412353516 16.76598358154297 83.23401641845703 C 21.08335113525391 87.55138397216797 26.11003112792969 90.940673828125 31.70639801025391 93.3077392578125 C 37.49886322021484 95.75773620605469 43.65372467041016 97 50 97 C 56.34627532958984 97 62.50113677978516 95.75773620605469 68.29360198974609 93.3077392578125 C 73.88996887207031 90.940673828125 78.91666412353516 87.55138397216797 83.23401641845703 83.23401641845703 C 87.55138397216797 78.91666412353516 90.940673828125 73.88996887207031 93.3077392578125 68.29360198974609 C 95.75773620605469 62.50113677978516 97 56.34627532958984 97 50 C 97 43.65372467041016 95.75773620605469 37.49886322021484 93.3077392578125 31.70639801025391 C 90.940673828125 26.11003112792969 87.55138397216797 21.08335113525391 83.23401641845703 16.76598358154297 C 78.91666412353516 12.44861602783203 73.88996887207031 9.059326171875 68.29360198974609 6.6922607421875 C 62.50113677978516 4.242263793945312 56.34627532958984 3 50 3 M 50 0 C 77.61424255371094 0 100 22.38577270507812 100 50 C 100 77.61424255371094 77.61424255371094 100 50 100 C 22.38577270507812 100 0 77.61424255371094 0 50 C 0 22.38577270507812 22.38577270507812 0 50 0 Z" stroke="none" fill="#497f88"/>
                  </g>
                </g>
              </g>
            </g>
          </g>
        </g>
      </g>
    </g>
    <g id="accompaniment_9305692" transform="translate(761.402 3486.618)">
      <g id="Grupo_1202377" data-name="Grupo 1202377" transform="translate(7.5 8.231)">
        <g id="Grupo_1202374" data-name="Grupo 1202374" transform="translate(20.229 0)">
          <path id="Trazado_1047520" data-name="Trazado 1047520" d="M241.966,40.167H217.537a3.1,3.1,0,0,1-3.1-3.1V18.787A10.552,10.552,0,0,1,224.989,8.235h9.524a10.552,10.552,0,0,1,10.552,10.552v18.28A3.1,3.1,0,0,1,241.966,40.167Z" transform="translate(-208.77 -8.235)" fill="#c68d7a"/>
          <path id="Trazado_1047521" data-name="Trazado 1047521" d="M350.363,8.235h-3.505A10.552,10.552,0,0,1,357.41,18.787v18.28a3.1,3.1,0,0,1-3.1,3.1h3.505a3.1,3.1,0,0,0,3.1-3.1V18.787A10.552,10.552,0,0,0,350.363,8.235Z" transform="translate(-324.619 -8.235)" fill="#bc7c63"/>
          <path id="Trazado_1047522" data-name="Trazado 1047522" d="M204.342,304.956H175.926a6.775,6.775,0,0,0-6.775,6.775V318.9h9.3v10.935h32.67v-18.1A6.775,6.775,0,0,0,204.342,304.956Z" transform="translate(-169.151 -267.824)" fill="#fd8087"/>
          <path id="Trazado_1047523" data-name="Trazado 1047523" d="M428.471,304.956H425.34a6.775,6.775,0,0,1,6.775,6.775v18.1h3.131v-18.1A6.775,6.775,0,0,0,428.471,304.956Z" transform="translate(-393.28 -267.824)" fill="#fe646f"/>
          <path id="Trazado_1047524" data-name="Trazado 1047524" d="M265.081,111.425H256.6a6.627,6.627,0,0,1-6.627-6.627v-9.14a5.972,5.972,0,0,1,5.972-5.972h15.767V104.8A6.627,6.627,0,0,1,265.081,111.425Z" transform="translate(-239.855 -79.493)" fill="#ffcebf"/>
          <path id="Trazado_1047525" data-name="Trazado 1047525" d="M352.335,89.686V104.8a6.627,6.627,0,0,1-6.627,6.627h3.131a6.627,6.627,0,0,0,6.627-6.627V89.686Z" transform="translate(-323.613 -79.493)" fill="#ffb09e"/>
          <path id="Trazado_1047526" data-name="Trazado 1047526" d="M424.77,149.523h-1.087v-6.712h1.087a3.356,3.356,0,0,1,3.356,3.356h0A3.356,3.356,0,0,1,424.77,149.523Z" transform="translate(-391.83 -125.97)" fill="#ffb09e"/>
          <path id="Trazado_1047527" data-name="Trazado 1047527" d="M297.693,79.035s4.9,9.4,15.767,6.648l.81-8.172Z" transform="translate(-281.607 -68.843)" fill="#c68d7a"/>
          <path id="Trazado_1047528" data-name="Trazado 1047528" d="M277.276,268.6v-5.2h-8.311v5.2h-4.957v1.641a2.392,2.392,0,0,0,2.392,2.392h13.523a2.392,2.392,0,0,0,2.392-2.392V268.6Z" transform="translate(-252.137 -231.468)" fill="#ffb09e"/>
          <g id="Grupo_1202373" data-name="Grupo 1202373" transform="translate(22.008 31.932)">
            <path id="Trazado_1047529" data-name="Trazado 1047529" d="M348.143,268.6v-5.2h-3.131v3.619a1.581,1.581,0,0,0,1.582,1.582h1.549Z" transform="translate(-345.012 -263.4)" fill="#f89580"/>
            <path id="Trazado_1047530" data-name="Trazado 1047530" d="M368.562,304.956V306.6a2.392,2.392,0,0,1-2.392,2.392H369.3a2.392,2.392,0,0,0,2.392-2.392v-1.641Z" transform="translate(-363.522 -299.756)" fill="#f89580"/>
          </g>
        </g>
        <g id="Grupo_1202375" data-name="Grupo 1202375" transform="translate(4.055 32.104)">
          <path id="Trazado_1047531" data-name="Trazado 1047531" d="M40.582,273.094h0a2.329,2.329,0,0,1,0-3.294l4.343-4.343a2.329,2.329,0,0,1,3.294,0h0a2.329,2.329,0,0,1,0,3.294l-4.343,4.343A2.329,2.329,0,0,1,40.582,273.094Z" transform="translate(-39.9 -264.775)" fill="#ffd15b"/>
          <path id="Trazado_1047532" data-name="Trazado 1047532" d="M225.788,273.112h0a2.329,2.329,0,0,0,0-3.294l-4.343-4.343a2.329,2.329,0,0,0-3.294,0h0a2.329,2.329,0,0,0,0,3.294l4.343,4.343A2.329,2.329,0,0,0,225.788,273.112Z" transform="translate(-195.248 -264.791)" fill="#ffd15b"/>
          <path id="Trazado_1047533" data-name="Trazado 1047533" d="M225.788,273.112h0a2.329,2.329,0,0,0,0-3.294l-4.343-4.343a2.329,2.329,0,0,0-3.294,0h0a2.329,2.329,0,0,0,0,3.294l4.343,4.343A2.329,2.329,0,0,0,225.788,273.112Z" transform="translate(-195.248 -264.791)" fill="#ffd15b"/>
          <path id="Trazado_1047534" data-name="Trazado 1047534" d="M225.788,273.112h0a2.329,2.329,0,0,0,0-3.294l-4.343-4.343a2.329,2.329,0,0,0-3.294,0h0a2.329,2.329,0,0,0,0,3.294l4.343,4.343A2.329,2.329,0,0,0,225.788,273.112Z" transform="translate(-195.248 -264.791)" fill="#ffc344"/>
        </g>
        <path id="Trazado_1047535" data-name="Trazado 1047535" d="M94.755,187.419H86.491a6.455,6.455,0,0,1-6.455-6.455V166.245h21.173v14.719A6.455,6.455,0,0,1,94.755,187.419Z" transform="translate(-70.959 -146.471)" fill="#ffcebf"/>
        <path id="Trazado_1047536" data-name="Trazado 1047536" d="M179.089,166.245v14.719a6.455,6.455,0,0,1-6.455,6.455h3.131a6.455,6.455,0,0,0,6.455-6.455V166.245Z" transform="translate(-151.969 -146.471)" fill="#ffb09e"/>
        <path id="Trazado_1047537" data-name="Trazado 1047537" d="M48.723,224.526h1.059v-6.537H48.723a3.269,3.269,0,0,0-3.269,3.269h0A3.269,3.269,0,0,0,48.723,224.526Z" transform="translate(-40.704 -191.74)" fill="#ffb09e"/>
        <path id="Trazado_1047538" data-name="Trazado 1047538" d="M250.29,224.526h-1.059v-6.537h1.059a3.269,3.269,0,0,1,3.269,3.269h0A3.269,3.269,0,0,1,250.29,224.526Z" transform="translate(-218.98 -191.74)" fill="#ffb09e"/>
        <rect id="Rectángulo_417781" data-name="Rectángulo 417781" width="8.314" height="7.732" transform="translate(8.314 62.012) rotate(180)" fill="#ffb09e"/>
        <rect id="Rectángulo_417782" data-name="Rectángulo 417782" width="8.314" height="7.732" transform="translate(31.014 54.28)" fill="#ffb09e"/>
        <rect id="Rectángulo_417783" data-name="Rectángulo 417783" width="3.131" height="7.732" transform="translate(36.197 54.28)" fill="#f89580"/>
        <path id="Trazado_1047539" data-name="Trazado 1047539" d="M7.5,378v2.667h8.314v7.731h3.309l10.465-2.346,5.365,2.346h3.56v-7.731h8.314V378a6.1,6.1,0,0,0-6.1-6.1H13.6A6.1,6.1,0,0,0,7.5,378Z" transform="translate(-7.5 -326.382)" fill="#bd80e1"/>
        <g id="Grupo_1202376" data-name="Grupo 1202376" transform="translate(8.493 45.509)">
          <rect id="Rectángulo_417784" data-name="Rectángulo 417784" width="3.131" height="7.732" transform="translate(19.39 8.772)" fill="#af66da"/>
          <path id="Trazado_1047540" data-name="Trazado 1047540" d="M85.829,485.02l-10.465,2.346h3.131l8.4-1.882Z" transform="translate(-75.364 -470.863)" fill="#bd80e1"/>
          <path id="Trazado_1047541" data-name="Trazado 1047541" d="M265.665,377.994v2.667h-3.131v-2.667a6.259,6.259,0,0,0-4.894-6.1h1.921A6.1,6.1,0,0,1,265.665,377.994Z" transform="translate(-234.83 -371.89)" fill="#af66da"/>
        </g>
        <path id="Trazado_1047542" data-name="Trazado 1047542" d="M135.4,415.027h-5.365l-7.72-2.71v-9.1a.886.886,0,0,1,.886-.886h11.313a.886.886,0,0,1,.886.886Z" transform="translate(-107.949 -353.015)" fill="#f5f8f9"/>
        <path id="Trazado_1047543" data-name="Trazado 1047543" d="M197.913,402.334h-3.131a.886.886,0,0,1,.886.886v11.807H198.8V403.22A.886.886,0,0,0,197.913,402.334Z" transform="translate(-171.345 -353.015)" fill="#e8edf2"/>
        <path id="Trazado_1047544" data-name="Trazado 1047544" d="M100.382,452.4l.565-4.836a2.305,2.305,0,0,1,.846-1.453l1.334-1.058v2.858h6.787a.934.934,0,0,1,.934.934V452.4H100.382Z" transform="translate(-88.759 -390.393)" fill="#ffcebf"/>
        <path id="Trazado_1047545" data-name="Trazado 1047545" d="M155.595,468.823v3.557h-3.131v-3.557a.934.934,0,0,0-.934-.934h3.131A.934.934,0,0,1,155.595,468.823Z" transform="translate(-133.506 -410.368)" fill="#ffb09e"/>
        <rect id="Rectángulo_417785" data-name="Rectángulo 417785" width="7.433" height="4.562" transform="translate(15.947 40.947)" fill="#ffb09e"/>
        <rect id="Rectángulo_417786" data-name="Rectángulo 417786" width="3.131" height="4.562" transform="translate(20.25 40.947)" fill="#f89580"/>
        <path id="Trazado_1047546" data-name="Trazado 1047546" d="M70.793,114.435a2.769,2.769,0,0,0-2.769-2.769H62.581a5.211,5.211,0,0,0-5.211,5.211v3.245a5.021,5.021,0,0,0,1.564,3.641l1.273,1.209c5.552,0,10.587-6.475,10.587-6.475Z" transform="translate(-51.129 -98.722)" fill="#ffd15b"/>
        <path id="Trazado_1047547" data-name="Trazado 1047547" d="M172.844,111.666H167.4a2.769,2.769,0,0,0-2.769,2.769V118.5h0s5.035,6.475,10.587,6.475h0l1.273-1.208a5.021,5.021,0,0,0,1.564-3.641v-3.245A5.211,5.211,0,0,0,172.844,111.666Z" transform="translate(-144.968 -98.722)" fill="#ffd15b"/>
        <path id="Trazado_1047548" data-name="Trazado 1047548" d="M204,111.666h-3.755a5.211,5.211,0,0,1,5.211,5.211v3.245a5.021,5.021,0,0,1-1.564,3.641l-.618.587a8.616,8.616,0,0,0,3.1.622h0l1.273-1.208a5.021,5.021,0,0,0,1.564-3.641v-3.245A5.211,5.211,0,0,0,204,111.666Z" transform="translate(-176.128 -98.722)" fill="#ffc344"/>
        <path id="Trazado_1047549" data-name="Trazado 1047549" d="M359.033,358.233l-5.457,1.133a1.131,1.131,0,0,0-.9,1.108v5.976a6.169,6.169,0,0,0,3.02,5.3l3.338,1.982,3.338-1.982a6.169,6.169,0,0,0,3.02-5.3v-5.976a1.131,1.131,0,0,0-.9-1.108Z" transform="translate(-309.479 -314.433)" fill="#e8edf2"/>
        <path id="Trazado_1047550" data-name="Trazado 1047550" d="M399.83,360.645v5.976a6.169,6.169,0,0,1-3.02,5.3l-3.339,1.982-1.432-.85a9.413,9.413,0,0,0,1.554-14.628l5.335,1.108A1.132,1.132,0,0,1,399.83,360.645Z" transform="translate(-343.918 -314.606)" fill="#d9e7ec"/>
      </g>
      <g id="Grupo_1202382" data-name="Grupo 1202382" transform="translate(7.5 8.23)">
        <path id="Trazado_1047551" data-name="Trazado 1047551" d="M101.213,217.99v8.243a6.454,6.454,0,0,1-6.455,6.455H86.495a6.454,6.454,0,0,1-6.455-6.455V217.99" transform="translate(-70.962 -191.74)" fill="none" stroke="#000" stroke-linecap="round" stroke-linejoin="round" stroke-miterlimit="10" stroke-width="1.5"/>
        <path id="Trazado_1047552" data-name="Trazado 1047552" d="M48.723,224.526h1.059v-6.537H48.723a3.269,3.269,0,0,0-3.269,3.269h0A3.269,3.269,0,0,0,48.723,224.526Z" transform="translate(-40.704 -191.739)" fill="none" stroke="#000" stroke-linecap="round" stroke-linejoin="round" stroke-miterlimit="10" stroke-width="1.5"/>
        <path id="Trazado_1047553" data-name="Trazado 1047553" d="M250.29,224.526h-1.059v-6.537h1.059a3.269,3.269,0,0,1,3.269,3.269h0A3.269,3.269,0,0,1,250.29,224.526Z" transform="translate(-218.98 -191.739)" fill="none" stroke="#000" stroke-linecap="round" stroke-linejoin="round" stroke-miterlimit="10" stroke-width="1.5"/>
        <path id="Trazado_1047554" data-name="Trazado 1047554" d="M149.2,281.26a3.738,3.738,0,0,0,3.864,0" transform="translate(-131.465 -247.092)" fill="none" stroke="#000" stroke-linecap="round" stroke-linejoin="round" stroke-miterlimit="10" stroke-width="1.5"/>
        <path id="Trazado_1047555" data-name="Trazado 1047555" d="M15.814,449.714v-7.731H7.5v7.731" transform="translate(-7.5 -387.702)" fill="none" stroke="#000" stroke-linecap="round" stroke-linejoin="round" stroke-miterlimit="10" stroke-width="1.5"/>
        <path id="Trazado_1047556" data-name="Trazado 1047556" d="M255.328,449.714v-7.731h8.314v7.731" transform="translate(-224.314 -387.702)" fill="none" stroke="#000" stroke-linecap="round" stroke-linejoin="round" stroke-miterlimit="10" stroke-width="1.5"/>
        <path id="Trazado_1047557" data-name="Trazado 1047557" d="M211.869,402.334h.993a.886.886,0,0,1,.886.886v11.807" transform="translate(-186.294 -353.015)" fill="none" stroke="#000" stroke-linecap="round" stroke-linejoin="round" stroke-miterlimit="10" stroke-width="1.5"/>
        <path id="Trazado_1047558" data-name="Trazado 1047558" d="M122.317,410.538V403.22a.886.886,0,0,1,.886-.886h5.925" transform="translate(-107.949 -353.015)" fill="none" stroke="#000" stroke-linecap="round" stroke-linejoin="round" stroke-miterlimit="10" stroke-width="1.5"/>
        <path id="Trazado_1047559" data-name="Trazado 1047559" d="M100.382,452.4l.565-4.836a2.305,2.305,0,0,1,.846-1.453l1.334-1.058v2.858h6.787a.934.934,0,0,1,.934.934V452.4" transform="translate(-88.759 -390.392)" fill="none" stroke="#000" stroke-linecap="round" stroke-linejoin="round" stroke-miterlimit="10" stroke-width="1.5"/>
        <g id="Grupo_1202378" data-name="Grupo 1202378" transform="translate(13.549 30.657)">
          <path id="Trazado_1047560" data-name="Trazado 1047560" d="M115.768,253.206a2.363,2.363,0,0,0,2.443,0" transform="translate(-115.768 -253.206)" fill="none" stroke="#000" stroke-linecap="round" stroke-linejoin="round" stroke-miterlimit="10" stroke-width="1.5"/>
          <path id="Trazado_1047561" data-name="Trazado 1047561" d="M193.982,253.206a2.363,2.363,0,0,0,2.443,0" transform="translate(-184.194 -253.206)" fill="none" stroke="#000" stroke-linecap="round" stroke-linejoin="round" stroke-miterlimit="10" stroke-width="1.5"/>
        </g>
        <rect id="Rectángulo_417787" data-name="Rectángulo 417787" width="7.433" height="4.562" transform="translate(15.947 40.948)" fill="none" stroke="#000" stroke-linecap="round" stroke-linejoin="round" stroke-miterlimit="10" stroke-width="1.5"/>
        <path id="Trazado_1047562" data-name="Trazado 1047562" d="M38.514,388.394v-7.731h8.314V378a6.1,6.1,0,0,0-6.1-6.1H13.6A6.1,6.1,0,0,0,7.5,378v2.667h8.314v7.731" transform="translate(-7.5 -326.382)" fill="none" stroke="#000" stroke-linecap="round" stroke-linejoin="round" stroke-miterlimit="10" stroke-width="1.5"/>
        <g id="Grupo_1202380" data-name="Grupo 1202380" transform="translate(25.897 0)">
          <path id="Trazado_1047563" data-name="Trazado 1047563" d="M253.7,93.344A5.972,5.972,0,0,1,259.2,89.69" transform="translate(-248.787 -79.496)" fill="none" stroke="#000" stroke-linecap="round" stroke-linejoin="round" stroke-miterlimit="10" stroke-width="1.5"/>
          <path id="Trazado_1047564" data-name="Trazado 1047564" d="M297.77,142.81v8.463a6.627,6.627,0,0,1-6.626,6.628h-8.485a6.585,6.585,0,0,1-2.9-.667" transform="translate(-271.586 -125.968)" fill="none" stroke="#000" stroke-linecap="round" stroke-linejoin="round" stroke-miterlimit="10" stroke-width="1.5"/>
          <path id="Trazado_1047565" data-name="Trazado 1047565" d="M424.77,149.523h-1.087v-6.712h1.087a3.356,3.356,0,0,1,3.356,3.356h0A3.356,3.356,0,0,1,424.77,149.523Z" transform="translate(-397.498 -125.969)" fill="none" stroke="#000" stroke-linecap="round" stroke-linejoin="round" stroke-miterlimit="10" stroke-width="1.5"/>
          <path id="Trazado_1047566" data-name="Trazado 1047566" d="M320.977,207.772a3.838,3.838,0,0,0,3.967,0" transform="translate(-307.645 -182.801)" fill="none" stroke="#000" stroke-linecap="round" stroke-linejoin="round" stroke-miterlimit="10" stroke-width="1.5"/>
          <g id="Grupo_1202379" data-name="Grupo 1202379" transform="translate(8.536 21.367)">
            <path id="Trazado_1047567" data-name="Trazado 1047567" d="M282.651,179.317a2.426,2.426,0,0,1,2.508,0" transform="translate(-282.651 -178.968)" fill="none" stroke="#000" stroke-linecap="round" stroke-linejoin="round" stroke-miterlimit="10" stroke-width="1.5"/>
            <path id="Trazado_1047568" data-name="Trazado 1047568" d="M370.962,179.317a2.426,2.426,0,0,1,2.508,0" transform="translate(-359.911 -178.968)" fill="none" stroke="#000" stroke-linecap="round" stroke-linejoin="round" stroke-miterlimit="10" stroke-width="1.5"/>
          </g>
          <path id="Trazado_1047569" data-name="Trazado 1047569" d="M297.693,89.686s4.9,9.4,15.767,6.648" transform="translate(-287.275 -79.492)" fill="none" stroke="#000" stroke-linecap="round" stroke-linejoin="round" stroke-miterlimit="10" stroke-width="1.5"/>
          <path id="Trazado_1047570" data-name="Trazado 1047570" d="M214.44,21.175V18.783A10.553,10.553,0,0,1,224.992,8.23h9.525a10.553,10.553,0,0,1,10.552,10.553v18.28a3.1,3.1,0,0,1-3.1,3.1H222.055" transform="translate(-214.44 -8.23)" fill="none" stroke="#000" stroke-linecap="round" stroke-linejoin="round" stroke-miterlimit="10" stroke-width="1.5"/>
          <path id="Trazado_1047571" data-name="Trazado 1047571" d="M277.215,268.6h2.46v-5.2h8.311v5.2h5.039v1.641a2.391,2.391,0,0,1-2.391,2.391H277.11a2.363,2.363,0,0,1-.86-.16" transform="translate(-268.515 -231.467)" fill="none" stroke="#000" stroke-linecap="round" stroke-linejoin="round" stroke-miterlimit="10" stroke-width="1.5"/>
          <path id="Trazado_1047572" data-name="Trazado 1047572" d="M445.313,304.96h.632a6.775,6.775,0,0,1,6.775,6.775v18.1" transform="translate(-416.421 -267.827)" fill="none" stroke="#000" stroke-linecap="round" stroke-linejoin="round" stroke-miterlimit="10" stroke-width="1.5"/>
          <line id="Línea_1003" data-name="Línea 1003" x2="5.04" transform="translate(19.471 37.133)" fill="none" stroke="#000" stroke-linecap="round" stroke-linejoin="round" stroke-miterlimit="10" stroke-width="1.5"/>
        </g>
        <path id="Trazado_1047573" data-name="Trazado 1047573" d="M70.793,114.435a2.769,2.769,0,0,0-2.769-2.769H62.581a5.211,5.211,0,0,0-5.211,5.211v3.245a5.021,5.021,0,0,0,1.564,3.641l1.273,1.209c5.552,0,10.587-6.475,10.587-6.475Z" transform="translate(-51.129 -98.722)" fill="none" stroke="#000" stroke-linecap="round" stroke-linejoin="round" stroke-miterlimit="10" stroke-width="1.5"/>
        <path id="Trazado_1047574" data-name="Trazado 1047574" d="M172.844,111.666H167.4a2.769,2.769,0,0,0-2.769,2.769V118.5h0s5.035,6.475,10.587,6.475h0l1.273-1.208a5.021,5.021,0,0,0,1.564-3.641v-3.245A5.211,5.211,0,0,0,172.844,111.666Z" transform="translate(-144.968 -98.722)" fill="none" stroke="#000" stroke-linecap="round" stroke-linejoin="round" stroke-miterlimit="10" stroke-width="1.5"/>
        <g id="Grupo_1202381" data-name="Grupo 1202381" transform="translate(4.054 32.787)">
          <path id="Trazado_1047575" data-name="Trazado 1047575" d="M46.094,275.664l-2.22,2.22a2.329,2.329,0,0,1-3.294-3.294l4.341-4.34" transform="translate(-39.897 -270.247)" fill="none" stroke="#000" stroke-linecap="round" stroke-linejoin="round" stroke-miterlimit="10" stroke-width="1.5"/>
          <path id="Trazado_1047576" data-name="Trazado 1047576" d="M241.033,270.23h0l4.344,4.344a2.329,2.329,0,1,1-3.294,3.294l-2.224-2.224" transform="translate(-214.836 -270.23)" fill="none" stroke="#000" stroke-linecap="round" stroke-linejoin="round" stroke-miterlimit="10" stroke-width="1.5"/>
        </g>
        <path id="Trazado_1047577" data-name="Trazado 1047577" d="M359.033,358.233l-5.457,1.133a1.131,1.131,0,0,0-.9,1.108v5.976a6.169,6.169,0,0,0,3.02,5.3l3.338,1.982,3.338-1.982a6.169,6.169,0,0,0,3.02-5.3v-5.976a1.131,1.131,0,0,0-.9-1.108Z" transform="translate(-309.479 -314.433)" fill="none" stroke="#000" stroke-linecap="round" stroke-linejoin="round" stroke-miterlimit="10" stroke-width="1.5"/>
        <line id="Línea_1004" data-name="Línea 1004" y1="4.692" transform="translate(52.892 57.321)" fill="none" stroke="#000" stroke-linecap="round" stroke-linejoin="round" stroke-miterlimit="10" stroke-width="1.5"/>
        <path id="Trazado_1047578" data-name="Trazado 1047578" d="M387.8,407.518l1.32,1.32,3.17-2.519" transform="translate(-340.211 -356.502)" fill="none" stroke="#000" stroke-linecap="round" stroke-linejoin="round" stroke-miterlimit="10" stroke-width="1.5"/>
        <line id="Línea_1005" data-name="Línea 1005" transform="translate(23.345 53.091)" fill="none" stroke="#000" stroke-linecap="round" stroke-linejoin="round" stroke-miterlimit="10" stroke-width="1.5"/>
      </g>
    </g>
  </g>
</svg>
