<svg xmlns="http://www.w3.org/2000/svg" width="400" height="108.445" viewBox="0 0 400 108.445">
  <g id="Grupo_1202448" data-name="Grupo 1202448" transform="translate(-1019.796 -3845.555)">
    <g id="Grupo_1202236" data-name="Grupo 1202236" transform="translate(-209.796 3560.251)">
      <rect id="Rect치ngulo_417636" data-name="Rect치ngulo 417636" width="400" height="82" rx="3" transform="translate(1229.592 300.749)" fill="#453179"/>
      <rect id="Rect치ngulo_417637" data-name="Rect치ngulo 417637" width="320" height="104" rx="3" transform="translate(1269.592 289.749)" fill="#6ae2f6"/>
    </g>
    <g id="school_17043114" transform="translate(1160.794 3840.638)">
      <g id="Grupo_1202446" data-name="Grupo 1202446" transform="translate(6.081 6.071)">
        <path id="Trazado_1047821" data-name="Trazado 1047821" d="M126.614,302.6v43.117H28.244V302.6Z" transform="translate(-24.304 -239.473)" fill="#b2e26d"/>
        <path id="Trazado_1047822" data-name="Trazado 1047822" d="M63.125,213.405H99.911l16.338,19.263H10l16.338-19.263Z" transform="translate(-10 -169.536)" fill="#70d6f9"/>
        <g id="Grupo_1202444" data-name="Grupo 1202444" transform="translate(9.963)">
          <path id="Trazado_1047823" data-name="Trazado 1047823" d="M269,10.267c18.273,0,18.911,15.61,18.911,15.61s3.708,1.286,3.708,7.162-3.341,7.438-3.341,7.438a4.519,4.519,0,0,1-3.214,4.959c-3.765,1.1-10.995,0-10.995,0H263.932s-7.23,1.1-10.995,0a4.519,4.519,0,0,1-3.214-4.959s-3.341-1.561-3.341-7.438,3.708-7.162,3.708-7.162.638-15.61,18.911-15.61Z" transform="translate(-205.298 -10.266)" fill="#754e34"/>
          <g id="Grupo_1202443" data-name="Grupo 1202443">
            <g id="Grupo_1202439" data-name="Grupo 1202439">
              <path id="Trazado_1047824" data-name="Trazado 1047824" d="M93,82.951S89.952,76.779,77.5,76.059c-13.718-.793-18.313,6.892-18.313,6.892V87.5l-.01-.015,0,0v4.123A2.809,2.809,0,0,0,62,94.421l2.54-.012h23.1l2.539.012A2.809,2.809,0,0,0,93,91.612l0-8.661Z" transform="translate(-58.52 -61.805)" fill="#3a70bf"/>
              <path id="Trazado_1047825" data-name="Trazado 1047825" d="M90.274,16.783a18.7,18.7,0,0,0-28.374,0c-3.03,6.336-2.714,14.626-2.714,14.626h0c.751-1.171,33.046-1.171,33.8,0h0s.316-8.29-2.714-14.626Z" transform="translate(-58.519 -10.264)" fill="#5190db"/>
              <path id="Trazado_1047826" data-name="Trazado 1047826" d="M61.836,105.261h0a19.284,19.284,0,0,1-.352-5.948,4.226,4.226,0,1,0-.452,8.234,5.291,5.291,0,0,1,.806-2.286Z" transform="translate(-56.136 -79.961)" fill="#eaa694"/>
              <path id="Trazado_1047827" data-name="Trazado 1047827" d="M192.431,105.261h0a19.285,19.285,0,0,0,.352-5.948,4.226,4.226,0,1,1,.452,8.234,5.291,5.291,0,0,0-.806-2.286Z" transform="translate(-162.997 -79.961)" fill="#eaa694"/>
              <path id="Trazado_1047828" data-name="Trazado 1047828" d="M103.244,85.238a19.284,19.284,0,0,0,.352-5.948h0s-3.359-5.671-12.22-5.671-12.22,5.671-12.22,5.671h0a19.283,19.283,0,0,0,.352,5.948h0A5.173,5.173,0,0,0,78.676,88c0,4.28,5.686,7.75,12.7,7.75s12.7-3.47,12.7-7.75a5.173,5.173,0,0,0-.833-2.761Z" transform="translate(-73.808 -59.937)" fill="#f9d0b4"/>
              <g id="Grupo_1202437" data-name="Grupo 1202437" transform="translate(4.868 26.306)">
                <path id="Trazado_1047829" data-name="Trazado 1047829" d="M81.291,132.078a5.906,5.906,0,0,0-2.454.532,4.82,4.82,0,0,0-.162,1.224c0,3.209,3.2,5.963,7.752,7.14a5.93,5.93,0,0,0-5.136-8.9Z" transform="translate(-78.676 -132.078)" fill="#fa8fa6"/>
                <path id="Trazado_1047830" data-name="Trazado 1047830" d="M165.259,133.833a4.821,4.821,0,0,0-.162-1.224,5.93,5.93,0,0,0-7.59,8.363c4.556-1.177,7.752-3.931,7.752-7.14Z" transform="translate(-139.86 -132.078)" fill="#fa8fa6"/>
              </g>
              <path id="Trazado_1047831" data-name="Trazado 1047831" d="M102.342,73.619a15.546,15.546,0,0,0-9.679,3.02c.015.018,2.762,3.438,5.082,3.377a11.6,11.6,0,0,0,4.979-1.816s-.8,2.122,2.938,1.571a10.354,10.354,0,0,0,6.013-3.386,15.692,15.692,0,0,0-9.334-2.766Z" transform="translate(-84.775 -59.937)" fill="#754e34"/>
              <g id="Grupo_1202438" data-name="Grupo 1202438" transform="translate(5.546 0)">
                <path id="Trazado_1047832" data-name="Trazado 1047832" d="M122.582,50.735h-3.575a2.809,2.809,0,0,0-2.809,2.809v2.705a18.753,18.753,0,0,1,9.193,0V53.543a2.809,2.809,0,0,0-2.809-2.809Z" transform="translate(-108.774 -41.995)" fill="#3a70bf"/>
                <path id="Trazado_1047833" data-name="Trazado 1047833" d="M91.308,10.433c-5.543,3.348-10.535,8.895-9.3,17.622l.119.862a12,12,0,0,1,1.944-1.883c-.513-7.285,2.831-11.686,9.769-15.555,6.263,3.383,10.468,8.142,9.773,15.559a11.921,11.921,0,0,1,1.977,1.927l.085-.937a17.842,17.842,0,0,0-1.255-9.33c-1.756-3.907-5.661-6.783-8.075-8.269a19.107,19.107,0,0,0-5.038,0Z" transform="translate(-81.819 -10.264)" fill="#3a70bf"/>
              </g>
            </g>
            <g id="Grupo_1202442" data-name="Grupo 1202442" transform="translate(42.434 2.268)">
              <path id="Trazado_1047834" data-name="Trazado 1047834" d="M275.477,105.261h0a19.284,19.284,0,0,1-.352-5.948,4.226,4.226,0,1,0-.452,8.234,5.291,5.291,0,0,1,.806-2.286Z" transform="translate(-266.074 -82.228)" fill="#eaa694"/>
              <path id="Trazado_1047835" data-name="Trazado 1047835" d="M406.073,105.261h0a19.285,19.285,0,0,0,.352-5.948,4.226,4.226,0,1,1,.452,8.234,5.291,5.291,0,0,0-.806-2.286Z" transform="translate(-372.937 -82.228)" fill="#eaa694"/>
              <circle id="Elipse_12911" data-name="Elipse 12911" cx="3.354" cy="3.354" r="3.354" transform="translate(5.216 5.216)" fill="#fb657e"/>
              <g id="Grupo_1202440" data-name="Grupo 1202440">
                <path id="Trazado_1047836" data-name="Trazado 1047836" d="M306.324,43.43a3.654,3.654,0,0,0-1.58.361,3.678,3.678,0,0,1-.8,1.095,3.34,3.34,0,0,1,0,4.439,3.677,3.677,0,0,1,.8,1.095,3.674,3.674,0,1,0,1.58-6.99Z" transform="translate(-292.859 -38.535)" fill="#f6ca54"/>
                <path id="Trazado_1047837" data-name="Trazado 1047837" d="M276.462,27.117a3.344,3.344,0,0,1,5.024,0,3.675,3.675,0,1,0-5.024,0Z" transform="translate(-270.403 -20.764)" fill="#f6ca54"/>
                <path id="Trazado_1047838" data-name="Trazado 1047838" d="M257.848,47.105a3.337,3.337,0,0,1,.844-2.22,3.678,3.678,0,0,1-.8-1.095,3.675,3.675,0,1,0,0,6.629,3.678,3.678,0,0,1,.8-1.095,3.337,3.337,0,0,1-.844-2.22Z" transform="translate(-252.632 -38.535)" fill="#f6ca54"/>
              </g>
              <path id="Trazado_1047839" data-name="Trazado 1047839" d="M316.886,86.757a18.387,18.387,0,0,0-.113-8.408,3.011,3.011,0,0,1-2.568-2.078s0,2.449-3.551,2.031a12.135,12.135,0,0,1-5.02-1.418c-1.55,1.858-4.828,2.189-7.6-1.009a3.657,3.657,0,0,1-2.4-.265c-.008-.018-.019-.034-.028-.052a3.7,3.7,0,0,1-2.811,5.284,19.286,19.286,0,0,0,.355,5.916h0a5.173,5.173,0,0,0-.833,2.761c0,4.28,5.686,7.75,12.7,7.75s12.7-3.47,12.7-7.75a5.173,5.173,0,0,0-.833-2.761h0Z" transform="translate(-283.747 -63.724)" fill="#f9d0b4"/>
              <g id="Grupo_1202441" data-name="Grupo 1202441" transform="translate(8.57 24.039)">
                <path id="Trazado_1047840" data-name="Trazado 1047840" d="M294.933,132.078a5.906,5.906,0,0,0-2.454.532,4.82,4.82,0,0,0-.162,1.224c0,3.209,3.2,5.963,7.752,7.14a5.93,5.93,0,0,0-5.136-8.9Z" transform="translate(-292.318 -132.078)" fill="#fa8fa6"/>
                <path id="Trazado_1047841" data-name="Trazado 1047841" d="M378.9,133.833a4.821,4.821,0,0,0-.162-1.224,5.93,5.93,0,0,0-7.59,8.363c4.556-1.177,7.752-3.931,7.752-7.14Z" transform="translate(-353.502 -132.078)" fill="#fa8fa6"/>
              </g>
              <path id="Trazado_1047842" data-name="Trazado 1047842" d="M281.485,70.716a3.344,3.344,0,0,1-5.024,0,3.67,3.67,0,0,0,1.378,6.173,4.066,4.066,0,0,1,1.613.125l0,.021a3.669,3.669,0,0,0,2.035-6.319Z" transform="translate(-270.403 -59.928)" fill="#f6ca54"/>
            </g>
          </g>
        </g>
        <path id="Trazado_1047843" data-name="Trazado 1047843" d="M181.056,233.136v41.63H124.078v-41.63L152.567,212.1l28.874,17.854Z" transform="translate(-99.442 -168.517)" fill="#fb657e"/>
        <path id="Trazado_1047844" data-name="Trazado 1047844" d="M165.394,221.488,137.3,204.521,109.21,221.488a2.591,2.591,0,0,1-3.558-.878l-.67-1.109a2.591,2.591,0,0,1,.879-3.558l29.767-17.978a3.239,3.239,0,0,1,3.349,0l29.767,17.978a2.591,2.591,0,0,1,.879,3.558l-.67,1.109a2.591,2.591,0,0,1-3.558.878Z" transform="translate(-84.177 -157.064)" fill="#5190db"/>
        <path id="Trazado_1047845" data-name="Trazado 1047845" d="M230.726,427.417h10.916v16.164H230.726Z" transform="translate(-183.059 -337.331)" fill="#f6ca54"/>
        <circle id="Elipse_12912" data-name="Elipse 12912" cx="6.87" cy="6.87" r="6.87" transform="translate(46.255 56.576)" fill="#f6ca54"/>
        <path id="Trazado_1047846" data-name="Trazado 1047846" d="M144.116,367.171h6.739v6.739h-6.739Z" transform="translate(-115.153 -290.095)" fill="#d6e0ea"/>
        <path id="Trazado_1047847" data-name="Trazado 1047847" d="M175.321,367.171h6.739v6.739h-6.739Z" transform="translate(-139.619 -290.095)" fill="#eef4fc"/>
        <path id="Trazado_1047848" data-name="Trazado 1047848" d="M206.527,367.171h6.739v6.739h-6.739Z" transform="translate(-164.086 -290.095)" fill="#d6e0ea"/>
        <path id="Trazado_1047849" data-name="Trazado 1047849" d="M0,0H6.739V6.739H0Z" transform="translate(77.287 83.815) rotate(180)" fill="#d6e0ea"/>
        <g id="Grupo_1202445" data-name="Grupo 1202445" transform="translate(63.809 77.076)">
          <path id="Trazado_1047850" data-name="Trazado 1047850" d="M0,0H6.739V6.739H0Z" transform="translate(31.129 6.739) rotate(180)" fill="#eef4fc"/>
          <path id="Trazado_1047851" data-name="Trazado 1047851" d="M0,0H6.739V6.739H0Z" transform="translate(6.739 6.739) rotate(180)" fill="#eef4fc"/>
          <path id="Trazado_1047852" data-name="Trazado 1047852" d="M0,0H6.739V6.739H0Z" transform="translate(13.478 21.541) rotate(180)" fill="#eef4fc"/>
        </g>
        <path id="Trazado_1047853" data-name="Trazado 1047853" d="M0,0H6.739V6.739H0Z" transform="translate(94.938 98.617) rotate(180)" fill="#d6e0ea"/>
        <path id="Trazado_1047854" data-name="Trazado 1047854" d="M62.381,367.171H69.12v6.739H62.381Z" transform="translate(-51.069 -290.095)" fill="#eef4fc"/>
        <path id="Trazado_1047855" data-name="Trazado 1047855" d="M62.381,435.714H69.12v6.739H62.381Z" transform="translate(-51.069 -343.836)" fill="#d6e0ea"/>
        <path id="Trazado_1047856" data-name="Trazado 1047856" d="M0,0H6.739V6.739H0Z" transform="translate(70.548 98.617) rotate(180)" fill="#d6e0ea"/>
        <path id="Trazado_1047857" data-name="Trazado 1047857" d="M144.116,435.714h6.739v6.739h-6.739Z" transform="translate(-115.153 -343.836)" fill="#eef4fc"/>
        <path id="Trazado_1047858" data-name="Trazado 1047858" d="M175.321,435.714h6.739v6.739h-6.739Z" transform="translate(-139.619 -343.836)" fill="#d6e0ea"/>
        <path id="Trazado_1047859" data-name="Trazado 1047859" d="M0,0H6.739V6.739H0Z" transform="translate(63.809 83.815) rotate(180)" fill="#d6e0ea"/>
      </g>
      <g id="Grupo_1202447" data-name="Grupo 1202447" transform="translate(5.002 4.916)">
        <path id="Trazado_1047860" data-name="Trazado 1047860" d="M235.237,275.015a7.959,7.959,0,0,0-7.95-7.95c-10.547.437-10.544,15.465,0,15.9A7.959,7.959,0,0,0,235.237,275.015Zm-7.95,5.79a5.79,5.79,0,1,1,5.79-5.79A5.8,5.8,0,0,1,227.287,280.805Z" transform="translate(-173.083 -210.452)" fill="#00183f"/>
        <path id="Trazado_1047861" data-name="Trazado 1047861" d="M244.047,282.843a1.08,1.08,0,0,0-1.08,1.08v2.7l-1.493.521a1.08,1.08,0,0,0,.712,2.039l2.217-.774a1.08,1.08,0,0,0,.724-1.019v-3.463A1.08,1.08,0,0,0,244.047,282.843Z" transform="translate(-189.842 -222.824)" fill="#00183f"/>
        <path id="Trazado_1047862" data-name="Trazado 1047862" d="M160.414,361.99c-3.361,0-10.118,0-13.478,0H140.2a1.08,1.08,0,0,0-1.08,1.08v6.739a1.08,1.08,0,0,0,1.08,1.08c3.361,0,10.118,0,13.478,0h6.739a1.08,1.08,0,0,0,1.08-1.08v-6.739A1.08,1.08,0,0,0,160.414,361.99Zm-19.137,2.16h4.58v4.58h-4.58Zm6.739,0h4.579v4.58h-4.579Zm11.318,4.58h-4.58v-4.58h4.58Z" transform="translate(-110.154 -284.878)" fill="#0b0a0a"/>
        <path id="Trazado_1047863" data-name="Trazado 1047863" d="M290.567,361.99c-3.361,0-10.118,0-13.478,0H270.35a1.08,1.08,0,0,0-1.08,1.08v6.739a1.08,1.08,0,0,0,1.08,1.08c3.361,0,10.118,0,13.478,0h6.739a1.08,1.08,0,0,0,1.08-1.08v-6.739A1.08,1.08,0,0,0,290.567,361.99Zm-19.137,2.16h4.58v4.58h-4.58Zm6.739,0h4.579v4.58h-4.579Zm11.318,4.58h-4.58v-4.58h4.58Z" transform="translate(-212.2 -284.878)" fill="#0b0a0a"/>
        <path id="Trazado_1047864" data-name="Trazado 1047864" d="M414.495,370.89h6.739a1.08,1.08,0,0,0,1.08-1.08v-6.739a1.08,1.08,0,0,0-1.08-1.08h-6.739a1.08,1.08,0,0,0-1.08,1.08v6.739A1.08,1.08,0,0,0,414.495,370.89Zm1.08-6.739h4.58v4.58h-4.58Z" transform="translate(-325.216 -284.879)" fill="#0b0a0a"/>
        <path id="Trazado_1047865" data-name="Trazado 1047865" d="M315.034,430.534c-3.359,0-10.119,0-13.478,0a1.08,1.08,0,0,0-1.08,1.08v6.739a1.08,1.08,0,0,0,1.08,1.08h13.478a1.08,1.08,0,0,0,1.08-1.08v-6.739A1.08,1.08,0,0,0,315.034,430.534Zm-12.4,2.16h4.579v4.579h-4.579Zm11.318,4.579h-4.58v-4.579h4.58Z" transform="translate(-236.667 -338.62)" fill="#0b0a0a"/>
        <path id="Trazado_1047866" data-name="Trazado 1047866" d="M414.495,439.433h6.739a1.08,1.08,0,0,0,1.08-1.08v-6.739a1.08,1.08,0,0,0-1.08-1.08h-6.739a1.08,1.08,0,0,0-1.08,1.08v6.739A1.08,1.08,0,0,0,414.495,439.433Zm1.08-6.739h4.58v4.579h-4.58Z" transform="translate(-325.216 -338.621)" fill="#0b0a0a"/>
        <path id="Trazado_1047867" data-name="Trazado 1047867" d="M65.2,361.991H58.462a1.08,1.08,0,0,0-1.08,1.08v6.739a1.08,1.08,0,0,0,1.08,1.08H65.2a1.08,1.08,0,0,0,1.08-1.08v-6.739A1.08,1.08,0,0,0,65.2,361.991Zm-1.08,6.739h-4.58v-4.58h4.58Z" transform="translate(-46.071 -284.879)" fill="#0b0a0a"/>
        <path id="Trazado_1047868" data-name="Trazado 1047868" d="M65.2,430.535H58.462a1.08,1.08,0,0,0-1.08,1.08v6.739a1.08,1.08,0,0,0,1.08,1.08H65.2a1.08,1.08,0,0,0,1.08-1.08v-6.739A1.08,1.08,0,0,0,65.2,430.535Zm-1.08,6.739h-4.58v-4.579h4.58Z" transform="translate(-46.071 -338.621)" fill="#0b0a0a"/>
        <path id="Trazado_1047869" data-name="Trazado 1047869" d="M153.675,430.534c-3.359,0-10.119,0-13.478,0a1.08,1.08,0,0,0-1.08,1.08v6.739a1.08,1.08,0,0,0,1.08,1.08h13.478a1.08,1.08,0,0,0,1.08-1.08v-6.739A1.08,1.08,0,0,0,153.675,430.534Zm-12.4,2.16h4.58v4.579h-4.58Zm11.318,4.579h-4.579v-4.579h4.579Z" transform="translate(-110.154 -338.62)" fill="#0b0a0a"/>
        <path id="Trazado_1047870" data-name="Trazado 1047870" d="M51.818,32.326v3.833a3.889,3.889,0,0,0,3.888,3.888c.016,0,3.377-.017,3.4-.016,5.076,4.243,16.34,4.242,21.414,0,.021,0,3.377.017,3.4.016A3.907,3.907,0,0,0,87.8,36.159a1.08,1.08,0,0,0-2.16,0A1.728,1.728,0,0,1,83.9,37.888l-1.381-.006a6.524,6.524,0,0,0,1.031-2.819,5.3,5.3,0,1,0-1.044-10.552,11.833,11.833,0,0,0-.8-.924A16.162,16.162,0,0,0,74.644,8.11a17.848,17.848,0,0,1,8.43,5.339A29.893,29.893,0,0,1,85.417,22.7a1.08,1.08,0,0,0,2.148-.224,29.486,29.486,0,0,0-2.71-10.254c-7.427-9.21-22.705-9.173-30.093,0-2.912,5.713-2.969,13.411-2.942,15a5.338,5.338,0,0,0,0,5.11Zm2.118-4.412a3.126,3.126,0,0,1,2.5-1.283,20.871,20.871,0,0,0,.359,4.844,6.452,6.452,0,0,0-.572,1.432,3.15,3.15,0,0,1-2.289-4.994ZM64.281,40.252c-2.9-.931-6.361-3.02-6.062-6.274A4.866,4.866,0,0,1,64.281,40.252Zm-8.567-2.364a1.737,1.737,0,0,1-1.737-1.729s0-1.7,0-1.7a5.361,5.361,0,0,0,2.087.6,6.524,6.524,0,0,0,1.031,2.819l-1.381.006Zm10.669,2.888a7.038,7.038,0,0,0-7.366-9.161,19.6,19.6,0,0,1-.379-5.54,9.6,9.6,0,0,1,1.378-1.524c3.344,3.464,5.507,3.636,9.4,1.741,1.2,1.817,5.126.977,7.074-.079a1.08,1.08,0,0,0-.986-1.921,8.147,8.147,0,0,1-2.533.827c-1.266.187-1.686,0-1.772-.057a1.084,1.084,0,0,0-1.6-1.346,10.287,10.287,0,0,1-4.412,1.637c-1.042.018-2.444-1.123-3.429-2.109,5.571-3.453,14.709-2.808,18.959,2.472.09.111.194.254.264.353.011.123.02.246.028.369.025.407.036.814.032,1.22a21.139,21.139,0,0,1-.437,3.958,7.039,7.039,0,0,0-7.366,9.161,19.289,19.289,0,0,1-6.85,0Zm6.942-21.517a20.427,20.427,0,0,0-7.033,0V17.9a1.731,1.731,0,0,1,1.729-1.729H71.6A1.731,1.731,0,0,1,73.325,17.9ZM83.2,26.631a3.143,3.143,0,0,1,.189,6.276,6.45,6.45,0,0,0-.572-1.432,20.867,20.867,0,0,0,.359-4.844H83.2Zm-1.788,8.074c-.342,2.916-3.328,4.64-6.079,5.546A4.866,4.866,0,0,1,81.4,33.978a3.27,3.27,0,0,1,.017.728Zm-3-19.034a15.158,15.158,0,0,1,1.217,6.144,15.338,15.338,0,0,0-4.152-2.027V17.9A3.893,3.893,0,0,0,71.6,14.013H68.021A3.893,3.893,0,0,0,64.132,17.9v1.887a15.338,15.338,0,0,0-4.152,2.027c-.188-7.632,5.208-11.681,9.829-14.247,1.575.845,6.7,3.849,8.61,8.1ZM56.544,13.447A17.672,17.672,0,0,1,64.984,8.1a16.166,16.166,0,0,0-7.078,15.486,11.832,11.832,0,0,0-.8.924,5.337,5.337,0,0,0-3.085.553,32.477,32.477,0,0,1,2.52-11.616Z" transform="translate(-41.198 -5.237)" fill="#0b0a0a"/>
        <path id="Trazado_1047871" data-name="Trazado 1047871" d="M244.76,22.439a1.08,1.08,0,0,0-1.516.185,9.782,9.782,0,0,0-1.86,6.181c0,4.907,2.174,7.162,3.3,8,.165,4.818,3.894,6.029,8.882,5.963a49.325,49.325,0,0,0,6.359-.466,21.926,21.926,0,0,0,10.308,0,49.3,49.3,0,0,0,6.36.466c4.977.066,8.718-1.141,8.882-5.963,4.423-3.1,4.544-13.2-.463-15.864-1.853-14.276-16.061-18.263-27.6-14.913a1.08,1.08,0,0,0,.645,2.061,23.572,23.572,0,0,1,7.026-.979c10.771-.254,17.135,6.472,17.832,14.574a1.062,1.062,0,0,0,.713.971c.122.046,2.995,1.182,2.995,6.147.067,2.6-.964,5.476-2.718,6.459a1.089,1.089,0,0,0-.613,1.124c.4,4.52-4.689,4.322-8.726,4.163,2.43-1.478,3.978-3.434,4.261-5.81a5.3,5.3,0,0,0-.6-10.585,14.627,14.627,0,0,0-.347-1.528,1.08,1.08,0,0,0-.911-.775,1.916,1.916,0,0,1-1.652-1.283,1.077,1.077,0,0,0-2.124.264c-.122.924-1.158,1.109-2.344.971a11.713,11.713,0,0,1-4.538-1.238,1.08,1.08,0,0,0-1.455.223c-.665.828-2.592,1.746-4.855-.022a4.76,4.76,0,0,0-2.863-8.649,4.754,4.754,0,1,0-9.5,0,4.753,4.753,0,1,0,0,9.5,4.73,4.73,0,0,0,1.256,3.364,5.311,5.311,0,0,0,2.452,9.755c.278,2.371,1.83,4.334,4.26,5.811-4.046.159-9.117.355-8.727-4.156a1.062,1.062,0,0,0-.6-1.125c-.112-.056-2.732-1.429-2.732-6.466a7.7,7.7,0,0,1,1.4-4.85,1.08,1.08,0,0,0-.185-1.516ZM255.8,38.051c-1.446-1.118-2.523-2.646-2.307-4.393a4.866,4.866,0,0,1,6.062,6.274,12.468,12.468,0,0,1-3.755-1.881ZM253.734,18.7a2.276,2.276,0,0,1-3.052-.321h0a2.272,2.272,0,1,1,3.4,0h0A2.293,2.293,0,0,1,253.734,18.7ZM270.316,38.27a4.875,4.875,0,0,1,6.357-4.612c.3,3.256-3.16,5.341-6.062,6.274a4.852,4.852,0,0,1-.294-1.662Zm11.239-8.5a3.166,3.166,0,0,1-2.888,2.818,6.459,6.459,0,0,0-.571-1.43,20.8,20.8,0,0,0,.36-4.845,3.163,3.163,0,0,1,3.1,3.456ZM257.7,21.606c2.406,2.508,5.826,3.158,8.193,1.169a16.179,16.179,0,0,0,4.7,1.175,4.473,4.473,0,0,0,3.814-.966,4.014,4.014,0,0,0,1.553.861,17.97,17.97,0,0,1-.086,7.451,7.039,7.039,0,0,0-7.366,9.161,19.29,19.29,0,0,1-6.85,0,7.039,7.039,0,0,0-7.366-9.161,20.061,20.061,0,0,1-.415-5.016,4.78,4.78,0,0,0,3.26-4.656,5.336,5.336,0,0,0,.559-.017Zm-1.231-7.2a2.593,2.593,0,1,1,0,4.923c-.066-.105-.131-.211-.2-.312a4.443,4.443,0,0,0,0-4.3c.073-.1.138-.209.205-.314ZM252.384,9.38a2.606,2.606,0,0,1,2.333,3.724,4.443,4.443,0,0,0-4.664,0,2.6,2.6,0,0,1,2.331-3.723ZM248.3,19.332a2.594,2.594,0,1,1,0-4.925c.067.106.132.212.205.314a4.443,4.443,0,0,0,0,4.3c-.073.1-.138.209-.205.314Zm1.486,2.432a2.5,2.5,0,0,1,.263-1.128,4.442,4.442,0,0,0,4.664,0,2.6,2.6,0,0,1-1.768,3.657,5.121,5.121,0,0,0-1.556-.133,2.6,2.6,0,0,1-1.6-2.4ZM248.6,29.453a3.147,3.147,0,0,1,2.578-3.09,4.7,4.7,0,0,0,.533.107,20.811,20.811,0,0,0,.364,4.684,6.456,6.456,0,0,0-.572,1.433,3.149,3.149,0,0,1-2.9-3.135Z" transform="translate(-190.336 -4.916)" fill="#0b0a0a"/>
        <path id="Trazado_1047872" data-name="Trazado 1047872" d="M113.155,215.391,96.816,196.128a1.08,1.08,0,0,0-.824-.381H75.036a1.08,1.08,0,1,0,0,2.16H95.493L110,215.01H92.853a3.688,3.688,0,0,0-1.647-4.1L66.355,195.9h0l-4.915-2.969a4.309,4.309,0,0,0-4.466,0l-4.658,2.813H22.42a1.08,1.08,0,0,0-.824.381L5.258,215.391a1.08,1.08,0,0,0,.824,1.778h2.86v42.037a1.08,1.08,0,0,0,1.08,1.08h98.37a1.08,1.08,0,0,0,1.08-1.08V217.169h2.86a1.086,1.086,0,0,0,.824-1.778ZM58.09,194.782a2.152,2.152,0,0,1,2.233,0l4.915,2.969h0L90.09,212.76a1.513,1.513,0,0,1,.512,2.075c-.158.281-.516.84-.67,1.109a1.516,1.516,0,0,1-1.843.625c-.183-.141-28.134-16.91-28.325-17.079a1.081,1.081,0,0,0-1.117,0L30.555,216.458a1.529,1.529,0,0,1-2.075-.513c-.2-.312-.483-.808-.67-1.109a1.513,1.513,0,0,1,.512-2.075L58.09,194.782ZM29.637,258.127H11.1V217.169H21.488a1.08,1.08,0,0,0,0-2.16H8.413l14.506-17.1H48.74L27.207,210.911c-.1.07-.209.134-.307.208a3.671,3.671,0,0,0-.937,4.833l.42.7a3.8,3.8,0,0,0,3.255,2.186v39.294Zm25.191,0v-14h8.757v14Zm52.484,0H88.775V222.218a1.08,1.08,0,1,0-2.16,0v35.909H65.744V243.043a1.08,1.08,0,0,0-1.08-1.08H53.748a1.08,1.08,0,0,0-1.08,1.08v15.084H31.8v-39.9l27.409-16.554,27.534,16.63a3.8,3.8,0,0,0,.849.373,3.684,3.684,0,0,0,4.123-1.509h15.6v40.957Z" transform="translate(-5.002 -151.841)" fill="#0b0a0a"/>
      </g>
    </g>
  </g>
</svg>
