<svg xmlns="http://www.w3.org/2000/svg" xmlns:xlink="http://www.w3.org/1999/xlink" width="118" height="118" viewBox="0 0 118 118">
  <defs>
    <filter id="Trazado_982547" x="0" y="0" width="118" height="118" filterUnits="userSpaceOnUse">
      <feOffset dy="3" input="SourceAlpha"/>
      <feGaussianBlur stdDeviation="3" result="blur"/>
      <feFlood flood-opacity="0.161"/>
      <feComposite operator="in" in2="blur"/>
      <feComposite in="SourceGraphic"/>
    </filter>
    <clipPath id="clip-path">
      <path id="path1536" d="M0-682.665H70.763V-611.9H0Z" transform="translate(0 682.665)"/>
    </clipPath>
  </defs>
  <g id="Grupo_1202451" data-name="Grupo 1202451" transform="translate(-1161.796 -4029.842)">
    <g id="Grupo_1202237" data-name="Grupo 1202237" transform="translate(1170.796 4035.842)">
      <g id="Grupo_1201680" data-name="Grupo 1201680">
        <g id="Grupo_1201330" data-name="Grupo 1201330">
          <g id="Grupo_1172010" data-name="Grupo 1172010">
            <g id="Grupo_1171046" data-name="Grupo 1171046">
              <g id="Grupo_1148525" data-name="Grupo 1148525">
                <g transform="matrix(1, 0, 0, 1, -9, -6)" filter="url(#Trazado_982547)">
                  <g id="Trazado_982547-2" data-name="Trazado 982547" transform="translate(9 6)" fill="#effbfe">
                    <path d="M 50 98.5 C 43.45188522338867 98.5 37.10042953491211 97.21787261962891 31.12207221984863 94.68923950195312 C 25.34691429138184 92.24655914306641 20.15997123718262 88.74931335449219 15.70532894134521 84.29468536376953 C 11.2506856918335 79.84004211425781 7.753442764282227 74.65309906005859 5.310757160186768 68.8779296875 C 2.782128572463989 62.89957046508789 1.5 56.54811477661133 1.5 50 C 1.5 43.45188522338867 2.782128572463989 37.10042953491211 5.310757160186768 31.12207221984863 C 7.753442764282227 25.34691429138184 11.2506856918335 20.15997123718262 15.70532894134521 15.70532894134521 C 20.15997123718262 11.2506856918335 25.34691429138184 7.753442764282227 31.12207221984863 5.310757160186768 C 37.10042953491211 2.782128572463989 43.45188522338867 1.5 50 1.5 C 56.54811477661133 1.5 62.89957046508789 2.782128572463989 68.8779296875 5.310757160186768 C 74.65309906005859 7.753442764282227 79.84004211425781 11.2506856918335 84.29468536376953 15.70532894134521 C 88.74931335449219 20.15997123718262 92.24655914306641 25.34691429138184 94.68923950195312 31.12207221984863 C 97.21787261962891 37.10042953491211 98.5 43.45188522338867 98.5 50 C 98.5 56.54811477661133 97.21787261962891 62.89957046508789 94.68923950195312 68.8779296875 C 92.24655914306641 74.65309906005859 88.74931335449219 79.84004211425781 84.29468536376953 84.29468536376953 C 79.84004211425781 88.74931335449219 74.65309906005859 92.24655914306641 68.8779296875 94.68923950195312 C 62.89957046508789 97.21787261962891 56.54811477661133 98.5 50 98.5 Z" stroke="none"/>
                    <path d="M 50 3 C 43.65372467041016 3 37.49886322021484 4.242263793945312 31.70639801025391 6.6922607421875 C 26.11003112792969 9.059326171875 21.08335113525391 12.44861602783203 16.76598358154297 16.76598358154297 C 12.44861602783203 21.08335113525391 9.059326171875 26.11003112792969 6.6922607421875 31.70639801025391 C 4.242263793945312 37.49886322021484 3 43.65372467041016 3 50 C 3 56.34627532958984 4.242263793945312 62.50113677978516 6.6922607421875 68.29360198974609 C 9.059326171875 73.88996887207031 12.44861602783203 78.91666412353516 16.76598358154297 83.23401641845703 C 21.08335113525391 87.55138397216797 26.11003112792969 90.940673828125 31.70639801025391 93.3077392578125 C 37.49886322021484 95.75773620605469 43.65372467041016 97 50 97 C 56.34627532958984 97 62.50113677978516 95.75773620605469 68.29360198974609 93.3077392578125 C 73.88996887207031 90.940673828125 78.91666412353516 87.55138397216797 83.23401641845703 83.23401641845703 C 87.55138397216797 78.91666412353516 90.940673828125 73.88996887207031 93.3077392578125 68.29360198974609 C 95.75773620605469 62.50113677978516 97 56.34627532958984 97 50 C 97 43.65372467041016 95.75773620605469 37.49886322021484 93.3077392578125 31.70639801025391 C 90.940673828125 26.11003112792969 87.55138397216797 21.08335113525391 83.23401641845703 16.76598358154297 C 78.91666412353516 12.44861602783203 73.88996887207031 9.059326171875 68.29360198974609 6.6922607421875 C 62.50113677978516 4.242263793945312 56.34627532958984 3 50 3 M 50 0 C 77.61424255371094 0 100 22.38577270507812 100 50 C 100 77.61424255371094 77.61424255371094 100 50 100 C 22.38577270507812 100 0 77.61424255371094 0 50 C 0 22.38577270507812 22.38577270507812 0 50 0 Z" stroke="none" fill="#497f88"/>
                  </g>
                </g>
              </g>
            </g>
          </g>
        </g>
      </g>
    </g>
    <g id="g1530" transform="translate(1185.414 4733.125)">
      <g id="g1532" transform="translate(0 -682.665)">
        <g id="g1534" transform="translate(0 0)" clip-path="url(#clip-path)">
          <g id="g1540" transform="translate(35.382 4.151)">
            <path id="path1542" d="M-294-234.637l-4.012,1.075a14.107,14.107,0,0,1-10.7-1.409h0a9.876,9.876,0,0,1-4.6-6h0l-6.664-3.847a3.239,3.239,0,0,1-1.185-4.424h0a3.239,3.239,0,0,1,4.424-1.185l7.724,4.46-2.9-1.672-.394-.234-14.153-8.163A3.072,3.072,0,0,1-328-258.695h0a3.072,3.072,0,0,1,4.426-2.758L-294-246.94Z" transform="translate(327.999 261.771)" fill="#ffcaa7"/>
          </g>
          <g id="g1544" transform="translate(35.382 4.151)">
            <path id="path1546" d="M-115.847-40.82l-8.971-4.4a3.072,3.072,0,0,0-4.426,2.758h0a3.072,3.072,0,0,0,1.537,2.661l14.153,8.163" transform="translate(129.244 45.541)" fill="none" stroke="#000" stroke-linecap="round" stroke-linejoin="round" stroke-miterlimit="10" stroke-width="1.5"/>
          </g>
          <g id="g1548" transform="translate(59.958 14.357)">
            <path id="path1550" d="M-81.486-39.989l-9.423-4.624" transform="translate(90.909 44.613)" fill="none" stroke="#000" stroke-linecap="round" stroke-linejoin="round" stroke-miterlimit="10" stroke-width="1.5"/>
          </g>
          <g id="g1552" transform="translate(6.396 49.622)">
            <path id="path1554" d="M-.44-90.774l4.086-1.095L2.551-87.784a9.493,9.493,0,0,0,7.712-2.734,9.518,9.518,0,0,0,2.16-10.129,9.518,9.518,0,0,0-10.129,2.16A9.493,9.493,0,0,0-.44-90.774" transform="translate(0.491 101.272)" fill="#5993af"/>
          </g>
          <g id="g1556" transform="translate(50.828 49.622)">
            <path id="path1558" d="M-116.638-90.774l-4.086-1.095,1.095,4.086a9.493,9.493,0,0,1-7.712-2.734,9.518,9.518,0,0,1-2.16-10.129,9.518,9.518,0,0,1,10.129,2.16,9.493,9.493,0,0,1,2.734,7.712" transform="translate(130.127 101.272)" fill="#5993af"/>
          </g>
          <g id="g1560" transform="translate(19.828 31.433)">
            <path id="path1562" d="M-134.492-304.206h0a15.553,15.553,0,0,1-15.553-15.553v-4.073a15.553,15.553,0,0,1,15.553-15.553h0a15.553,15.553,0,0,1,15.553,15.553v4.073a15.553,15.553,0,0,1-15.553,15.553" transform="translate(150.045 339.386)" fill="#ffddd6"/>
          </g>
          <g id="g1564" transform="translate(19.828 31.433)">
            <path id="path1566" d="M-7.642-140.263a19.192,19.192,0,0,0,18.861-15.649,15.568,15.568,0,0,0-4.191-.572h0A15.553,15.553,0,0,0-8.525-140.93v.667h.884" transform="translate(8.525 156.484)" fill="#5993af"/>
          </g>
          <g id="g1568" transform="translate(31.191 31.433)">
            <path id="path1570" d="M-163.091-140.263a19.192,19.192,0,0,1-18.861-15.649,15.568,15.568,0,0,1,4.191-.572h0a15.553,15.553,0,0,1,15.553,15.553v.667h-.884" transform="translate(181.952 156.484)" fill="#5993af"/>
          </g>
          <g id="g1572" transform="translate(19.828 31.433)">
            <path id="path1574" d="M-134.492-304.206h0a15.553,15.553,0,0,1-15.553-15.553v-4.073a15.553,15.553,0,0,1,15.553-15.553h0a15.553,15.553,0,0,1,15.553,15.553v4.073A15.553,15.553,0,0,1-134.492-304.206Z" transform="translate(150.045 339.386)" fill="none" stroke="#000" stroke-linecap="round" stroke-linejoin="round" stroke-miterlimit="10" stroke-width="1.5"/>
          </g>
          <g id="g1576" transform="translate(32.483 58.057)">
            <path id="path1578" d="M-50.126,0a4.1,4.1,0,0,1-5.8,0" transform="translate(55.923)" fill="none" stroke="#000" stroke-linecap="round" stroke-linejoin="round" stroke-miterlimit="10" stroke-width="1.5"/>
          </g>
          <g id="g1580" transform="translate(19.846 32.004)">
            <path id="path1582" d="M-170.582,0a19.192,19.192,0,0,1-18.861,15.649q-.435,0-.866-.019" transform="translate(190.309)" fill="none" stroke="#000" stroke-linecap="round" stroke-linejoin="round" stroke-miterlimit="10" stroke-width="1.5"/>
          </g>
          <g id="g1584" transform="translate(35.774 41.071)">
            <path id="path1586" d="M-130.354-56.919A20.5,20.5,0,0,1-145.429-63.5" transform="translate(145.429 63.501)" fill="none" stroke="#000" stroke-linecap="round" stroke-linejoin="round" stroke-miterlimit="10" stroke-width="1.5"/>
          </g>
          <g id="g1588" transform="translate(30.803 52.709)">
            <path id="path1590" d="M0,0H0" fill="none" stroke="#000" stroke-linecap="round" stroke-linejoin="round" stroke-miterlimit="10" stroke-width="1.5"/>
          </g>
          <g id="g1592" transform="translate(39.96 52.709)">
            <path id="path1594" d="M0,0H0" fill="none" stroke="#000" stroke-linecap="round" stroke-linejoin="round" stroke-miterlimit="10" stroke-width="1.5"/>
          </g>
          <g id="g1596" transform="translate(6.396 49.622)">
            <path id="path1598" d="M-.44-90.774l4.086-1.095L2.551-87.784a9.493,9.493,0,0,0,7.712-2.734,9.518,9.518,0,0,0,2.16-10.129,9.518,9.518,0,0,0-10.129,2.16A9.493,9.493,0,0,0-.44-90.774Z" transform="translate(0.491 101.272)" fill="none" stroke="#000" stroke-linecap="round" stroke-linejoin="round" stroke-miterlimit="10" stroke-width="1.5"/>
          </g>
          <g id="g1600" transform="translate(50.828 49.622)">
            <path id="path1602" d="M-116.638-90.774l-4.086-1.095,1.095,4.086a9.493,9.493,0,0,1-7.712-2.734,9.518,9.518,0,0,1-2.16-10.129,9.518,9.518,0,0,1,10.129,2.16A9.493,9.493,0,0,1-116.638-90.774Z" transform="translate(130.127 101.272)" fill="none" stroke="#000" stroke-linecap="round" stroke-linejoin="round" stroke-miterlimit="10" stroke-width="1.5"/>
          </g>
          <g id="g1604" transform="translate(54.374 11.617)">
            <path id="path1606" d="M0,0H0" fill="none" stroke="#000" stroke-linecap="round" stroke-linejoin="round" stroke-miterlimit="10" stroke-width="1.5"/>
          </g>
          <g id="g1608" transform="translate(41.78 15.063)">
            <path id="path1610" d="M-238.674-140.275l-4.012,1.075a14.107,14.107,0,0,1-10.7-1.409h0a9.876,9.876,0,0,1-4.6-6h0l-6.664-3.847a3.239,3.239,0,0,1-1.185-4.424h0a3.239,3.239,0,0,1,4.424-1.185l7.724,4.46-2.9-1.672" transform="translate(266.275 156.497)" fill="none" stroke="#000" stroke-linecap="round" stroke-linejoin="round" stroke-miterlimit="10" stroke-width="1.5"/>
          </g>
          <g id="g1612" transform="translate(1.382 4.151)">
            <path id="path1614" d="M0-234.637l4.012,1.075a14.107,14.107,0,0,0,10.7-1.409h0a9.876,9.876,0,0,0,4.6-6h0l6.664-3.847a3.239,3.239,0,0,0,1.185-4.424h0a3.239,3.239,0,0,0-4.424-1.185l-7.724,4.46,2.9-1.672.394-.234,14.153-8.163A3.072,3.072,0,0,0,34-258.695h0a3.072,3.072,0,0,0-4.426-2.758L0-246.94Z" transform="translate(0 261.771)" fill="#ffcaa7"/>
          </g>
          <g id="g1616" transform="translate(1.382 4.151)">
            <path id="path1618" d="M0-128.249l29.574-14.513A3.072,3.072,0,0,1,34-140h0a3.072,3.072,0,0,1-1.537,2.661L18.309-129.18" transform="translate(0 143.08)" fill="none" stroke="#000" stroke-linecap="round" stroke-linejoin="round" stroke-miterlimit="10" stroke-width="1.5"/>
          </g>
          <g id="g1620" transform="translate(1.382 15.063)">
            <path id="path1622" d="M0-140.275,4.012-139.2a14.107,14.107,0,0,0,10.7-1.409h0a9.876,9.876,0,0,0,4.6-6h0l6.664-3.847a3.239,3.239,0,0,0,1.185-4.424h0a3.239,3.239,0,0,0-4.424-1.185l-7.724,4.46,2.9-1.672" transform="translate(0 156.497)" fill="none" stroke="#000" stroke-linecap="round" stroke-linejoin="round" stroke-miterlimit="10" stroke-width="1.5"/>
          </g>
        </g>
      </g>
    </g>
  </g>
</svg>
