<svg xmlns="http://www.w3.org/2000/svg" xmlns:xlink="http://www.w3.org/1999/xlink" width="118" height="118" viewBox="0 0 118 118">
  <defs>
    <filter id="Trazado_982547" x="0" y="0" width="118" height="118" filterUnits="userSpaceOnUse">
      <feOffset dy="3" input="SourceAlpha"/>
      <feGaussianBlur stdDeviation="3" result="blur"/>
      <feFlood flood-opacity="0.161"/>
      <feComposite operator="in" in2="blur"/>
      <feComposite in="SourceGraphic"/>
    </filter>
  </defs>
  <g id="Grupo_1202454" data-name="Grupo 1202454" transform="translate(-740.796 -5285.994)">
    <g id="Grupo_1202331" data-name="Grupo 1202331" transform="translate(749.796 5291.994)">
      <g id="Grupo_1201680" data-name="Grupo 1201680">
        <g id="Grupo_1201330" data-name="Grupo 1201330">
          <g id="Grupo_1172010" data-name="Grupo 1172010">
            <g id="Grupo_1171046" data-name="Grupo 1171046">
              <g id="Grupo_1148525" data-name="Grupo 1148525">
                <g transform="matrix(1, 0, 0, 1, -9, -6)" filter="url(#Trazado_982547)">
                  <g id="Trazado_982547-2" data-name="Trazado 982547" transform="translate(9 6)" fill="#fdfbec">
                    <path d="M 50 98.5 C 43.45188522338867 98.5 37.10042953491211 97.21787261962891 31.12207221984863 94.68923950195312 C 25.34691429138184 92.24655914306641 20.15997123718262 88.74931335449219 15.70532894134521 84.29468536376953 C 11.2506856918335 79.84004211425781 7.753442764282227 74.65309906005859 5.310757160186768 68.8779296875 C 2.782128572463989 62.89957046508789 1.5 56.54811477661133 1.5 50 C 1.5 43.45188522338867 2.782128572463989 37.10042953491211 5.310757160186768 31.12207221984863 C 7.753442764282227 25.34691429138184 11.2506856918335 20.15997123718262 15.70532894134521 15.70532894134521 C 20.15997123718262 11.2506856918335 25.34691429138184 7.753442764282227 31.12207221984863 5.310757160186768 C 37.10042953491211 2.782128572463989 43.45188522338867 1.5 50 1.5 C 56.54811477661133 1.5 62.89957046508789 2.782128572463989 68.8779296875 5.310757160186768 C 74.65309906005859 7.753442764282227 79.84004211425781 11.2506856918335 84.29468536376953 15.70532894134521 C 88.74931335449219 20.15997123718262 92.24655914306641 25.34691429138184 94.68923950195312 31.12207221984863 C 97.21787261962891 37.10042953491211 98.5 43.45188522338867 98.5 50 C 98.5 56.54811477661133 97.21787261962891 62.89957046508789 94.68923950195312 68.8779296875 C 92.24655914306641 74.65309906005859 88.74931335449219 79.84004211425781 84.29468536376953 84.29468536376953 C 79.84004211425781 88.74931335449219 74.65309906005859 92.24655914306641 68.8779296875 94.68923950195312 C 62.89957046508789 97.21787261962891 56.54811477661133 98.5 50 98.5 Z" stroke="none"/>
                    <path d="M 50 3 C 43.65372467041016 3 37.49886322021484 4.242263793945312 31.70639801025391 6.6922607421875 C 26.11003112792969 9.059326171875 21.08335113525391 12.44861602783203 16.76598358154297 16.76598358154297 C 12.44861602783203 21.08335113525391 9.059326171875 26.11003112792969 6.6922607421875 31.70639801025391 C 4.242263793945312 37.49886322021484 3 43.65372467041016 3 50 C 3 56.34627532958984 4.242263793945312 62.50113677978516 6.6922607421875 68.29360198974609 C 9.059326171875 73.88996887207031 12.44861602783203 78.91666412353516 16.76598358154297 83.23401641845703 C 21.08335113525391 87.55138397216797 26.11003112792969 90.940673828125 31.70639801025391 93.3077392578125 C 37.49886322021484 95.75773620605469 43.65372467041016 97 50 97 C 56.34627532958984 97 62.50113677978516 95.75773620605469 68.29360198974609 93.3077392578125 C 73.88996887207031 90.940673828125 78.91666412353516 87.55138397216797 83.23401641845703 83.23401641845703 C 87.55138397216797 78.91666412353516 90.940673828125 73.88996887207031 93.3077392578125 68.29360198974609 C 95.75773620605469 62.50113677978516 97 56.34627532958984 97 50 C 97 43.65372467041016 95.75773620605469 37.49886322021484 93.3077392578125 31.70639801025391 C 90.940673828125 26.11003112792969 87.55138397216797 21.08335113525391 83.23401641845703 16.76598358154297 C 78.91666412353516 12.44861602783203 73.88996887207031 9.059326171875 68.29360198974609 6.6922607421875 C 62.50113677978516 4.242263793945312 56.34627532958984 3 50 3 M 50 0 C 77.61424255371094 0 100 22.38577270507812 100 50 C 100 77.61424255371094 77.61424255371094 100 50 100 C 22.38577270507812 100 0 77.61424255371094 0 50 C 0 22.38577270507812 22.38577270507812 0 50 0 Z" stroke="none" fill="#83793c"/>
                  </g>
                </g>
              </g>
            </g>
          </g>
        </g>
      </g>
    </g>
    <g id="public_17785876" transform="translate(747.953 5281.675)">
      <g id="Grupo_1202453" data-name="Grupo 1202453" transform="translate(20.666 29.095)">
        <path id="Trazado_1047897" data-name="Trazado 1047897" d="M76.433,36.409l24.551-.463a3.272,3.272,0,0,1,3.206,3.36V85.1a3.312,3.312,0,0,1-3.206,3.36l-37.127.463a3.28,3.28,0,0,1-3.206-3.36v-32.6l8.109-8.5Z" transform="translate(-56.033 -35.946)" fill="#19cfba" fill-rule="evenodd"/>
        <path id="Trazado_1047898" data-name="Trazado 1047898" d="M73.226,55.816H60.65l7.674-8.046,8.109-8.5V52.456A3.3,3.3,0,0,1,73.226,55.816Z" transform="translate(-56.033 -38.806)" fill="#218380" fill-rule="evenodd"/>
        <path id="Trazado_1047899" data-name="Trazado 1047899" d="M282.716,124.975c-16.336-8.089-14.7-9.066-14.438-28.24a24.811,24.811,0,0,0,14.438-7.465,24.811,24.811,0,0,0,14.438,7.465C297.416,115.909,299.052,116.885,282.716,124.975Z" transform="translate(-234.559 -81.833)" fill="#d81159" fill-rule="evenodd"/>
        <path id="Trazado_1047900" data-name="Trazado 1047900" d="M307.914,150.8c-11.77-5.831-10.587-6.531-10.4-20.345a17.871,17.871,0,0,0,10.4-5.377,17.871,17.871,0,0,0,10.4,5.377C318.5,144.27,319.679,144.97,307.914,150.8Z" transform="translate(-259.757 -112.648)" fill="#fbb13c" fill-rule="evenodd"/>
        <path id="Trazado_1047901" data-name="Trazado 1047901" d="M210.52,69.4h13.149v4.93H210.52Z" transform="translate(-185.001 -64.734)" fill="#fbb13c" fill-rule="evenodd"/>
        <path id="Trazado_1047902" data-name="Trazado 1047902" d="M32.119,369.9h5.717a4.582,4.582,0,0,1,4.57,4.566v6.884H27.55v-6.883A4.582,4.582,0,0,1,32.119,369.9Z" transform="translate(-27.55 -323.323)" fill="#fbb13c" fill-rule="evenodd"/>
        <path id="Trazado_1047903" data-name="Trazado 1047903" d="M54.762,314.88A4.224,4.224,0,1,1,50.54,319.1,4.224,4.224,0,0,1,54.762,314.88Z" transform="translate(-47.334 -275.976)" fill="#de8383" fill-rule="evenodd"/>
        <path id="Trazado_1047904" data-name="Trazado 1047904" d="M182.376,369.9H188.1a4.581,4.581,0,0,1,4.566,4.566v6.884H177.81v-6.883A4.581,4.581,0,0,1,182.376,369.9Z" transform="translate(-156.853 -323.323)" fill="#1d4e89" fill-rule="evenodd"/>
        <path id="Trazado_1047905" data-name="Trazado 1047905" d="M204.992,314.88a4.224,4.224,0,1,1-4.222,4.222A4.224,4.224,0,0,1,204.992,314.88Z" transform="translate(-176.611 -275.976)" fill="#de8383" fill-rule="evenodd"/>
        <path id="Trazado_1047906" data-name="Trazado 1047906" d="M107.23,401.57h5.717a4.579,4.579,0,0,1,4.57,4.566v6.879H102.66v-6.879A4.579,4.579,0,0,1,107.23,401.57Z" transform="translate(-92.184 -350.576)" fill="#d81159" fill-rule="evenodd"/>
        <path id="Trazado_1047907" data-name="Trazado 1047907" d="M129.882,346.55a4.222,4.222,0,1,1-4.222,4.222A4.221,4.221,0,0,1,129.882,346.55Z" transform="translate(-111.976 -303.229)" fill="#de8383" fill-rule="evenodd"/>
      </g>
      <path id="Trazado_1047908" data-name="Trazado 1047908" d="M63.976,55.9a1.112,1.112,0,0,1,1.474-1.664l3.206,2.831L74.4,49.447a1.114,1.114,0,1,1,1.775,1.345l-6.46,8.575a1.117,1.117,0,0,1-1.625.162Zm-25.4,15.4A5.342,5.342,0,0,1,43.7,75.138l.7-.289a5.34,5.34,0,1,1,9.3,0A5.7,5.7,0,0,1,57.6,80.237v.356l8.01-.1a2.2,2.2,0,0,0,2.1-2.25V72.926c-14.889-7.417-14.854-9.113-14.522-24.239.032-1.444.063-3.017.086-4.7a1.115,1.115,0,0,1,.944-1.088v0a24.76,24.76,0,0,0,7.611-2.455,22.678,22.678,0,0,0,5.879-4.349l0-3.685a2.168,2.168,0,0,0-2.04-2.194c-.1,0-.02,0,0,0h-.036l-23.452.442V42.74a4.413,4.413,0,0,1-4.321,4.476H26.4V67.157a5.339,5.339,0,0,1,6.346,7.689l.7.289A5.336,5.336,0,0,1,38.571,71.3Zm5.222,6.456a5.313,5.313,0,0,1-.569,1.506,5.7,5.7,0,0,1,3.89,5.392V86h8.247V80.238a3.463,3.463,0,0,0-3.452-3.452h-.086a5.34,5.34,0,0,1-5.543,0h-.091a3.418,3.418,0,0,0-2.4.969ZM41.342,81.2a5.332,5.332,0,0,1-5.538,0h-.091a3.465,3.465,0,0,0-3.452,3.452V90.42H44.885V84.655A3.465,3.465,0,0,0,41.433,81.2Zm-7.421-1.941a5.313,5.313,0,0,1-.569-1.506,3.505,3.505,0,0,0-.976-.664,3.371,3.371,0,0,0-1.424-.3h-.086a5.34,5.34,0,0,1-5.543,0h-.086a3.463,3.463,0,0,0-3.452,3.452V86h8.247V84.655a5.7,5.7,0,0,1,3.89-5.393Zm6.848-4.819a3.105,3.105,0,1,0,0,4.392,3.108,3.108,0,0,0,0-4.392Zm6.345,13.794v3.3A1.117,1.117,0,0,1,46,92.653H31.146a1.117,1.117,0,0,1-1.114-1.119v-3.3H20.669a1.119,1.119,0,0,1-1.119-1.114V80.24a5.7,5.7,0,0,1,3.894-5.392,5.341,5.341,0,0,1,.724-6.239V46.1a1.107,1.107,0,0,1,.364-.826L40.263,28.793a1.078,1.078,0,0,1,.838-.344l24.5-.463a4.393,4.393,0,0,1,4.338,4.471V36.09a22.7,22.7,0,0,0,5.883,4.349,24.612,24.612,0,0,0,7.607,2.455,1.114,1.114,0,0,1,.948,1.179c.024,1.653.056,3.2.086,4.618.328,15.126.364,16.822-14.526,24.239v5.318a4.421,4.421,0,0,1-4.306,4.471l-8.038.1v4.305a1.119,1.119,0,0,1-1.119,1.114Zm4.133-18.209a3.105,3.105,0,1,0,0,4.392A3.108,3.108,0,0,0,51.246,70.028Zm-20.954,0a3.107,3.107,0,1,0,0,4.392A3.111,3.111,0,0,0,30.292,70.028Zm.418-5.092a1.116,1.116,0,0,1,0-2.233h6.855a1.116,1.116,0,1,1,0,2.233Zm10.766,0a1.116,1.116,0,0,1,0-2.233h9.145a1.116,1.116,0,0,1,0,2.233Zm4.82-6.184a1.116,1.116,0,0,1,0-2.233h4.325a1.116,1.116,0,0,1,0,2.233Zm-15.586,0a1.116,1.116,0,0,1,0-2.233H42.677a1.116,1.116,0,0,1,0,2.233Zm0-6.183a1.114,1.114,0,1,1,0-2.229h6.855a1.114,1.114,0,1,1,0,2.229Zm10.766,0a1.114,1.114,0,0,1,0-2.229h9.145a1.114,1.114,0,1,1,0,2.229Zm4.709-19.922H59.334a1.117,1.117,0,0,1,1.119,1.114v4.93a1.12,1.12,0,0,1-1.119,1.119H46.185a1.117,1.117,0,0,1-1.114-1.119v-4.93A1.113,1.113,0,0,1,46.185,32.646Zm12.035,2.23H47.3v2.7H58.22ZM68.333,68.244C57,62.61,57,61.546,57.248,50.278c.024-1.043.047-2.179.063-3.388a1.117,1.117,0,0,1,.948-1.088v0a16.748,16.748,0,0,0,9.749-5.032,1.12,1.12,0,0,1,1.637,0A16.746,16.746,0,0,0,79.39,45.8a1.114,1.114,0,0,1,.944,1.179c.02,1.174.043,2.282.063,3.3.245,11.225.269,12.343-11.082,17.965a1.114,1.114,0,0,1-.982,0ZM59.47,50.323C59.26,60.1,59.237,61.218,68.824,66c9.591-4.784,9.568-5.907,9.354-15.679-.015-.771-.036-1.593-.052-2.483a19.063,19.063,0,0,1-9.3-4.736,19.057,19.057,0,0,1-9.3,4.736C59.5,48.729,59.489,49.552,59.47,50.323Zm-4.061-1.59C55.1,62.617,55.076,64.152,68.823,71c13.751-6.844,13.718-8.378,13.419-22.263-.028-1.17-.056-2.424-.075-3.791a26.023,26.023,0,0,1-13.343-6.816,26.005,26.005,0,0,1-13.339,6.816c-.024,1.367-.052,2.621-.075,3.791ZM27.885,44.99h9.979a2.18,2.18,0,0,0,2.088-2.245V32.338ZM65.672,30.207Z" transform="translate(0 0)"/>
    </g>
  </g>
</svg>
