<svg xmlns="http://www.w3.org/2000/svg" xmlns:xlink="http://www.w3.org/1999/xlink" width="118" height="118" viewBox="0 0 118 118">
  <defs>
    <filter id="Trazado_982547" x="0" y="0" width="118" height="118" filterUnits="userSpaceOnUse">
      <feOffset dy="3" input="SourceAlpha"/>
      <feGaussianBlur stdDeviation="3" result="blur"/>
      <feFlood flood-opacity="0.161"/>
      <feComposite operator="in" in2="blur"/>
      <feComposite in="SourceGraphic"/>
    </filter>
  </defs>
  <g id="Grupo_1202456" data-name="Grupo 1202456" transform="translate(-1161.796 -5285.994)">
    <g id="Grupo_1202332" data-name="Grupo 1202332" transform="translate(1170.796 5291.994)">
      <g id="Grupo_1201680" data-name="Grupo 1201680">
        <g id="Grupo_1201330" data-name="Grupo 1201330">
          <g id="Grupo_1172010" data-name="Grupo 1172010">
            <g id="Grupo_1171046" data-name="Grupo 1171046">
              <g id="Grupo_1148525" data-name="Grupo 1148525">
                <g transform="matrix(1, 0, 0, 1, -9, -6)" filter="url(#Trazado_982547)">
                  <g id="Trazado_982547-2" data-name="Trazado 982547" transform="translate(9 6)" fill="#fdfbec">
                    <path d="M 50 98.5 C 43.45188522338867 98.5 37.10042953491211 97.21787261962891 31.12207221984863 94.68923950195312 C 25.34691429138184 92.24655914306641 20.15997123718262 88.74931335449219 15.70532894134521 84.29468536376953 C 11.2506856918335 79.84004211425781 7.753442764282227 74.65309906005859 5.310757160186768 68.8779296875 C 2.782128572463989 62.89957046508789 1.5 56.54811477661133 1.5 50 C 1.5 43.45188522338867 2.782128572463989 37.10042953491211 5.310757160186768 31.12207221984863 C 7.753442764282227 25.34691429138184 11.2506856918335 20.15997123718262 15.70532894134521 15.70532894134521 C 20.15997123718262 11.2506856918335 25.34691429138184 7.753442764282227 31.12207221984863 5.310757160186768 C 37.10042953491211 2.782128572463989 43.45188522338867 1.5 50 1.5 C 56.54811477661133 1.5 62.89957046508789 2.782128572463989 68.8779296875 5.310757160186768 C 74.65309906005859 7.753442764282227 79.84004211425781 11.2506856918335 84.29468536376953 15.70532894134521 C 88.74931335449219 20.15997123718262 92.24655914306641 25.34691429138184 94.68923950195312 31.12207221984863 C 97.21787261962891 37.10042953491211 98.5 43.45188522338867 98.5 50 C 98.5 56.54811477661133 97.21787261962891 62.89957046508789 94.68923950195312 68.8779296875 C 92.24655914306641 74.65309906005859 88.74931335449219 79.84004211425781 84.29468536376953 84.29468536376953 C 79.84004211425781 88.74931335449219 74.65309906005859 92.24655914306641 68.8779296875 94.68923950195312 C 62.89957046508789 97.21787261962891 56.54811477661133 98.5 50 98.5 Z" stroke="none"/>
                    <path d="M 50 3 C 43.65372467041016 3 37.49886322021484 4.242263793945312 31.70639801025391 6.6922607421875 C 26.11003112792969 9.059326171875 21.08335113525391 12.44861602783203 16.76598358154297 16.76598358154297 C 12.44861602783203 21.08335113525391 9.059326171875 26.11003112792969 6.6922607421875 31.70639801025391 C 4.242263793945312 37.49886322021484 3 43.65372467041016 3 50 C 3 56.34627532958984 4.242263793945312 62.50113677978516 6.6922607421875 68.29360198974609 C 9.059326171875 73.88996887207031 12.44861602783203 78.91666412353516 16.76598358154297 83.23401641845703 C 21.08335113525391 87.55138397216797 26.11003112792969 90.940673828125 31.70639801025391 93.3077392578125 C 37.49886322021484 95.75773620605469 43.65372467041016 97 50 97 C 56.34627532958984 97 62.50113677978516 95.75773620605469 68.29360198974609 93.3077392578125 C 73.88996887207031 90.940673828125 78.91666412353516 87.55138397216797 83.23401641845703 83.23401641845703 C 87.55138397216797 78.91666412353516 90.940673828125 73.88996887207031 93.3077392578125 68.29360198974609 C 95.75773620605469 62.50113677978516 97 56.34627532958984 97 50 C 97 43.65372467041016 95.75773620605469 37.49886322021484 93.3077392578125 31.70639801025391 C 90.940673828125 26.11003112792969 87.55138397216797 21.08335113525391 83.23401641845703 16.76598358154297 C 78.91666412353516 12.44861602783203 73.88996887207031 9.059326171875 68.29360198974609 6.6922607421875 C 62.50113677978516 4.242263793945312 56.34627532958984 3 50 3 M 50 0 C 77.61424255371094 0 100 22.38577270507812 100 50 C 100 77.61424255371094 77.61424255371094 100 50 100 C 22.38577270507812 100 0 77.61424255371094 0 50 C 0 22.38577270507812 22.38577270507812 0 50 0 Z" stroke="none" fill="#83793c"/>
                  </g>
                </g>
              </g>
            </g>
          </g>
        </g>
      </g>
    </g>
    <g id="Filled_outline" data-name="Filled outline" transform="translate(1181.344 5304.79)">
      <path id="Trazado_1047909" data-name="Trazado 1047909" d="M63.3,29.034a2.59,2.59,0,0,0-2.077,2.6v6.108l-4.994,4.994-1.248-1.248a3.389,3.389,0,0,0-4.994,0L42.5,47.726A6.158,6.158,0,0,0,40,52.72v9.987H51.236V58.962l8.739-6.242,6.242-12.484V31.5A2.5,2.5,0,0,0,63.3,29.034Z" transform="translate(9.439 5.465)" fill="#ffd782"/>
      <path id="Trazado_1047910" data-name="Trazado 1047910" d="M5.916,29.034a2.59,2.59,0,0,1,2.077,2.6v6.108l4.994,4.994,1.248-1.248a3.389,3.389,0,0,1,4.994,0l7.49,6.242a6.158,6.158,0,0,1,2.5,4.994v9.987H17.981V58.962L9.242,52.72,3,40.236V31.5a2.5,2.5,0,0,1,2.916-2.463Z" transform="translate(0.248 5.465)" fill="#ffd782"/>
      <rect id="Rectángulo_417795" data-name="Rectángulo 417795" width="10" height="10" rx="4" transform="translate(53.452 8.21)" fill="#ffd782"/>
      <rect id="Rectángulo_417796" data-name="Rectángulo 417796" width="10" height="10" rx="4" transform="translate(34.452 14.21)" fill="#ffd782"/>
      <path id="Trazado_1047911" data-name="Trazado 1047911" d="M41,20H55.981V39.974H41Z" transform="translate(9.688 3.229)" fill="#50b4f8"/>
      <rect id="Rectángulo_417797" data-name="Rectángulo 417797" width="10" height="10" rx="4" transform="translate(17.452 8.21)" fill="#ffd782"/>
      <path id="Trazado_1047912" data-name="Trazado 1047912" d="M26.981,39.974H12L14.5,20h9.987Z" transform="translate(2.484 3.229)" fill="#f98c96"/>
      <path id="Trazado_1047913" data-name="Trazado 1047913" d="M28,25h9.987v9.987H28Z" transform="translate(6.459 4.471)" fill="#8ec13f"/>
      <path id="Trazado_1047914" data-name="Trazado 1047914" d="M28,33h4.994v9.987a2.5,2.5,0,1,1-4.994,0Z" transform="translate(6.459 6.459)" fill="#f9bb4b"/>
      <g id="Grupo_1202455" data-name="Grupo 1202455" transform="translate(9.134 23.229)">
        <path id="Trazado_1047915" data-name="Trazado 1047915" d="M32,33v9.987a2.5,2.5,0,1,0,4.994,0V33Z" transform="translate(-1.682 -16.771)" fill="#ffd782"/>
        <path id="Trazado_1047916" data-name="Trazado 1047916" d="M36,26.242,42.242,20v6.242L36,32.484Z" transform="translate(-0.688 -20)" fill="#ffd782"/>
        <path id="Trazado_1047917" data-name="Trazado 1047917" d="M29.49,26.242,22,20l.873,6.82,6.618,5.664Z" transform="translate(-4.166 -20)" fill="#ffd782"/>
        <path id="Trazado_1047918" data-name="Trazado 1047918" d="M15.561,20l-6.91,6.72A2.683,2.683,0,0,0,8,29.959v.009a2.684,2.684,0,0,0,4.17.819l2.406-2.911Z" transform="translate(-7.714 -20)" fill="#ffd782"/>
        <path id="Trazado_1047919" data-name="Trazado 1047919" d="M53,20l4.994,4.994a2.648,2.648,0,1,1-3.745,3.745L53,27.49Z" transform="translate(3.535 -20)" fill="#ffd782"/>
      </g>
      <path id="Trazado_1047920" data-name="Trazado 1047920" d="M42.248,45.987l6.242-5.2V36H41V47.289A9.613,9.613,0,0,1,42.248,45.987Z" transform="translate(9.688 7.204)" fill="#f9bb4b"/>
      <path id="Trazado_1047921" data-name="Trazado 1047921" d="M22.994,45.987V36H18v5.826Z" transform="translate(3.974 7.204)" fill="#f9bb4b"/>
      <path id="Trazado_1047922" data-name="Trazado 1047922" d="M42,13.242A6.242,6.242,0,1,0,48.242,7,6.242,6.242,0,0,0,42,13.242Zm9.987,0A3.745,3.745,0,1,1,48.242,9.5a3.745,3.745,0,0,1,3.745,3.745Z" transform="translate(9.936)"/>
      <path id="Trazado_1047923" data-name="Trazado 1047923" d="M27,18.242A6.242,6.242,0,1,0,33.242,12,6.242,6.242,0,0,0,27,18.242Zm9.987,0A3.745,3.745,0,1,1,33.242,14.5,3.745,3.745,0,0,1,36.987,18.242Z" transform="translate(6.21 1.242)"/>
      <path id="Trazado_1047924" data-name="Trazado 1047924" d="M13,13.242A6.242,6.242,0,1,0,19.242,7,6.242,6.242,0,0,0,13,13.242Zm9.987,0A3.745,3.745,0,1,1,19.242,9.5,3.745,3.745,0,0,1,22.987,13.242Z" transform="translate(2.732)"/>
      <path id="Trazado_1047925" data-name="Trazado 1047925" d="M72.535,30.286a3.85,3.85,0,0,0-3.121,3.829v5.592l-3.745,3.745-.366-.366a4.783,4.783,0,0,0-3.379-1.463,4.637,4.637,0,0,0-2.5.749v-.9h6.242a1.248,1.248,0,0,0,1.248-1.248v-9.71a3.844,3.844,0,0,0,4.628-.645,3.9,3.9,0,0,0,0-5.508l-4.994-4.994A1.241,1.241,0,0,0,65.669,19H50.688a1.241,1.241,0,0,0-.884.367l-5.875,5.875H34.91l-7.147-5.949a1.24,1.24,0,0,0-.8-.293H16.981a1.23,1.23,0,0,0-.864.361l-6.857,6.66a3.94,3.94,0,0,0,1.806,6.854,4.008,4.008,0,0,0,.767.075,3.893,3.893,0,0,0,2.409-.85l-1,7.969a1.248,1.248,0,0,0,1.241,1.4h6.242V43.39l-.366-.3a4.744,4.744,0,0,0-6.759,0l-.366.366L9.49,39.706V34.114a3.85,3.85,0,0,0-3.121-3.829A3.745,3.745,0,0,0,2,33.981V42.72a1.248,1.248,0,0,0,.125.558L8.367,55.762a1.248,1.248,0,0,0,.392.457l8.222,5.87v3.1a1.248,1.248,0,0,0,1.248,1.248H29.465a1.248,1.248,0,0,0,1.248-1.248V55.2a7.163,7.163,0,0,0-2.5-5.53v-8.2h1.248a1.248,1.248,0,0,0,1.238-1.4L29.455,30.1l3.755,3.212V46.465a3.729,3.729,0,0,0,6.242,2.771,3.729,3.729,0,0,0,6.242-2.771V33.249L49.439,29.5V51.1a6.849,6.849,0,0,0-1.248,4.1v9.987a1.248,1.248,0,0,0,1.248,1.248H60.675a1.248,1.248,0,0,0,1.248-1.248v-3.1l8.216-5.868a1.248,1.248,0,0,0,.392-.457L76.773,43.28a1.248,1.248,0,0,0,.131-.561V33.981a3.745,3.745,0,0,0-4.369-3.7Zm-5.618-7.024,2.863,2.863a1.4,1.4,0,0,1,0,1.98,1.429,1.429,0,0,1-1.977,0l-.885-.883ZM14.8,27.614l-2.1,2.543a1.438,1.438,0,0,1-2.17-.5,1.463,1.463,0,0,1,.408-1.794L15.3,23.619Zm1.1,11.36L18.083,21.5h7.783L28.05,38.974Zm9.821,2.5v6.073l-2.5-2.079V41.471Zm2.5,22.471H19.478v-2.5a1.248,1.248,0,0,0-.523-1.015l-8.489-6.062L4.5,42.425V33.981a1.248,1.248,0,0,1,1.467-1.23,1.352,1.352,0,0,1,1.03,1.363v6.108a1.248,1.248,0,0,0,.366.882L18.6,52.341l1.765-1.765L15,45.216l.366-.366a2.155,2.155,0,0,1,3.312.077l7.469,6.225A4.9,4.9,0,0,1,28.217,55.2ZM33.21,30.021,29,26.414l-.4-3.181,4.61,3.843ZM38.2,46.465a1.248,1.248,0,1,1-2.5,0V37.726h2.5Zm4.994,0a1.248,1.248,0,1,1-2.5,0V37.726h2.5Zm0-11.236h-7.49v-7.49H43.2Zm6.242-9.256-3.745,3.745V27.007l3.745-3.745Zm2.5-4.477H64.42V38.974H51.936Zm0,19.974H56.93v2.951l-4.994,4.165Zm22.471.954L68.436,54.369l-8.489,6.062a1.248,1.248,0,0,0-.521,1.015v2.5H50.688V55.2a4.408,4.408,0,0,1,.968-2.909c0-.006.012-.007.016-.014a8.217,8.217,0,0,1,1.075-1.124l7.563-6.309a2.171,2.171,0,0,1,3.228,0l.366.366-5.359,5.359,1.765,1.765L71.545,41.1a1.248,1.248,0,0,0,.366-.88V34.114a1.352,1.352,0,0,1,1.03-1.363,1.248,1.248,0,0,1,1.467,1.23Z" transform="translate(0 2.981)"/>
    </g>
  </g>
</svg>
