<svg xmlns="http://www.w3.org/2000/svg" xmlns:xlink="http://www.w3.org/1999/xlink" width="118" height="118" viewBox="0 0 118 118">
  <defs>
    <filter id="Trazado_982547" x="0" y="0" width="118" height="118" filterUnits="userSpaceOnUse">
      <feOffset dy="3" input="SourceAlpha"/>
      <feGaussianBlur stdDeviation="3" result="blur"/>
      <feFlood flood-opacity="0.161"/>
      <feComposite operator="in" in2="blur"/>
      <feComposite in="SourceGraphic"/>
    </filter>
  </defs>
  <g id="Grupo_1202335" data-name="Grupo 1202335" transform="translate(-320.796 -2239.033)">
    <g id="Grupo_1201990" data-name="Grupo 1201990" transform="translate(329.796 2245.033)">
      <g id="Grupo_1201680" data-name="Grupo 1201680">
        <g id="Grupo_1201330" data-name="Grupo 1201330">
          <g id="Grupo_1172010" data-name="Grupo 1172010">
            <g id="Grupo_1171046" data-name="Grupo 1171046">
              <g id="Grupo_1148525" data-name="Grupo 1148525">
                <g transform="matrix(1, 0, 0, 1, -9, -6)" filter="url(#Trazado_982547)">
                  <g id="Trazado_982547-2" data-name="Trazado 982547" transform="translate(9 6)" fill="#fdfbec">
                    <path d="M 50 98.5 C 43.45188522338867 98.5 37.10042953491211 97.21787261962891 31.12207221984863 94.68923950195312 C 25.34691429138184 92.24655914306641 20.15997123718262 88.74931335449219 15.70532894134521 84.29468536376953 C 11.2506856918335 79.84004211425781 7.753442764282227 74.65309906005859 5.310757160186768 68.8779296875 C 2.782128572463989 62.89957046508789 1.5 56.54811477661133 1.5 50 C 1.5 43.45188522338867 2.782128572463989 37.10042953491211 5.310757160186768 31.12207221984863 C 7.753442764282227 25.34691429138184 11.2506856918335 20.15997123718262 15.70532894134521 15.70532894134521 C 20.15997123718262 11.2506856918335 25.34691429138184 7.753442764282227 31.12207221984863 5.310757160186768 C 37.10042953491211 2.782128572463989 43.45188522338867 1.5 50 1.5 C 56.54811477661133 1.5 62.89957046508789 2.782128572463989 68.8779296875 5.310757160186768 C 74.65309906005859 7.753442764282227 79.84004211425781 11.2506856918335 84.29468536376953 15.70532894134521 C 88.74931335449219 20.15997123718262 92.24655914306641 25.34691429138184 94.68923950195312 31.12207221984863 C 97.21787261962891 37.10042953491211 98.5 43.45188522338867 98.5 50 C 98.5 56.54811477661133 97.21787261962891 62.89957046508789 94.68923950195312 68.8779296875 C 92.24655914306641 74.65309906005859 88.74931335449219 79.84004211425781 84.29468536376953 84.29468536376953 C 79.84004211425781 88.74931335449219 74.65309906005859 92.24655914306641 68.8779296875 94.68923950195312 C 62.89957046508789 97.21787261962891 56.54811477661133 98.5 50 98.5 Z" stroke="none"/>
                    <path d="M 50 3 C 43.65372467041016 3 37.49886322021484 4.242263793945312 31.70639801025391 6.6922607421875 C 26.11003112792969 9.059326171875 21.08335113525391 12.44861602783203 16.76598358154297 16.76598358154297 C 12.44861602783203 21.08335113525391 9.059326171875 26.11003112792969 6.6922607421875 31.70639801025391 C 4.242263793945312 37.49886322021484 3 43.65372467041016 3 50 C 3 56.34627532958984 4.242263793945312 62.50113677978516 6.6922607421875 68.29360198974609 C 9.059326171875 73.88996887207031 12.44861602783203 78.91666412353516 16.76598358154297 83.23401641845703 C 21.08335113525391 87.55138397216797 26.11003112792969 90.940673828125 31.70639801025391 93.3077392578125 C 37.49886322021484 95.75773620605469 43.65372467041016 97 50 97 C 56.34627532958984 97 62.50113677978516 95.75773620605469 68.29360198974609 93.3077392578125 C 73.88996887207031 90.940673828125 78.91666412353516 87.55138397216797 83.23401641845703 83.23401641845703 C 87.55138397216797 78.91666412353516 90.940673828125 73.88996887207031 93.3077392578125 68.29360198974609 C 95.75773620605469 62.50113677978516 97 56.34627532958984 97 50 C 97 43.65372467041016 95.75773620605469 37.49886322021484 93.3077392578125 31.70639801025391 C 90.940673828125 26.11003112792969 87.55138397216797 21.08335113525391 83.23401641845703 16.76598358154297 C 78.91666412353516 12.44861602783203 73.88996887207031 9.059326171875 68.29360198974609 6.6922607421875 C 62.50113677978516 4.242263793945312 56.34627532958984 3 50 3 M 50 0 C 77.61424255371094 0 100 22.38577270507812 100 50 C 100 77.61424255371094 77.61424255371094 100 50 100 C 22.38577270507812 100 0 77.61424255371094 0 50 C 0 22.38577270507812 22.38577270507812 0 50 0 Z" stroke="none" fill="#83793c"/>
                  </g>
                </g>
              </g>
            </g>
          </g>
        </g>
      </g>
    </g>
    <g id="man_2180946" transform="translate(345.457 2260.618)">
      <g id="Grupo_1202334" data-name="Grupo 1202334" transform="translate(2.075 1.07)">
        <path id="Trazado_1047281" data-name="Trazado 1047281" d="M32.453,13.9a6.453,6.453,0,1,1,6.453-6.453A6.445,6.445,0,0,1,32.453,13.9Z" transform="translate(-0.189 -0.995)" fill="#ed5565"/>
        <path id="Trazado_1047282" data-name="Trazado 1047282" d="M56.453,38.911a6.453,6.453,0,1,1,6.453-6.453A6.451,6.451,0,0,1,56.453,38.911Z" transform="translate(1.622 0.892)" fill="#ed5565"/>
        <path id="Trazado_1047283" data-name="Trazado 1047283" d="M14.773,21.231a6.459,6.459,0,1,1,6.453-6.453,6.464,6.464,0,0,1-6.453,6.453Z" transform="translate(-1.523 -0.443)" fill="#ed5565"/>
        <path id="Trazado_1047284" data-name="Trazado 1047284" d="M50.133,21.231a6.453,6.453,0,1,1,6.442-6.453A6.437,6.437,0,0,1,50.133,21.231Z" transform="translate(1.145 -0.442)" fill="#ed5565"/>
        <path id="Trazado_1047285" data-name="Trazado 1047285" d="M8.453,38.911a6.458,6.458,0,1,1,6.453-6.464v.011A6.464,6.464,0,0,1,8.453,38.911Z" transform="translate(-2 0.892)" fill="#ed5565"/>
      </g>
      <path id="Trazado_1047286" data-name="Trazado 1047286" d="M32.377,50.1a11.739,11.739,0,0,0,5.377-1.291v3.441L35.6,54.4l-3.226-1.075L29.151,54.4,27,52.246V48.805A11.739,11.739,0,0,0,32.377,50.1Z" transform="translate(1.962 3.683)" fill="#87bcf4"/>
      <path id="Trazado_1047287" data-name="Trazado 1047287" d="M44.66,35.231v4.3a11.83,11.83,0,1,1-23.66,0v-4.3l3.226-3.226a20.351,20.351,0,0,0,8.6,2.151,20.413,20.413,0,0,0,8.6-2.151Z" transform="translate(1.509 2.415)" fill="#eac6bb"/>
      <path id="Trazado_1047288" data-name="Trazado 1047288" d="M40.717,32.005l0,0v7.526a11.835,11.835,0,0,1-6.453,10.54A11.659,11.659,0,0,1,30.5,51.245a11.947,11.947,0,0,0,1.615.118,11.824,11.824,0,0,0,11.83-11.83v-4.3Z" transform="translate(2.226 2.415)" fill="#d3b1a9"/>
      <path id="Trazado_1047289" data-name="Trazado 1047289" d="M24.226,32.835,21,36.061V30.684a9.667,9.667,0,0,1,9.679-9.679h8.6v4.3a5.372,5.372,0,0,1,5.377,5.377v5.377l-3.226-3.226a20.413,20.413,0,0,1-8.6,2.151A20.351,20.351,0,0,1,24.226,32.835Z" transform="translate(1.509 1.585)" fill="#965353"/>
      <path id="Trazado_1047290" data-name="Trazado 1047290" d="M43.6,36.061V30.684a5.372,5.372,0,0,0-5.377-5.377v-4.3H35v4.3a3.226,3.226,0,0,0,3.226,3.226,2.153,2.153,0,0,1,2.151,2.151v2.151Z" transform="translate(2.566 1.585)" fill="#844747"/>
      <path id="Trazado_1047291" data-name="Trazado 1047291" d="M29.906,54.156l3.226-1.075,3.226,1.075L38.509,52h4.3a6.45,6.45,0,0,1,6.453,6.453v3.226a2.157,2.157,0,0,1-2.151,2.151H19.151A2.15,2.15,0,0,1,17,61.684V58.458A6.444,6.444,0,0,1,23.453,52h4.3Z" transform="translate(1.207 3.925)" fill="#5d9cec"/>
      <path id="Trazado_1047292" data-name="Trazado 1047292" d="M41.227,52H38a6.45,6.45,0,0,1,6.453,6.453v3.226A2.157,2.157,0,0,1,42.3,63.835h3.23a2.157,2.157,0,0,0,2.151-2.151V58.458A6.45,6.45,0,0,0,41.227,52Z" transform="translate(2.792 3.925)" fill="#4a89dc"/>
      <path id="Trazado_1047293" data-name="Trazado 1047293" d="M17.075,59.6A1.074,1.074,0,0,1,16,58.529,7.537,7.537,0,0,1,23.528,51a1.075,1.075,0,1,1,0,2.151,5.383,5.383,0,0,0-5.377,5.376A1.074,1.074,0,0,1,17.075,59.6Z" transform="translate(1.132 3.849)"/>
      <path id="Trazado_1047294" data-name="Trazado 1047294" d="M27.377,53.154h-4.3a1.075,1.075,0,1,1,0-2.151h4.3a1.075,1.075,0,1,1,0,2.151Z" transform="translate(1.585 3.849)"/>
      <path id="Trazado_1047295" data-name="Trazado 1047295" d="M17.075,62.358A1.074,1.074,0,0,1,16,61.282V58.363a1.075,1.075,0,0,1,2.151,0v2.919A1.074,1.074,0,0,1,17.075,62.358Z" transform="translate(1.132 4.323)"/>
      <path id="Trazado_1047296" data-name="Trazado 1047296" d="M47.528,59.6a1.074,1.074,0,0,1-1.075-1.075,5.383,5.383,0,0,0-5.377-5.376,1.075,1.075,0,0,1,0-2.151A7.537,7.537,0,0,1,48.6,58.529,1.074,1.074,0,0,1,47.528,59.6Z" transform="translate(2.943 3.849)"/>
      <path id="Trazado_1047297" data-name="Trazado 1047297" d="M37.075,53.154a1.075,1.075,0,0,1,0-2.151h4.3a1.075,1.075,0,1,1,0,2.151Z" transform="translate(2.641 3.849)"/>
      <path id="Trazado_1047298" data-name="Trazado 1047298" d="M47.075,62.358A1.074,1.074,0,0,1,46,61.282V58.363a1.075,1.075,0,0,1,2.151,0v2.919A1.074,1.074,0,0,1,47.075,62.358Z" transform="translate(3.396 4.323)"/>
      <path id="Trazado_1047299" data-name="Trazado 1047299" d="M47.038,64.153H19.075a1.075,1.075,0,0,1,0-2.151H47.038a1.075,1.075,0,0,1,0,2.151Z" transform="translate(1.283 4.679)"/>
      <path id="Trazado_1047300" data-name="Trazado 1047300" d="M27.075,53.4A1.074,1.074,0,0,1,26,52.32V48.877a1.075,1.075,0,0,1,2.151,0V52.32A1.074,1.074,0,0,1,27.075,53.4Z" transform="translate(1.887 3.607)"/>
      <path id="Trazado_1047301" data-name="Trazado 1047301" d="M37.075,53.394A1.074,1.074,0,0,1,36,52.319V48.877a1.075,1.075,0,0,1,2.151,0v3.441A1.074,1.074,0,0,1,37.075,53.394Z" transform="translate(2.641 3.607)"/>
      <path id="Trazado_1047302" data-name="Trazado 1047302" d="M32.906,51.983A12.92,12.92,0,0,1,20,39.077a1.075,1.075,0,0,1,2.151,0,10.755,10.755,0,1,0,21.509,0,1.075,1.075,0,0,1,2.151,0A12.92,12.92,0,0,1,32.906,51.983Z" transform="translate(1.434 2.868)"/>
      <path id="Trazado_1047303" data-name="Trazado 1047303" d="M21.075,40.833A1.074,1.074,0,0,1,20,39.758v-9.68a1.075,1.075,0,1,1,2.151,0v9.68A1.074,1.074,0,0,1,21.075,40.833Z" transform="translate(1.434 2.189)"/>
      <path id="Trazado_1047304" data-name="Trazado 1047304" d="M43.075,40.834A1.074,1.074,0,0,1,42,39.759V30.077a1.075,1.075,0,1,1,2.151,0v9.681A1.074,1.074,0,0,1,43.075,40.834Z" transform="translate(3.094 2.189)"/>
      <path id="Trazado_1047305" data-name="Trazado 1047305" d="M43.453,31.53a1.074,1.074,0,0,1-1.075-1.075,4.306,4.306,0,0,0-4.3-4.3,1.075,1.075,0,0,1,0-2.151,6.459,6.459,0,0,1,6.453,6.453A1.074,1.074,0,0,1,43.453,31.53Z" transform="translate(2.717 1.811)"/>
      <path id="Trazado_1047306" data-name="Trazado 1047306" d="M38.075,26.455A1.074,1.074,0,0,1,37,25.379v-4.3a1.075,1.075,0,1,1,2.151,0v4.3A1.074,1.074,0,0,1,38.075,26.455Z" transform="translate(2.717 1.51)"/>
      <path id="Trazado_1047307" data-name="Trazado 1047307" d="M38.679,22.153h-8.6a1.075,1.075,0,0,1,0-2.151h8.6a1.075,1.075,0,1,1,0,2.151Z" transform="translate(2.113 1.51)"/>
      <path id="Trazado_1047308" data-name="Trazado 1047308" d="M21.075,31.832A1.074,1.074,0,0,1,20,30.757,10.766,10.766,0,0,1,30.755,20a1.075,1.075,0,1,1,0,2.151,8.613,8.613,0,0,0-8.6,8.6A1.074,1.074,0,0,1,21.075,31.832Z" transform="translate(1.434 1.51)"/>
      <path id="Trazado_1047309" data-name="Trazado 1047309" d="M43.3,36.379a1.073,1.073,0,0,1-.76-.315l-3.226-3.226a1.075,1.075,0,1,1,1.521-1.521l3.226,3.226a1.075,1.075,0,0,1-.76,1.836Z" transform="translate(2.868 2.34)"/>
      <path id="Trazado_1047310" data-name="Trazado 1047310" d="M32.679,35.3a21.347,21.347,0,0,1-9.113-2.279,1.076,1.076,0,0,1,1.018-1.895,19.451,19.451,0,0,0,8.1,2.023,19.3,19.3,0,0,0,8.094-2.023,1.075,1.075,0,1,1,1.018,1.894,21.309,21.309,0,0,1-9.112,2.28Z" transform="translate(1.66 2.34)"/>
      <path id="Trazado_1047311" data-name="Trazado 1047311" d="M21.075,36.379a1.075,1.075,0,0,1-.76-1.836l3.226-3.226a1.075,1.075,0,0,1,1.521,1.521l-3.226,3.226a1.073,1.073,0,0,1-.76.315Z" transform="translate(1.434 2.34)"/>
      <path id="Trazado_1047312" data-name="Trazado 1047312" d="M29.226,55.3a1.073,1.073,0,0,1-.76-.315l-2.151-2.15a1.075,1.075,0,0,1,1.521-1.521l2.151,2.15a1.075,1.075,0,0,1-.76,1.836Z" transform="translate(1.887 3.849)"/>
      <path id="Trazado_1047313" data-name="Trazado 1047313" d="M29.075,55.228a1.076,1.076,0,0,1-.34-2.1l3.226-1.075a1.075,1.075,0,0,1,.681,2.04l-3.226,1.075a1.088,1.088,0,0,1-.341.056Z" transform="translate(2.038 3.924)"/>
      <path id="Trazado_1047314" data-name="Trazado 1047314" d="M35.075,55.3a1.075,1.075,0,0,1-.76-1.836l2.151-2.15a1.075,1.075,0,0,1,1.521,1.521l-2.151,2.15A1.073,1.073,0,0,1,35.075,55.3Z" transform="translate(2.49 3.849)"/>
      <path id="Trazado_1047315" data-name="Trazado 1047315" d="M35.3,55.228a1.076,1.076,0,0,1-.34-.056L31.736,54.1a1.075,1.075,0,1,1,.681-2.04l3.226,1.075a1.076,1.076,0,0,1-.341,2.1Z" transform="translate(2.264 3.924)"/>
      <path id="Trazado_1047316" data-name="Trazado 1047316" d="M45.075,64.3a1.075,1.075,0,1,1,0-2.151,1.076,1.076,0,0,0,1.075-1.075,1.075,1.075,0,0,1,2.151,0A3.23,3.23,0,0,1,45.075,64.3Z" transform="translate(3.245 4.528)"/>
      <path id="Trazado_1047317" data-name="Trazado 1047317" d="M19.226,64.3A3.23,3.23,0,0,1,16,61.077a1.075,1.075,0,0,1,2.151,0,1.076,1.076,0,0,0,1.075,1.075,1.075,1.075,0,0,1,0,2.151Z" transform="translate(1.132 4.528)"/>
      <path id="Trazado_1047318" data-name="Trazado 1047318" d="M32.106,59.153A1.075,1.075,0,0,1,32.094,57h.012a1.075,1.075,0,0,1,0,2.151Z" transform="translate(2.266 4.302)"/>
      <path id="Trazado_1047319" data-name="Trazado 1047319" d="M8.106,30.153A1.075,1.075,0,0,1,8.094,28h.012a1.075,1.075,0,0,1,0,2.151Z" transform="translate(0.455 2.113)"/>
      <path id="Trazado_1047320" data-name="Trazado 1047320" d="M8.528,40.058h0a7.529,7.529,0,1,1,7.53-7.529A7.537,7.537,0,0,1,8.526,40.058Zm0-12.907a5.378,5.378,0,1,0,5.377,5.377A5.384,5.384,0,0,0,8.528,27.151Z" transform="translate(0 1.887)"/>
      <path id="Trazado_1047321" data-name="Trazado 1047321" d="M8.075,36.379A1.074,1.074,0,0,1,7,35.3V32.075a1.075,1.075,0,0,1,2.151,0V35.3A1.074,1.074,0,0,1,8.075,36.379Z" transform="translate(0.453 2.34)"/>
      <path id="Trazado_1047322" data-name="Trazado 1047322" d="M17.3,33.153H14.076a1.075,1.075,0,0,1,0-2.151H17.3a1.075,1.075,0,0,1,0,2.151Z" transform="translate(0.906 2.34)"/>
      <path id="Trazado_1047323" data-name="Trazado 1047323" d="M56.106,30.153A1.075,1.075,0,0,1,56.094,28h.012a1.075,1.075,0,1,1,0,2.151Z" transform="translate(4.077 2.113)"/>
      <path id="Trazado_1047324" data-name="Trazado 1047324" d="M56.529,40.059a7.529,7.529,0,1,1,7.527-7.527A7.538,7.538,0,0,1,56.529,40.059Zm0-12.907a5.378,5.378,0,1,0,5.377,5.379A5.385,5.385,0,0,0,56.528,27.152Z" transform="translate(3.622 1.887)"/>
      <path id="Trazado_1047325" data-name="Trazado 1047325" d="M56.077,36.379A1.075,1.075,0,0,1,55,35.3V32.076a1.075,1.075,0,1,1,2.151,0V35.3A1.075,1.075,0,0,1,56.077,36.379Z" transform="translate(4.075 2.34)"/>
      <path id="Trazado_1047326" data-name="Trazado 1047326" d="M50.3,33.154H47.075a1.075,1.075,0,1,1,0-2.151H50.3a1.075,1.075,0,0,1,0,2.151Z" transform="translate(3.396 2.34)"/>
      <path id="Trazado_1047327" data-name="Trazado 1047327" d="M49.784,12.474a1.075,1.075,0,0,1-.012-2.151h.012a1.075,1.075,0,1,1,0,2.151Z" transform="translate(3.6 0.779)"/>
      <path id="Trazado_1047328" data-name="Trazado 1047328" d="M50.207,22.381a7.529,7.529,0,1,1,7.527-7.528A7.537,7.537,0,0,1,50.207,22.381Zm0-12.908a5.378,5.378,0,1,0,5.376,5.379A5.386,5.386,0,0,0,50.207,9.473Z" transform="translate(3.145 0.553)"/>
      <path id="Trazado_1047329" data-name="Trazado 1047329" d="M49.756,18.7a1.075,1.075,0,0,1-1.075-1.074l0-3.227a1.075,1.075,0,0,1,1.074-1.077h0A1.075,1.075,0,0,1,50.829,14.4l0,3.227A1.076,1.076,0,0,1,49.756,18.7Z" transform="translate(3.598 1.005)"/>
      <path id="Trazado_1047330" data-name="Trazado 1047330" d="M43.389,22a1.075,1.075,0,0,1-.76-1.836l2.282-2.28A1.075,1.075,0,1,1,46.432,19.4l-2.282,2.28A1.073,1.073,0,0,1,43.389,22Z" transform="translate(3.118 1.326)"/>
      <path id="Trazado_1047331" data-name="Trazado 1047331" d="M32.1,5.151A1.075,1.075,0,0,1,32.092,3H32.1a1.075,1.075,0,0,1,0,2.151Z" transform="translate(2.266 0.227)"/>
      <path id="Trazado_1047332" data-name="Trazado 1047332" d="M32.528,15.057a7.529,7.529,0,1,1,7.528-7.528A7.538,7.538,0,0,1,32.528,15.057Zm0-12.908a5.378,5.378,0,1,0,5.377,5.379A5.387,5.387,0,0,0,32.528,2.149Z" transform="translate(1.811)"/>
      <path id="Trazado_1047333" data-name="Trazado 1047333" d="M32.075,11.377A1.074,1.074,0,0,1,31,10.3V7.073a1.075,1.075,0,1,1,2.151,0V10.3A1.074,1.074,0,0,1,32.075,11.377Z" transform="translate(2.264 0.453)"/>
      <path id="Trazado_1047334" data-name="Trazado 1047334" d="M32.077,17.377A1.074,1.074,0,0,1,31,16.3V13.075a1.075,1.075,0,0,1,2.151,0V16.3A1.074,1.074,0,0,1,32.077,17.377Z" transform="translate(2.264 0.906)"/>
      <path id="Trazado_1047335" data-name="Trazado 1047335" d="M14.427,12.474a1.075,1.075,0,0,1-.012-2.151h.012a1.075,1.075,0,0,1,0,2.151Z" transform="translate(0.932 0.779)"/>
      <path id="Trazado_1047336" data-name="Trazado 1047336" d="M14.851,22.379a7.529,7.529,0,1,1,7.527-7.528A7.537,7.537,0,0,1,14.851,22.379Zm0-12.908a5.377,5.377,0,1,0,3.8,1.576A5.386,5.386,0,0,0,14.851,9.471Z" transform="translate(0.477 0.553)"/>
      <path id="Trazado_1047337" data-name="Trazado 1047337" d="M14.4,18.7a1.074,1.074,0,0,1-1.075-1.075V14.4a1.075,1.075,0,0,1,2.151,0v3.227A1.074,1.074,0,0,1,14.4,18.7Z" transform="translate(0.93 1.005)"/>
      <path id="Trazado_1047338" data-name="Trazado 1047338" d="M20.924,22a1.073,1.073,0,0,1-.76-.315L17.882,19.4A1.075,1.075,0,0,1,19.4,17.88l2.281,2.281A1.075,1.075,0,0,1,20.924,22Z" transform="translate(1.25 1.326)"/>
    </g>
  </g>
</svg>
