<svg xmlns="http://www.w3.org/2000/svg" xmlns:xlink="http://www.w3.org/1999/xlink" width="118" height="118" viewBox="0 0 118 118">
  <defs>
    <filter id="Trazado_982547" x="0" y="0" width="118" height="118" filterUnits="userSpaceOnUse">
      <feOffset dy="3" input="SourceAlpha"/>
      <feGaussianBlur stdDeviation="3" result="blur"/>
      <feFlood flood-opacity="0.161"/>
      <feComposite operator="in" in2="blur"/>
      <feComposite in="SourceGraphic"/>
    </filter>
  </defs>
  <g id="Grupo_1202337" data-name="Grupo 1202337" transform="translate(-1160.796 -2239.033)">
    <g id="Grupo_1201992" data-name="Grupo 1201992" transform="translate(1169.796 2245.033)">
      <g id="Grupo_1201680" data-name="Grupo 1201680">
        <g id="Grupo_1201330" data-name="Grupo 1201330">
          <g id="Grupo_1172010" data-name="Grupo 1172010">
            <g id="Grupo_1171046" data-name="Grupo 1171046">
              <g id="Grupo_1148525" data-name="Grupo 1148525">
                <g transform="matrix(1, 0, 0, 1, -9, -6)" filter="url(#Trazado_982547)">
                  <g id="Trazado_982547-2" data-name="Trazado 982547" transform="translate(9 6)" fill="#fdfbec">
                    <path d="M 50 98.5 C 43.45188522338867 98.5 37.10042953491211 97.21787261962891 31.12207221984863 94.68923950195312 C 25.34691429138184 92.24655914306641 20.15997123718262 88.74931335449219 15.70532894134521 84.29468536376953 C 11.2506856918335 79.84004211425781 7.753442764282227 74.65309906005859 5.310757160186768 68.8779296875 C 2.782128572463989 62.89957046508789 1.5 56.54811477661133 1.5 50 C 1.5 43.45188522338867 2.782128572463989 37.10042953491211 5.310757160186768 31.12207221984863 C 7.753442764282227 25.34691429138184 11.2506856918335 20.15997123718262 15.70532894134521 15.70532894134521 C 20.15997123718262 11.2506856918335 25.34691429138184 7.753442764282227 31.12207221984863 5.310757160186768 C 37.10042953491211 2.782128572463989 43.45188522338867 1.5 50 1.5 C 56.54811477661133 1.5 62.89957046508789 2.782128572463989 68.8779296875 5.310757160186768 C 74.65309906005859 7.753442764282227 79.84004211425781 11.2506856918335 84.29468536376953 15.70532894134521 C 88.74931335449219 20.15997123718262 92.24655914306641 25.34691429138184 94.68923950195312 31.12207221984863 C 97.21787261962891 37.10042953491211 98.5 43.45188522338867 98.5 50 C 98.5 56.54811477661133 97.21787261962891 62.89957046508789 94.68923950195312 68.8779296875 C 92.24655914306641 74.65309906005859 88.74931335449219 79.84004211425781 84.29468536376953 84.29468536376953 C 79.84004211425781 88.74931335449219 74.65309906005859 92.24655914306641 68.8779296875 94.68923950195312 C 62.89957046508789 97.21787261962891 56.54811477661133 98.5 50 98.5 Z" stroke="none"/>
                    <path d="M 50 3 C 43.65372467041016 3 37.49886322021484 4.242263793945312 31.70639801025391 6.6922607421875 C 26.11003112792969 9.059326171875 21.08335113525391 12.44861602783203 16.76598358154297 16.76598358154297 C 12.44861602783203 21.08335113525391 9.059326171875 26.11003112792969 6.6922607421875 31.70639801025391 C 4.242263793945312 37.49886322021484 3 43.65372467041016 3 50 C 3 56.34627532958984 4.242263793945312 62.50113677978516 6.6922607421875 68.29360198974609 C 9.059326171875 73.88996887207031 12.44861602783203 78.91666412353516 16.76598358154297 83.23401641845703 C 21.08335113525391 87.55138397216797 26.11003112792969 90.940673828125 31.70639801025391 93.3077392578125 C 37.49886322021484 95.75773620605469 43.65372467041016 97 50 97 C 56.34627532958984 97 62.50113677978516 95.75773620605469 68.29360198974609 93.3077392578125 C 73.88996887207031 90.940673828125 78.91666412353516 87.55138397216797 83.23401641845703 83.23401641845703 C 87.55138397216797 78.91666412353516 90.940673828125 73.88996887207031 93.3077392578125 68.29360198974609 C 95.75773620605469 62.50113677978516 97 56.34627532958984 97 50 C 97 43.65372467041016 95.75773620605469 37.49886322021484 93.3077392578125 31.70639801025391 C 90.940673828125 26.11003112792969 87.55138397216797 21.08335113525391 83.23401641845703 16.76598358154297 C 78.91666412353516 12.44861602783203 73.88996887207031 9.059326171875 68.29360198974609 6.6922607421875 C 62.50113677978516 4.242263793945312 56.34627532958984 3 50 3 M 50 0 C 77.61424255371094 0 100 22.38577270507812 100 50 C 100 77.61424255371094 77.61424255371094 100 50 100 C 22.38577270507812 100 0 77.61424255371094 0 50 C 0 22.38577270507812 22.38577270507812 0 50 0 Z" stroke="none" fill="#83793c"/>
                  </g>
                </g>
              </g>
            </g>
          </g>
        </g>
      </g>
    </g>
    <g id="Layer_31" data-name="Layer 31" transform="translate(1190.251 2265.488)">
      <path id="Trazado_1047351" data-name="Trazado 1047351" d="M18,23h5.54v3.693a1.847,1.847,0,0,1-1.847,1.847H19.847A1.847,1.847,0,0,1,18,26.693Z" transform="translate(-1.381 -1.764)" fill="#fbc5aa"/>
      <path id="Trazado_1047352" data-name="Trazado 1047352" d="M16,19h5.54a1.847,1.847,0,0,1,1.847,1.847v1.847h-5.54A1.847,1.847,0,0,1,16,20.847Z" transform="translate(-1.227 -1.458)" fill="#4d4d4d"/>
      <path id="Trazado_1047353" data-name="Trazado 1047353" d="M17.693,29h5.54a3.693,3.693,0,0,1,3.693,3.693V43.773H14V32.693A3.693,3.693,0,0,1,17.693,29Z" transform="translate(-1.074 -2.225)" fill="#1c6ec9"/>
      <path id="Trazado_1047354" data-name="Trazado 1047354" d="M24.056,29.108a3.669,3.669,0,0,1,.1.824v3.693a7.386,7.386,0,0,1-7.386,7.386H14v2.77H26.926V32.7A3.693,3.693,0,0,0,24.056,29.108Z" transform="translate(-1.074 -2.233)" fill="#075daa"/>
      <path id="Trazado_1047355" data-name="Trazado 1047355" d="M39.693,29h5.54a3.693,3.693,0,0,1,3.693,3.693V43.773H36V32.693A3.693,3.693,0,0,1,39.693,29Z" transform="translate(-2.762 -2.225)" fill="#1c6ec9"/>
      <path id="Trazado_1047356" data-name="Trazado 1047356" d="M48.079,28.233H37l.506-5.909A3.4,3.4,0,0,1,40.656,19h3.767a3.4,3.4,0,0,1,3.15,3.324Z" transform="translate(-2.838 -1.458)" fill="#4d4d4d"/>
      <rect id="Rectángulo_417780" data-name="Rectángulo 417780" width="6" height="5" rx="2" transform="translate(36.545 21.545)" fill="#fbc5aa"/>
      <path id="Trazado_1047357" data-name="Trazado 1047357" d="M29,28h5.54v3.693a1.847,1.847,0,0,1-1.847,1.847H30.847A1.847,1.847,0,0,1,29,31.693Z" transform="translate(-2.225 -2.148)" fill="#fbc5aa"/>
      <path id="Trazado_1047358" data-name="Trazado 1047358" d="M30.847,24h1.847a1.847,1.847,0,0,1,1.847,1.847v1.847H29V25.847A1.847,1.847,0,0,1,30.847,24Z" transform="translate(-2.225 -1.841)" fill="#4d4d4d"/>
      <path id="Trazado_1047359" data-name="Trazado 1047359" d="M28.693,34h5.54a3.693,3.693,0,0,1,3.693,3.693v6.463H25V37.693A3.693,3.693,0,0,1,28.693,34Z" transform="translate(-1.918 -2.608)" fill="#8eb7e4"/>
      <path id="Trazado_1047360" data-name="Trazado 1047360" d="M0,49H17.542V61.926H0Z" transform="translate(0 -3.759)" fill="gray"/>
      <path id="Trazado_1047361" data-name="Trazado 1047361" d="M19,50h3.693V61.079H19Z" transform="translate(-1.458 -3.836)" fill="#fff"/>
      <path id="Trazado_1047362" data-name="Trazado 1047362" d="M45.344,60.556l6.648-6.481a1.817,1.817,0,0,0,0-2.611l-.162-.159a1.939,1.939,0,0,0-2.678,0L44.8,55.54v-.923a1.872,1.872,0,0,0-1.9-1.847H34.375a3.43,3.43,0,0,1-1.9-.923A6.941,6.941,0,0,0,27.741,50,6.048,6.048,0,0,0,23,52.123v6.832a6.048,6.048,0,0,0,4.741,2.124h16.31A1.852,1.852,0,0,0,45.344,60.556Z" transform="translate(-1.764 -3.836)" fill="#fbc5aa"/>
      <path id="Trazado_1047363" data-name="Trazado 1047363" d="M51.991,51.545l-.162-.159a1.868,1.868,0,0,0-.493-.336,1.807,1.807,0,0,1-.268.336L44.42,57.867a1.852,1.852,0,0,1-1.293.524H26.818A6.32,6.32,0,0,1,23,57.159v1.877a6.048,6.048,0,0,0,4.741,2.124h16.31a1.852,1.852,0,0,0,1.293-.524l6.648-6.481a1.817,1.817,0,0,0,0-2.611Z" transform="translate(-1.764 -3.916)" fill="#f7ad8d"/>
      <path id="Trazado_1047364" data-name="Trazado 1047364" d="M0,0H17.542V12.926H0Z" transform="translate(59.09 13.849) rotate(180)" fill="gray"/>
      <path id="Trazado_1047365" data-name="Trazado 1047365" d="M60.7,1V3.77a7.386,7.386,0,0,1-7.386,7.386H45v2.77H62.542V1Z" transform="translate(-3.452 -0.077)" fill="#6b6a69"/>
      <path id="Trazado_1047366" data-name="Trazado 1047366" d="M0,0H3.693V11.079H0Z" transform="translate(41.548 12.926) rotate(180)" fill="#fff"/>
      <path id="Trazado_1047367" data-name="Trazado 1047367" d="M16.2,2.523,9.554,9a1.817,1.817,0,0,0,0,2.611l.162.159a1.939,1.939,0,0,0,2.678,0l4.35-4.234v.923a1.872,1.872,0,0,0,1.9,1.847H27.17a3.43,3.43,0,0,1,1.9.923A6.941,6.941,0,0,0,33.8,13.079a6.048,6.048,0,0,0,4.741-2.124V4.123A6.048,6.048,0,0,0,33.8,2H17.494a1.852,1.852,0,0,0-1.293.524Z" transform="translate(-0.69 -0.153)" fill="#fbc5aa"/>
      <path id="Trazado_1047368" data-name="Trazado 1047368" d="M37.377,2.323V6.37A4.832,4.832,0,0,1,32.7,11.258h-.06a7.411,7.411,0,0,1-2.751-.56,3.314,3.314,0,0,1,.783.56A6.941,6.941,0,0,0,35.406,13.1a6.048,6.048,0,0,0,4.741-2.124V4.148a5.681,5.681,0,0,0-2.77-1.825Z" transform="translate(-2.293 -0.178)" fill="#f7ad8d"/>
      <path id="Trazado_1047369" data-name="Trazado 1047369" d="M15,51h1.847v1.847H15Z" transform="translate(-1.151 -3.912)"/>
      <path id="Trazado_1047370" data-name="Trazado 1047370" d="M12,51h1.847v1.847H12Z" transform="translate(-0.921 -3.912)"/>
      <path id="Trazado_1047371" data-name="Trazado 1047371" d="M47,11h1.847v1.847H47Z" transform="translate(-3.606 -0.844)"/>
      <path id="Trazado_1047372" data-name="Trazado 1047372" d="M50,11h1.847v1.847H50Z" transform="translate(-3.836 -0.844)"/>
      <path id="Trazado_1047373" data-name="Trazado 1047373" d="M41,11h3.693v1.847H41Z" transform="translate(-3.145 -0.844)" fill="#e8e5e3"/>
      <path id="Trazado_1047374" data-name="Trazado 1047374" d="M59.7,0H42.162a.923.923,0,0,0-.923.923h-2.77a.923.923,0,0,0-.923.923v.12A7.313,7.313,0,0,0,33.732.923H17.418a2.731,2.731,0,0,0-1.93.785L8.831,8.19a2.742,2.742,0,0,0,0,3.933L9,12.28a2.855,2.855,0,0,0,3.97,0l2.991-2.908a2.831,2.831,0,0,0,2.6,1.708h8.531a2.672,2.672,0,0,1,1.228.637,7.817,7.817,0,0,0,5.41,2.133,7.313,7.313,0,0,0,3.813-1.043v.12a.923.923,0,0,0,.923.923h2.77a.923.923,0,0,0,.923.923H59.7V12.926H43.085V1.847H59.7ZM37.545,10.461A5.223,5.223,0,0,1,33.732,12a6.042,6.042,0,0,1-4.072-1.56,4.331,4.331,0,0,0-2.567-1.21H18.562a.948.948,0,0,1-.969-.923V7.775l.113-.109a1,1,0,0,1,.7-.277h9.911V5.54H18.4a2.829,2.829,0,0,0-1.985.8l-.38.369-.013.008-4.349,4.238a1.016,1.016,0,0,1-1.394,0l-.157-.157a.893.893,0,0,1,0-1.293l6.648-6.481a.939.939,0,0,1,.646-.258H33.732a5.223,5.223,0,0,1,3.813,1.542ZM41.238,12H39.392V2.77h1.847Z" transform="translate(-0.614)"/>
      <path id="Trazado_1047375" data-name="Trazado 1047375" d="M19,59h3.693v2.77H19Z" transform="translate(-1.458 -4.526)" fill="#e8e5e3"/>
      <path id="Trazado_1047376" data-name="Trazado 1047376" d="M0,60H17.542v2.77H0Z" transform="translate(0 -4.603)" fill="#6b6a69"/>
      <path id="Trazado_1047377" data-name="Trazado 1047377" d="M50.707,50.493a2.855,2.855,0,0,0-3.97,0L43.745,53.4a2.831,2.831,0,0,0-2.6-1.708H32.61a2.672,2.672,0,0,1-1.228-.637,7.817,7.817,0,0,0-5.41-2.133,7.313,7.313,0,0,0-3.813,1.043v-.12a.923.923,0,0,0-.923-.923h-2.77A.923.923,0,0,0,17.542,48H0v1.847H16.619V60.926H0v1.847H17.542a.923.923,0,0,0,.923-.923h2.77a.923.923,0,0,0,.923-.923v-.12a7.313,7.313,0,0,0,3.813,1.043H42.287a2.731,2.731,0,0,0,1.93-.785l6.657-6.481a2.742,2.742,0,0,0,0-3.933ZM20.312,51.97V60H18.466V50.77h1.847ZM49.58,53.263l-6.648,6.481a.939.939,0,0,1-.646.259H25.972a5.223,5.223,0,0,1-3.813-1.542V52.312a5.223,5.223,0,0,1,3.813-1.542,6.042,6.042,0,0,1,4.072,1.56,4.331,4.331,0,0,0,2.567,1.21h8.531a.948.948,0,0,1,.969.923V55L42,55.107a1,1,0,0,1-.7.277H31.392V57.23H41.3a2.829,2.829,0,0,0,1.985-.8l.377-.369c.006,0,.012-.007.017-.012l4.349-4.238a1.016,1.016,0,0,1,1.394,0l.157.157a.893.893,0,0,1,0,1.293Z" transform="translate(0 -3.682)"/>
      <path id="Trazado_1047378" data-name="Trazado 1047378" d="M46.056,29.108a3.669,3.669,0,0,1,.1.824v3.693a7.386,7.386,0,0,1-7.386,7.386H36v2.77H48.926V32.7a3.693,3.693,0,0,0-2.87-3.593Z" transform="translate(-2.762 -2.233)" fill="#075daa"/>
      <path id="Trazado_1047379" data-name="Trazado 1047379" d="M35.056,34.108a3.669,3.669,0,0,1,.1.824,6.463,6.463,0,0,1-6.463,6.463H25v2.77H37.926V37.7A3.693,3.693,0,0,0,35.056,34.108Z" transform="translate(-1.918 -2.617)" fill="#7aa6ce"/>
      <path id="Trazado_1047380" data-name="Trazado 1047380" d="M46.922,28.784a.957.957,0,0,0,.24-.711l-.508-5.9A4.3,4.3,0,0,0,42.582,18H38.815a4.3,4.3,0,0,0-4.072,4.173l-.508,5.9V25.386a2.778,2.778,0,0,0-2.77-2.77H29.619a2.778,2.778,0,0,0-2.77,2.77v3.693A4.585,4.585,0,0,0,23.886,27.3a2.514,2.514,0,0,0,.194-.988V20.77A2.778,2.778,0,0,0,21.31,18H15.77a.923.923,0,0,0-.923.923V20.77a2.77,2.77,0,0,0,1.847,2.6V26.31a2.514,2.514,0,0,0,.194.988A4.6,4.6,0,0,0,13,31.849V42.929a.923.923,0,0,0,.923.923H47.162a.923.923,0,0,0,.923-.923V31.849a4.639,4.639,0,0,0-1.163-3.065ZM36.581,22.33a2.493,2.493,0,0,1,2.234-2.484h3.767a2.493,2.493,0,0,1,2.234,2.484l.415,4.9H44.226a2.559,2.559,0,0,0,.166-.923V24.463a2.778,2.778,0,0,0-2.77-2.77H39.775a2.778,2.778,0,0,0-2.77,2.77V26.31a2.559,2.559,0,0,0,.166.923H36.165Zm5.964,2.133V26.31a.923.923,0,0,1-.923.923H39.775a.923.923,0,0,1-.923-.923V24.463a.923.923,0,0,1,.923-.923h1.847A.923.923,0,0,1,42.545,24.463Zm-8.31,3.684a.959.959,0,0,0,.24.637,3.722,3.722,0,0,0-.24.3ZM28.7,25.386a.923.923,0,0,1,.923-.923h1.847a.923.923,0,0,1,.923.923v.923H28.7Zm0,2.77h3.693v2.77a.923.923,0,0,1-.923.923H29.619a.923.923,0,0,1-.923-.923Zm-12-7.386v-.923H21.31a.923.923,0,0,1,.923.923v.923H17.616A.923.923,0,0,1,16.693,20.77Zm5.54,2.77v2.77a.923.923,0,0,1-.923.923H19.463a.923.923,0,0,1-.923-.923V23.54Zm.923,18.466h-5.54V32.773H15.77v9.233h-.923V31.849a2.778,2.778,0,0,1,2.77-2.77h5.54a2.778,2.778,0,0,1,2.77,2.77v.379a4.857,4.857,0,0,0-.923.545H23.156Zm12.926,0h-.923V37.389H33.312v4.616h-5.54V37.389H25.926v4.616H25v-5.54a2.78,2.78,0,0,1,2.77-2.77h5.54a2.78,2.78,0,0,1,2.77,2.77Zm10.156,0h-.923V32.773H43.468v9.233h-5.54V32.773H36.082a4.857,4.857,0,0,0-.923-.545v-.379a2.778,2.778,0,0,1,2.77-2.77h5.54a2.778,2.778,0,0,1,2.77,2.77Z" transform="translate(-0.997 -1.381)"/>
    </g>
  </g>
</svg>
