<svg xmlns="http://www.w3.org/2000/svg" width="190" height="80.665" viewBox="0 0 190 80.665">
  <g id="Grupo_1202345" data-name="Grupo 1202345" transform="translate(-1229.796 -286.335)">
    <g id="Grupo_1202055" data-name="Grupo 1202055">
      <rect id="Rect치ngulo_417636" data-name="Rect치ngulo 417636" width="190" height="55" rx="3" transform="translate(1229.796 301)" fill="#453179"/>
      <rect id="Rect치ngulo_417637" data-name="Rect치ngulo 417637" width="144" height="77" rx="3" transform="translate(1252.796 290)" fill="#6ae2f6"/>
    </g>
    <g id="crying_3890936_1_" data-name="crying_3890936 (1)" transform="translate(1263.559 286.335)">
      <path id="Trazado_1047381" data-name="Trazado 1047381" d="M109.709,55.343A61.161,61.161,0,0,0,134.7,49.805a4.175,4.175,0,0,0,2.134-5.129c-1.139-3.252-.375-8.19-.375-15.5,0-12.64-9.962-26.1-26.091-20.21a1.928,1.928,0,0,1-1.322,0c-16.129-5.892-26.091,7.571-26.091,20.21,0,7.306.764,12.243-.375,15.5a4.175,4.175,0,0,0,2.134,5.129,61.16,61.16,0,0,0,24.993,5.537Z" transform="translate(-48.472 -6.356)" fill="#565e75"/>
      <path id="Trazado_1047382" data-name="Trazado 1047382" d="M102.9,263.993a4.407,4.407,0,0,1,.955-6.159c5.172-3.783,8.244-10.751,13.627-14.05a4.407,4.407,0,0,1,4.606,7.515c-3.327,2.039-6.9,9.163-13.028,13.649a4.408,4.408,0,0,1-6.159-.955Z" transform="translate(-65.07 -204.831)" fill="#939597"/>
      <path id="Trazado_1047383" data-name="Trazado 1047383" d="M105.313,328.885a18.3,18.3,0,0,1-1.456,1.192,4.407,4.407,0,1,0,5.2,7.114c.628-.46,1.228-.948,1.805-1.455A15.675,15.675,0,0,0,105.313,328.885Z" transform="translate(-65.07 -277.074)" fill="#c99b80"/>
      <path id="Trazado_1047384" data-name="Trazado 1047384" d="M290.728,263.993a4.407,4.407,0,0,0-.955-6.159c-5.172-3.783-8.244-10.751-13.627-14.05a4.407,4.407,0,0,0-4.606,7.515c3.327,2.039,6.9,9.163,13.028,13.649a4.408,4.408,0,0,0,6.159-.955Z" transform="translate(-206.086 -204.831)" fill="#939597"/>
      <path id="Trazado_1047385" data-name="Trazado 1047385" d="M359.591,328.885a18.29,18.29,0,0,0,1.456,1.192,4.407,4.407,0,1,1-5.2,7.114c-.628-.46-1.228-.948-1.805-1.455A15.675,15.675,0,0,1,359.591,328.885Z" transform="translate(-277.36 -277.074)" fill="#c99b80"/>
      <path id="Trazado_1047386" data-name="Trazado 1047386" d="M202.044,245.528a11.741,11.741,0,0,0,1.478-5.718v-9.036a9.494,9.494,0,0,0-9.494-9.494h-4.607a9.494,9.494,0,0,0-9.494,9.494v9.036a11.743,11.743,0,0,0,1.478,5.718,95.069,95.069,0,0,0-1.7,15.969,4.407,4.407,0,1,0,8.814,0,93.994,93.994,0,0,1,.815-10.133,11.892,11.892,0,0,0,4.787,0,93.961,93.961,0,0,1,.815,10.133,4.407,4.407,0,0,0,8.814,0,95.066,95.066,0,0,0-1.7-15.97Z" transform="translate(-130.488 -186.422)" fill="#d4d5d5"/>
      <path id="Trazado_1047387" data-name="Trazado 1047387" d="M196.092,221.281h-4.607a9.5,9.5,0,0,0-9.334,7.763,32.383,32.383,0,0,0,23.275,0A9.5,9.5,0,0,0,196.092,221.281Z" transform="translate(-132.552 -186.422)" fill="#939597"/>
      <path id="Trazado_1047388" data-name="Trazado 1047388" d="M179.984,346.226a11.727,11.727,0,0,0,1.422,4.564,95.067,95.067,0,0,0-1.7,15.97,4.407,4.407,0,1,0,8.814,0,93.994,93.994,0,0,1,.815-10.133,11.894,11.894,0,0,0,4.787,0,93.964,93.964,0,0,1,.815,10.133,4.407,4.407,0,0,0,8.814,0,95.054,95.054,0,0,0-1.7-15.97,11.729,11.729,0,0,0,1.422-4.564Z" transform="translate(-130.488 -291.683)" fill="#939597"/>
      <path id="Trazado_1047389" data-name="Trazado 1047389" d="M188.515,462.918c0-.491.015-1.05.041-1.655-2.528-.993-6.78-1-8.782-.777-.048.927-.074,1.757-.074,2.432a4.407,4.407,0,1,0,8.814,0Z" transform="translate(-130.488 -387.842)" fill="#fbf2b8"/>
      <path id="Trazado_1047390" data-name="Trazado 1047390" d="M276.169,462.918a4.407,4.407,0,0,0,8.814,0c0-.675-.026-1.505-.074-2.432-2-.227-6.254-.216-8.782.777C276.155,461.868,276.169,462.427,276.169,462.918Z" transform="translate(-211.724 -387.841)" fill="#fbf2b8"/>
      <ellipse id="Elipse_12900" data-name="Elipse 12900" cx="21.15" cy="17.253" rx="21.15" ry="17.253" transform="translate(40.087 6.342)" fill="#c99b80"/>
      <g id="Grupo_1202343" data-name="Grupo 1202343" transform="translate(44.079 24.284)">
        <g id="Grupo_1202342" data-name="Grupo 1202342">
          <g id="Grupo_1202341" data-name="Grupo 1202341">
            <g id="Grupo_1202339" data-name="Grupo 1202339">
              <ellipse id="Elipse_12901" data-name="Elipse 12901" cx="4.624" cy="3.683" rx="4.624" ry="3.683" fill="#f1bdc4"/>
            </g>
            <g id="Grupo_1202340" data-name="Grupo 1202340" transform="translate(25.066)">
              <ellipse id="Elipse_12902" data-name="Elipse 12902" cx="4.624" cy="3.683" rx="4.624" ry="3.683" fill="#f1bdc4"/>
            </g>
          </g>
        </g>
      </g>
      <path id="Trazado_1047391" data-name="Trazado 1047391" d="M148.617,19.45c10.817-3.568,17.307,5.121,19.1,10.492a1.2,1.2,0,0,1-1.184,1.579c-4.913-.132-14.1-3.594-18.027-5.951a1.991,1.991,0,0,0-2.049,0c-3.936,2.361-13.148,5.832-18.053,5.952a1.2,1.2,0,0,1-1.157-1.579c1.789-5.371,8.278-14.06,19.1-10.492A3.634,3.634,0,0,0,148.617,19.45Z" transform="translate(-86.241 -15.683)" fill="#565e75"/>
      <g id="Grupo_1202344" data-name="Grupo 1202344" transform="translate(25.994 24.621)">
        <path id="Trazado_1047392" data-name="Trazado 1047392" d="M39.074,158.711a6.156,6.156,0,0,0,.035,8.741,6.271,6.271,0,0,0,9.187-.6c1.958-2.344,1.743-4.713,4.01-6.738a1.66,1.66,0,0,0-.51-2.793C47.12,155.577,41.749,156.037,39.074,158.711Z" transform="translate(-36.489 -156.287)" fill="#f5df4d"/>
        <path id="Trazado_1047393" data-name="Trazado 1047393" d="M32.311,325.2a6.156,6.156,0,0,0,6.206,6.156,6.271,6.271,0,0,0,6.072-6.921c-.273-3.042-2.1-4.565-1.929-7.6a1.66,1.66,0,0,0-2.335-1.615C35.784,317.3,32.311,321.419,32.311,325.2Z" transform="translate(-32.311 -290.058)" fill="#f5df4d"/>
        <path id="Trazado_1047394" data-name="Trazado 1047394" d="M413.933,325.2a6.156,6.156,0,0,1-6.206,6.156,6.271,6.271,0,0,1-6.072-6.921c.273-3.042,2.1-4.565,1.93-7.6a1.66,1.66,0,0,1,2.335-1.615C410.46,317.3,413.933,321.419,413.933,325.2Z" transform="translate(-343.449 -290.058)" fill="#f5df4d"/>
        <path id="Trazado_1047395" data-name="Trazado 1047395" d="M389.578,158.711a6.156,6.156,0,0,1-.035,8.741,6.271,6.271,0,0,1-9.187-.6c-1.958-2.344-1.743-4.713-4.01-6.738a1.66,1.66,0,0,1,.51-2.793C381.532,155.577,386.9,156.037,389.578,158.711Z" transform="translate(-321.678 -156.287)" fill="#f5df4d"/>
      </g>
      <path id="Trazado_1047396" data-name="Trazado 1047396" d="M88.957,48.71a2.841,2.841,0,0,0-4.006,2.755,5.591,5.591,0,0,1-.036,1.028,27.218,27.218,0,0,1-5.271-5.222,52.879,52.879,0,0,0,7.1-2.757,5.349,5.349,0,0,0,2.942-5.821,7.142,7.142,0,0,0,5-2.065c4.006-3.943,2.747-11.7-5.521-13.015q0-.4,0-.788c0-7.476-3.336-15.328-9.457-19.609C76.128.708,70.057-1.623,61.492,1.5a.745.745,0,0,1-.511,0C54.636-.813,48.657-.433,43.693,2.6A1.181,1.181,0,0,0,44.926,4.62c4.328-2.648,9.6-2.958,15.244-.9a3.114,3.114,0,0,0,2.133,0c6.022-2.2,11.575-1.706,16.056,1.427,5.132,3.589,8.448,10.526,8.448,17.673q0,.3,0,.608a16.969,16.969,0,0,0-3.239.323,15.925,15.925,0,0,0-2.434-8.547,1.182,1.182,0,0,0-.957-.559c-4.775-.193-13.652-3.584-17.306-5.776a3.167,3.167,0,0,0-3.265,0C55.95,11.066,47.073,14.457,42.3,14.65a1.182,1.182,0,0,0-.957.559,15.72,15.72,0,0,0-2.434,8.547,16.969,16.969,0,0,0-3.239-.323q0-.307,0-.608a22.9,22.9,0,0,1,5.226-14.73,1.182,1.182,0,1,0-1.8-1.536A25.3,25.3,0,0,0,33.3,22.825c0,.259,0,.521,0,.788a10.021,10.021,0,0,0-5.563,2.6h0a7.333,7.333,0,0,0,.042,10.418,7.143,7.143,0,0,0,5,2.065,5.349,5.349,0,0,0,2.942,5.821,52.858,52.858,0,0,0,7.1,2.757,27.128,27.128,0,0,1-5.272,5.221,5.6,5.6,0,0,1-.036-1.026,2.841,2.841,0,0,0-4.006-2.756c-5.125,2.341-8.7,6.887-8.7,11.054A7.335,7.335,0,0,0,32.15,67.1h.06a7.338,7.338,0,0,0,6.971-5.4,5.56,5.56,0,0,0,5.508-.627,30.766,30.766,0,0,0,4.184-3.741,12.939,12.939,0,0,0,.795,1.941,100.043,100.043,0,0,0-1.634,15.806,5.589,5.589,0,1,0,11.177,0,87.548,87.548,0,0,1,.656-8.78,13.141,13.141,0,0,0,2.742,0,87.6,87.6,0,0,1,.656,8.78,5.589,5.589,0,1,0,11.177,0A100.043,100.043,0,0,0,72.808,59.27a12.924,12.924,0,0,0,.795-1.942,30.767,30.767,0,0,0,4.183,3.742,5.553,5.553,0,0,0,5.507.626,7.391,7.391,0,0,0,6.287,5.368,1.182,1.182,0,1,0,.241-2.351,5.113,5.113,0,0,1-4.442-5.608c.251-2.8,2.122-4.394,1.932-7.772a.478.478,0,0,1,.665-.474c4.243,1.938,7.322,5.683,7.322,8.9a4.96,4.96,0,0,1-1.316,3.37,1.182,1.182,0,0,0,1.738,1.6,7.316,7.316,0,0,0,1.941-4.972c0-4.168-3.58-8.714-8.7-11.055ZM32.19,64.739h-.04a4.971,4.971,0,0,1-4.974-4.974c0-3.222,3.08-6.967,7.322-8.9a.478.478,0,0,1,.665.474c-.189,3.376,1.682,4.979,1.932,7.772A5.09,5.09,0,0,1,32.19,64.739ZM81.584,26.762a15.2,15.2,0,0,1,5.259-.966,8.814,8.814,0,0,1,6.215,2.085h0a4.971,4.971,0,0,1-.029,7.063,5.091,5.091,0,0,1-7.452-.516c-1.8-2.154-1.607-4.607-4.129-6.862a.478.478,0,0,1,.135-.805ZM29.443,34.944a4.972,4.972,0,0,1-.029-7.063h0A8.813,8.813,0,0,1,35.63,25.8a15.206,15.206,0,0,1,5.259.966.478.478,0,0,1,.135.805c-2.529,2.261-2.325,4.7-4.129,6.862A5.09,5.09,0,0,1,29.443,34.944Zm13.85,24.219a3.208,3.208,0,0,1-3.828-.017,11.386,11.386,0,0,0-1.023-3.9,3.2,3.2,0,0,1,1.041-1.294c.286-.209.564-.428.837-.653a16.1,16.1,0,0,1,4.062,5.012Q43.839,58.762,43.293,59.163ZM46.2,56.678a18.812,18.812,0,0,0-4.123-4.991c2.258-2.292,4.105-4.938,6.183-7.371,0,.012,0,.025,0,.037.015,9.286-.034,9.138.044,10.092C47.579,55.269,46.882,56.009,46.2,56.678Zm3.044-16.8a43.708,43.708,0,0,0-4.823,5.408,51.624,51.624,0,0,1-7.663-2.9,2.985,2.985,0,0,1-1.532-3.675c.051-.145.1-.3.143-.451a7.685,7.685,0,0,0,3.34-2.316,15.393,15.393,0,0,0,2.262-4.234,18.675,18.675,0,0,0,8.452,7.8Q49.329,39.689,49.242,39.876Zm7.6,35.2a3.226,3.226,0,1,1-6.451,0c0-.4.009-.851.026-1.337a22.8,22.8,0,0,1,6.436.528c-.007.284-.011.555-.011.81ZM64.8,64.79a1.182,1.182,0,0,0-1.41-1,10.757,10.757,0,0,1-4.31,0,1.182,1.182,0,0,0-1.41,1c-.264,2.025-.542,4.7-.7,7.07a25.71,25.71,0,0,0-6.43-.492,87.4,87.4,0,0,1,1.522-11.981,1.182,1.182,0,0,0-.115-.854,10.578,10.578,0,0,1-1.069-2.809H71.592a10.573,10.573,0,0,1-1.069,2.809,1.181,1.181,0,0,0-.115.854,87.4,87.4,0,0,1,1.522,11.98,25.717,25.717,0,0,0-6.43.493c-.157-2.367-.434-5.044-.7-7.07ZM50.621,53.361V44.354a8.262,8.262,0,0,1,.988-3.93,29.61,29.61,0,0,0,19.256,0,8.262,8.262,0,0,1,.988,3.931v9.008ZM68.853,78.3a3.229,3.229,0,0,1-3.226-3.226c0-.255,0-.526-.011-.81a22.81,22.81,0,0,1,6.436-.528c.017.486.026.937.026,1.338A3.229,3.229,0,0,1,68.853,78.3ZM61.237,39.666c-8.878,0-15.985-3.9-18.756-10.228.039-.037.077-.073.117-.109a2.841,2.841,0,0,0-.884-4.781c-.141-.053-.282-.1-.424-.151a13.306,13.306,0,0,1,1.754-7.427c5.389-.457,14.109-3.87,17.776-6.069a.808.808,0,0,1,.833,0c3.667,2.2,12.387,5.613,17.776,6.07A13.308,13.308,0,0,1,81.183,24.4c-.142.049-.283.1-.424.151a2.841,2.841,0,0,0-.884,4.781c.041.036.079.073.117.109C77.222,35.767,70.115,39.666,61.237,39.666Zm11.994.209q-.087-.187-.181-.371a18.675,18.675,0,0,0,8.453-7.8,15.386,15.386,0,0,0,2.262,4.234,7.683,7.683,0,0,0,3.34,2.316c.045.155.093.306.143.451a2.984,2.984,0,0,1-1.532,3.674,51.615,51.615,0,0,1-7.662,2.9,43.736,43.736,0,0,0-4.823-5.409Zm3.044,16.8c-.684-.67-1.38-1.409-2.1-2.233.078-.949.029-.676.044-10.092,0-.014,0-.027,0-.041,2.055,2.41,3.922,5.081,6.183,7.375A18.807,18.807,0,0,0,76.275,56.678Zm6.733,2.468a3.208,3.208,0,0,1-3.827.017q-.548-.4-1.09-.848A16.1,16.1,0,0,1,82.153,53.3c.273.225.552.444.837.653a3.194,3.194,0,0,1,1.041,1.294A11.4,11.4,0,0,0,83.008,59.146ZM54.516,22.586a1.182,1.182,0,0,0-1.667.115,2.376,2.376,0,0,1-3.587,0,1.182,1.182,0,0,0-1.782,1.553,4.739,4.739,0,0,0,7.15,0A1.181,1.181,0,0,0,54.516,22.586Zm20.362,0a1.182,1.182,0,0,0-1.667.115,2.376,2.376,0,0,1-3.587,0,1.182,1.182,0,1,0-1.782,1.553,4.739,4.739,0,0,0,7.15,0,1.181,1.181,0,0,0-.114-1.667ZM61.237,25.4a6.306,6.306,0,0,0-5.143,2.888,1.182,1.182,0,1,0,1.94,1.349,3.674,3.674,0,0,1,6.407,0,1.181,1.181,0,1,0,1.94-1.349A6.305,6.305,0,0,0,61.237,25.4Z" transform="translate(0 0)"/>
    </g>
  </g>
</svg>
