<svg xmlns="http://www.w3.org/2000/svg" xmlns:xlink="http://www.w3.org/1999/xlink" width="118" height="118" viewBox="0 0 118 118">
  <defs>
    <filter id="Trazado_982547" x="0" y="0" width="118" height="118" filterUnits="userSpaceOnUse">
      <feOffset dy="3" input="SourceAlpha"/>
      <feGaussianBlur stdDeviation="3" result="blur"/>
      <feFlood flood-opacity="0.161"/>
      <feComposite operator="in" in2="blur"/>
      <feComposite in="SourceGraphic"/>
    </filter>
  </defs>
  <g id="Grupo_1202350" data-name="Grupo 1202350" transform="translate(-321.796 -2242.298)">
    <g id="Grupo_1202232" data-name="Grupo 1202232" transform="translate(330.796 2248.298)">
      <g id="Grupo_1201680" data-name="Grupo 1201680">
        <g id="Grupo_1201330" data-name="Grupo 1201330">
          <g id="Grupo_1172010" data-name="Grupo 1172010">
            <g id="Grupo_1171046" data-name="Grupo 1171046">
              <g id="Grupo_1148525" data-name="Grupo 1148525">
                <g transform="matrix(1, 0, 0, 1, -9, -6)" filter="url(#Trazado_982547)">
                  <g id="Trazado_982547-2" data-name="Trazado 982547" transform="translate(9 6)" fill="#fdfbec">
                    <path d="M 50 98.5 C 43.45188522338867 98.5 37.10042953491211 97.21787261962891 31.12207221984863 94.68923950195312 C 25.34691429138184 92.24655914306641 20.15997123718262 88.74931335449219 15.70532894134521 84.29468536376953 C 11.2506856918335 79.84004211425781 7.753442764282227 74.65309906005859 5.310757160186768 68.8779296875 C 2.782128572463989 62.89957046508789 1.5 56.54811477661133 1.5 50 C 1.5 43.45188522338867 2.782128572463989 37.10042953491211 5.310757160186768 31.12207221984863 C 7.753442764282227 25.34691429138184 11.2506856918335 20.15997123718262 15.70532894134521 15.70532894134521 C 20.15997123718262 11.2506856918335 25.34691429138184 7.753442764282227 31.12207221984863 5.310757160186768 C 37.10042953491211 2.782128572463989 43.45188522338867 1.5 50 1.5 C 56.54811477661133 1.5 62.89957046508789 2.782128572463989 68.8779296875 5.310757160186768 C 74.65309906005859 7.753442764282227 79.84004211425781 11.2506856918335 84.29468536376953 15.70532894134521 C 88.74931335449219 20.15997123718262 92.24655914306641 25.34691429138184 94.68923950195312 31.12207221984863 C 97.21787261962891 37.10042953491211 98.5 43.45188522338867 98.5 50 C 98.5 56.54811477661133 97.21787261962891 62.89957046508789 94.68923950195312 68.8779296875 C 92.24655914306641 74.65309906005859 88.74931335449219 79.84004211425781 84.29468536376953 84.29468536376953 C 79.84004211425781 88.74931335449219 74.65309906005859 92.24655914306641 68.8779296875 94.68923950195312 C 62.89957046508789 97.21787261962891 56.54811477661133 98.5 50 98.5 Z" stroke="none"/>
                    <path d="M 50 3 C 43.65372467041016 3 37.49886322021484 4.242263793945312 31.70639801025391 6.6922607421875 C 26.11003112792969 9.059326171875 21.08335113525391 12.44861602783203 16.76598358154297 16.76598358154297 C 12.44861602783203 21.08335113525391 9.059326171875 26.11003112792969 6.6922607421875 31.70639801025391 C 4.242263793945312 37.49886322021484 3 43.65372467041016 3 50 C 3 56.34627532958984 4.242263793945312 62.50113677978516 6.6922607421875 68.29360198974609 C 9.059326171875 73.88996887207031 12.44861602783203 78.91666412353516 16.76598358154297 83.23401641845703 C 21.08335113525391 87.55138397216797 26.11003112792969 90.940673828125 31.70639801025391 93.3077392578125 C 37.49886322021484 95.75773620605469 43.65372467041016 97 50 97 C 56.34627532958984 97 62.50113677978516 95.75773620605469 68.29360198974609 93.3077392578125 C 73.88996887207031 90.940673828125 78.91666412353516 87.55138397216797 83.23401641845703 83.23401641845703 C 87.55138397216797 78.91666412353516 90.940673828125 73.88996887207031 93.3077392578125 68.29360198974609 C 95.75773620605469 62.50113677978516 97 56.34627532958984 97 50 C 97 43.65372467041016 95.75773620605469 37.49886322021484 93.3077392578125 31.70639801025391 C 90.940673828125 26.11003112792969 87.55138397216797 21.08335113525391 83.23401641845703 16.76598358154297 C 78.91666412353516 12.44861602783203 73.88996887207031 9.059326171875 68.29360198974609 6.6922607421875 C 62.50113677978516 4.242263793945312 56.34627532958984 3 50 3 M 50 0 C 77.61424255371094 0 100 22.38577270507812 100 50 C 100 77.61424255371094 77.61424255371094 100 50 100 C 22.38577270507812 100 0 77.61424255371094 0 50 C 0 22.38577270507812 22.38577270507812 0 50 0 Z" stroke="none" fill="#83793c"/>
                  </g>
                </g>
              </g>
            </g>
          </g>
        </g>
      </g>
    </g>
    <g id="violent_6305773" transform="translate(332.782 2263.288)">
      <g id="Grupo_1202347" data-name="Grupo 1202347" transform="translate(16.669 1.012)">
        <path id="Trazado_1047397" data-name="Trazado 1047397" d="M287.579,358.472h-24.04a3.373,3.373,0,1,0,0,6.745h24.04a3.373,3.373,0,1,0,0-6.745Z" transform="translate(-228.26 -311.223)" fill="#ffbd86"/>
        <path id="Trazado_1047398" data-name="Trazado 1047398" d="M295.97,266.115v16.5a10.573,10.573,0,1,0,21.146,0v-16.5Z" transform="translate(-259.244 -231.299)" fill="#fed2a4"/>
        <path id="Trazado_1047399" data-name="Trazado 1047399" d="M283.541,215.061a14.168,14.168,0,0,0-14.276,14.168v.722a.658.658,0,0,0,.658.658h5.133a10.341,10.341,0,0,0,8.377-4.275,10.343,10.343,0,0,0,8.377,4.275h5.133a.658.658,0,0,0,.658-.658v-.544A14.283,14.283,0,0,0,283.541,215.061Z" transform="translate(-236.134 -187.118)" fill="#918291"/>
        <path id="Trazado_1047400" data-name="Trazado 1047400" d="M365.9,215.061a14.327,14.327,0,0,0-1.463.064,14.308,14.308,0,0,1,12.831,14.282v.544a.658.658,0,0,1-.658.658H379.3a.658.658,0,0,0,.658-.658v-.544A14.283,14.283,0,0,0,365.9,215.061Z" transform="translate(-318.493 -187.118)" fill="#7a6d79"/>
        <path id="Trazado_1047401" data-name="Trazado 1047401" d="M354.915,400.2a3.121,3.121,0,0,0-3.048,2.958c0,1.462,1.365,1.407,3.048,1.407s3.048.055,3.048-1.407A3.121,3.121,0,0,0,354.915,400.2Z" transform="translate(-307.616 -347.33)" fill="#fd8087"/>
        <path id="Trazado_1047402" data-name="Trazado 1047402" d="M39.005,141.168l-3.784,2.185a.673.673,0,0,0-.336.6l.083,4.558a.673.673,0,0,1-.336.6L23.5,155.526a.673.673,0,0,0-.246.919l4.151,7.189a.673.673,0,0,0,.919.246l11.3-6.527,3.237.251a1.346,1.346,0,0,0,.777-.176l8.984-5.187-4.908-8.5Z" transform="translate(-23.166 -123.173)" fill="#fed2a4"/>
        <circle id="Elipse_12903" data-name="Elipse 12903" cx="11.465" cy="11.465" r="11.465" transform="translate(3.163 46.579) rotate(-11.951)" fill="#fd8087"/>
        <path id="Trazado_1047403" data-name="Trazado 1047403" d="M138.918,334.169a11.574,11.574,0,0,0-1.346.081,11.463,11.463,0,0,1,0,22.768,11.464,11.464,0,1,0,1.346-22.849Z" transform="translate(-122.17 -290.191)" fill="#fe646f"/>
        <path id="Trazado_1047404" data-name="Trazado 1047404" d="M113.35,40.32l-2.764,1.6a1.116,1.116,0,0,1-1.489-.351L90.493,13.4a2.1,2.1,0,0,1,.7-2.977l4.577-2.643a2.1,2.1,0,0,1,2.929.88l15.089,30.193a1.116,1.116,0,0,1-.44,1.465Z" transform="translate(-81.128 -7.5)" fill="#978ecb"/>
        <path id="Trazado_1047405" data-name="Trazado 1047405" d="M130.842,38.855,115.753,8.662a2.1,2.1,0,0,0-2.929-.88L109.849,9.5a2.033,2.033,0,0,1,2.783.964l15.231,30.111a1.075,1.075,0,0,1-.3,1.379c.025-.012.05-.024.074-.038l2.764-1.6A1.116,1.116,0,0,0,130.842,38.855Z" transform="translate(-98.179 -7.5)" fill="#8379c1"/>
        <path id="Trazado_1047406" data-name="Trazado 1047406" d="M162.233,119.52l-4.692,2.709a2.709,2.709,0,0,1-3.7-.992l-6.847-11.859,7.038-4.063a2.442,2.442,0,0,1,3.335.894l5.76,9.976A2.442,2.442,0,0,1,162.233,119.52Z" transform="translate(-130.324 -91.863)" fill="#fed2a4"/>
        <path id="Trazado_1047407" data-name="Trazado 1047407" d="M190.581,116.185l-5.76-9.976a2.442,2.442,0,0,0-3.335-.894l-2.767,1.6a2.462,2.462,0,0,1,3.363.9l5.739,9.94a2.462,2.462,0,0,1-.9,3.363l2.767-1.6A2.442,2.442,0,0,0,190.581,116.185Z" transform="translate(-157.778 -91.863)" fill="#ffbd86"/>
        <path id="Trazado_1047408" data-name="Trazado 1047408" d="M140.047,138.631a2.633,2.633,0,0,1-3.6-.964l-2.553-4.423,2.717-1.569a2.128,2.128,0,0,1,2.907.779l1.489,2.58A2.633,2.633,0,0,1,140.047,138.631Z" transform="translate(-118.99 -114.712)" fill="#fed2a4"/>
      </g>
      <g id="Grupo_1202349" data-name="Grupo 1202349" transform="translate(15.658 0.003)">
        <path id="Trazado_1047409" data-name="Trazado 1047409" d="M67.38,326.666a12.475,12.475,0,1,0,12.475,12.475A12.489,12.489,0,0,0,67.38,326.666Zm0,22.931a10.456,10.456,0,1,1,10.456-10.456A10.468,10.468,0,0,1,67.38,349.6Z" transform="translate(-49.621 -282.689)"/>
        <path id="Trazado_1047410" data-name="Trazado 1047410" d="M115.969,376.788a1.01,1.01,0,0,0-1.428,0l-4.044,4.044-4.044-4.044a1.01,1.01,0,0,0-1.428,1.428l4.044,4.044-4.044,4.044a1.01,1.01,0,0,0,1.428,1.428l4.044-4.044,4.044,4.044a1.01,1.01,0,0,0,1.428-1.428l-4.044-4.044,4.044-4.044A1.01,1.01,0,0,0,115.969,376.788Z" transform="translate(-92.738 -325.807)"/>
        <path id="Trazado_1047411" data-name="Trazado 1047411" d="M22.334,42.594l11.034-6.37,2.925.227a2.346,2.346,0,0,0,1.36-.309l4.689-2.708,1.452,2.2a2.128,2.128,0,0,0,2.837.67l2.763-1.6a2.127,2.127,0,0,0,.839-2.791l-1.178-2.356.027-.016a3.456,3.456,0,0,0,1.264-4.715l-5.759-9.976A3.449,3.449,0,0,0,40.881,13.2L35.145,1.723a3.109,3.109,0,0,0-4.337-1.3L26.231,3.061a3.11,3.11,0,0,0-1.04,4.407L26.4,9.3a1.01,1.01,0,1,0,1.685-1.113L26.876,6.355a1.091,1.091,0,0,1,.365-1.545l4.577-2.643a1.09,1.09,0,0,1,1.52.457l5.715,11.437-5.131,2.963-3.214-4.866a1.01,1.01,0,1,0-1.685,1.113l3.147,4.764-3.952,2.281a1.683,1.683,0,0,0-.841,1.488l.079,4.359L16.5,32.49a1.683,1.683,0,0,0-.616,2.3l4.151,7.189a1.682,1.682,0,0,0,2.3.616Zm26.094-9.776a.106.106,0,0,1-.042.139l-2.763,1.6a.107.107,0,0,1-.143-.033l-1.386-2.1L47.3,30.571ZM42.838,15.862,48.6,25.837a1.434,1.434,0,0,1-.524,1.957l-4.715,2.722a1.7,1.7,0,0,1-2.3-.636l-2.484-4.3a3.648,3.648,0,0,0,.988-4.749l-1.489-2.58a3.123,3.123,0,0,0-.738-.865l3.545-2.047a1.431,1.431,0,0,1,1.957.524ZM17.8,34.07l10.838-6.257a1.683,1.683,0,0,0,.841-1.488L29.4,21.966l5.4-3.117a1.12,1.12,0,0,1,1.527.41l1.489,2.58A1.623,1.623,0,0,1,35,23.462a1.01,1.01,0,1,0-1.749,1.01,3.647,3.647,0,0,0,3.4,1.813l2.659,4.605a3.7,3.7,0,0,0,1.2,1.268l-3.872,2.235a.338.338,0,0,1-.195.044l-3.237-.251a1.014,1.014,0,0,0-.583.132L21.616,40.677Z" transform="translate(-15.658 -0.003)"/>
        <path id="Trazado_1047412" data-name="Trazado 1047412" d="M296.508,188l1.024.591a1.01,1.01,0,0,0,1.01-1.749l-1.024-.591a1.01,1.01,0,0,0-1.01,1.749Z" transform="translate(-258.262 -161.064)"/>
        <path id="Trazado_1047413" data-name="Trazado 1047413" d="M303.879,157.739a1.01,1.01,0,0,0,1.01,1.01h1.183a1.01,1.01,0,0,0,0-2.019h-1.183A1.01,1.01,0,0,0,303.879,157.739Z" transform="translate(-265.077 -135.63)"/>
        <path id="Trazado_1047414" data-name="Trazado 1047414" d="M297.518,125.421l1.024-.591a1.01,1.01,0,0,0-1.01-1.749l-1.024.591a1.01,1.01,0,1,0,1.01,1.749Z" transform="translate(-258.262 -106.395)"/>
        <path id="Trazado_1047415" data-name="Trazado 1047415" d="M274.993,101.123a1.01,1.01,0,0,0,1.379-.37l.591-1.024a1.01,1.01,0,1,0-1.749-1.01l-.591,1.024A1.01,1.01,0,0,0,274.993,101.123Z" transform="translate(-239.643 -84.993)"/>
        <g id="Grupo_1202348" data-name="Grupo 1202348" transform="translate(31.906 27.941)">
          <path id="Trazado_1047416" data-name="Trazado 1047416" d="M397.836,352.38a1.01,1.01,0,0,0-1.424-.1l-1.662,1.442a1.44,1.44,0,0,0,0,2.176l1.662,1.442a1.01,1.01,0,0,0,1.323-1.525l-1.158-1,1.158-1A1.01,1.01,0,0,0,397.836,352.38Z" transform="translate(-375.191 -332.581)"/>
          <path id="Trazado_1047417" data-name="Trazado 1047417" d="M330.136,354.809a1.439,1.439,0,0,0-.5-1.088l-1.662-1.442a1.01,1.01,0,0,0-1.323,1.525l1.158,1-1.158,1a1.01,1.01,0,0,0,1.323,1.525l1.662-1.442A1.439,1.439,0,0,0,330.136,354.809Z" transform="translate(-316.391 -332.581)"/>
          <path id="Trazado_1047418" data-name="Trazado 1047418" d="M348.424,392.7a4.118,4.118,0,0,0-4.058,3.967,2.237,2.237,0,0,0,.621,1.648c.739.738,1.877.769,3.095.769,1.464,0,2.915.094,3.779-.769a2.236,2.236,0,0,0,.621-1.648A4.118,4.118,0,0,0,348.424,392.7Zm2.01,4.187a6.7,6.7,0,0,1-2.187.178,5.036,5.036,0,0,1-1.83-.175.516.516,0,0,1-.031-.223,2.04,2.04,0,0,1,4.076,0A.548.548,0,0,1,350.433,396.883Z" transform="translate(-332.02 -367.771)"/>
          <path id="Trazado_1047419" data-name="Trazado 1047419" d="M281.083,226.857h-.437v-1.739h1.927a1.67,1.67,0,0,0,1.668-1.668,15.543,15.543,0,0,0-4.231-11.167,1.01,1.01,0,0,0-1.466,1.389,13.767,13.767,0,0,1,3.678,9.427H277.44a9.358,9.358,0,0,1-7.559-3.858,1.01,1.01,0,0,0-1.636,0,9.353,9.353,0,0,1-7.559,3.857H255.9a13.147,13.147,0,0,1,19.163-12.057,1.01,1.01,0,1,0,.936-1.79,15.114,15.114,0,0,0-17.633,2.7,15.3,15.3,0,0,0-4.486,11.494,1.67,1.67,0,0,0,1.668,1.668h1.927v1.739h-.437a4.383,4.383,0,1,0,0,8.765h1.043a11.583,11.583,0,0,0,21.959,0h1.037a4.383,4.383,0,0,0,0-8.765Zm-24.04,6.746a2.363,2.363,0,1,1,0-4.727h.437v3.058a11.608,11.608,0,0,0,.122,1.669Zm12.02,7.895a9.574,9.574,0,0,1-9.563-9.564v-6.815h1.187a11.387,11.387,0,0,0,8.377-3.69,11.389,11.389,0,0,0,8.376,3.69h1.187v6.816A9.558,9.558,0,0,1,269.064,241.5Zm12.02-7.895h-.557a11.746,11.746,0,0,0,.12-1.669v-3.058h.437a2.363,2.363,0,0,1,0,4.727Z" transform="translate(-252.66 -207.549)"/>
        </g>
      </g>
    </g>
  </g>
</svg>
