<svg xmlns="http://www.w3.org/2000/svg" xmlns:xlink="http://www.w3.org/1999/xlink" width="118" height="118" viewBox="0 0 118 118">
  <defs>
    <filter id="Trazado_982547" x="0" y="0" width="118" height="118" filterUnits="userSpaceOnUse">
      <feOffset dy="3" input="SourceAlpha"/>
      <feGaussianBlur stdDeviation="3" result="blur"/>
      <feFlood flood-opacity="0.161"/>
      <feComposite operator="in" in2="blur"/>
      <feComposite in="SourceGraphic"/>
    </filter>
  </defs>
  <g id="Grupo_1202354" data-name="Grupo 1202354" transform="translate(-740.796 -2242.298)">
    <g id="Grupo_1202230" data-name="Grupo 1202230" transform="translate(749.796 2248.298)">
      <g id="Grupo_1201680" data-name="Grupo 1201680">
        <g id="Grupo_1201330" data-name="Grupo 1201330">
          <g id="Grupo_1172010" data-name="Grupo 1172010">
            <g id="Grupo_1171046" data-name="Grupo 1171046">
              <g id="Grupo_1148525" data-name="Grupo 1148525">
                <g transform="matrix(1, 0, 0, 1, -9, -6)" filter="url(#Trazado_982547)">
                  <g id="Trazado_982547-2" data-name="Trazado 982547" transform="translate(9 6)" fill="#fdfbec">
                    <path d="M 50 98.5 C 43.45188522338867 98.5 37.10042953491211 97.21787261962891 31.12207221984863 94.68923950195312 C 25.34691429138184 92.24655914306641 20.15997123718262 88.74931335449219 15.70532894134521 84.29468536376953 C 11.2506856918335 79.84004211425781 7.753442764282227 74.65309906005859 5.310757160186768 68.8779296875 C 2.782128572463989 62.89957046508789 1.5 56.54811477661133 1.5 50 C 1.5 43.45188522338867 2.782128572463989 37.10042953491211 5.310757160186768 31.12207221984863 C 7.753442764282227 25.34691429138184 11.2506856918335 20.15997123718262 15.70532894134521 15.70532894134521 C 20.15997123718262 11.2506856918335 25.34691429138184 7.753442764282227 31.12207221984863 5.310757160186768 C 37.10042953491211 2.782128572463989 43.45188522338867 1.5 50 1.5 C 56.54811477661133 1.5 62.89957046508789 2.782128572463989 68.8779296875 5.310757160186768 C 74.65309906005859 7.753442764282227 79.84004211425781 11.2506856918335 84.29468536376953 15.70532894134521 C 88.74931335449219 20.15997123718262 92.24655914306641 25.34691429138184 94.68923950195312 31.12207221984863 C 97.21787261962891 37.10042953491211 98.5 43.45188522338867 98.5 50 C 98.5 56.54811477661133 97.21787261962891 62.89957046508789 94.68923950195312 68.8779296875 C 92.24655914306641 74.65309906005859 88.74931335449219 79.84004211425781 84.29468536376953 84.29468536376953 C 79.84004211425781 88.74931335449219 74.65309906005859 92.24655914306641 68.8779296875 94.68923950195312 C 62.89957046508789 97.21787261962891 56.54811477661133 98.5 50 98.5 Z" stroke="none"/>
                    <path d="M 50 3 C 43.65372467041016 3 37.49886322021484 4.242263793945312 31.70639801025391 6.6922607421875 C 26.11003112792969 9.059326171875 21.08335113525391 12.44861602783203 16.76598358154297 16.76598358154297 C 12.44861602783203 21.08335113525391 9.059326171875 26.11003112792969 6.6922607421875 31.70639801025391 C 4.242263793945312 37.49886322021484 3 43.65372467041016 3 50 C 3 56.34627532958984 4.242263793945312 62.50113677978516 6.6922607421875 68.29360198974609 C 9.059326171875 73.88996887207031 12.44861602783203 78.91666412353516 16.76598358154297 83.23401641845703 C 21.08335113525391 87.55138397216797 26.11003112792969 90.940673828125 31.70639801025391 93.3077392578125 C 37.49886322021484 95.75773620605469 43.65372467041016 97 50 97 C 56.34627532958984 97 62.50113677978516 95.75773620605469 68.29360198974609 93.3077392578125 C 73.88996887207031 90.940673828125 78.91666412353516 87.55138397216797 83.23401641845703 83.23401641845703 C 87.55138397216797 78.91666412353516 90.940673828125 73.88996887207031 93.3077392578125 68.29360198974609 C 95.75773620605469 62.50113677978516 97 56.34627532958984 97 50 C 97 43.65372467041016 95.75773620605469 37.49886322021484 93.3077392578125 31.70639801025391 C 90.940673828125 26.11003112792969 87.55138397216797 21.08335113525391 83.23401641845703 16.76598358154297 C 78.91666412353516 12.44861602783203 73.88996887207031 9.059326171875 68.29360198974609 6.6922607421875 C 62.50113677978516 4.242263793945312 56.34627532958984 3 50 3 M 50 0 C 77.61424255371094 0 100 22.38577270507812 100 50 C 100 77.61424255371094 77.61424255371094 100 50 100 C 22.38577270507812 100 0 77.61424255371094 0 50 C 0 22.38577270507812 22.38577270507812 0 50 0 Z" stroke="none" fill="#83793c"/>
                  </g>
                </g>
              </g>
            </g>
          </g>
        </g>
      </g>
    </g>
    <g id="patient-care_13892798" transform="translate(746.379 2259.452)">
      <g id="Grupo_1202351" data-name="Grupo 1202351" transform="translate(24.43 7.5)">
        <path id="Trazado_1047420" data-name="Trazado 1047420" d="M54.549,291.761v20.854a1.494,1.494,0,0,1-1.494,1.494H30.249a1.5,1.5,0,0,1-1.494-1.483l-.07-9.212H24.432V291.763a4.771,4.771,0,0,1,4.771-4.771H49.78A4.769,4.769,0,0,1,54.549,291.761Z" transform="translate(-24.432 -251.419)" fill="#8795de"/>
        <path id="Trazado_1047421" data-name="Trazado 1047421" d="M208.464,291.759v20.854a1.5,1.5,0,0,1-1.494,1.494h-2.9a1.5,1.5,0,0,0,1.494-1.494V291.759a4.77,4.77,0,0,0-4.769-4.769h2.9A4.77,4.77,0,0,1,208.464,291.759Z" transform="translate(-178.346 -251.417)" fill="#6c7fd8"/>
        <path id="Trazado_1047422" data-name="Trazado 1047422" d="M323.549,244.221h13.872A1.222,1.222,0,0,0,338.643,243v-2.868a3.619,3.619,0,0,0-3.618-3.618h-9.079a3.619,3.619,0,0,0-3.618,3.618V243A1.222,1.222,0,0,0,323.549,244.221Z" transform="translate(-284.412 -207.365)" fill="#7ca1b1"/>
        <path id="Trazado_1047423" data-name="Trazado 1047423" d="M399.527,240.128V243a1.221,1.221,0,0,1-1.222,1.222h-3.818A1.221,1.221,0,0,0,395.708,243v-2.868a3.619,3.619,0,0,0-3.618-3.618h3.818A3.619,3.619,0,0,1,399.527,240.128Z" transform="translate(-345.296 -207.362)" fill="#678d98"/>
        <path id="Trazado_1047424" data-name="Trazado 1047424" d="M221.631,376.9v14.18a1.494,1.494,0,0,1-1.494,1.494h-4.256V376.9Z" transform="translate(-191.514 -329.881)" fill="#ffdfcf"/>
        <path id="Trazado_1047425" data-name="Trazado 1047425" d="M230.916,376.9v14.18a1.5,1.5,0,0,1-1.494,1.494h-2.9a1.494,1.494,0,0,0,1.494-1.494V376.9Z" transform="translate(-200.799 -329.884)" fill="#ffcebf"/>
        <path id="Trazado_1047426" data-name="Trazado 1047426" d="M334.673,276.781v4.137a4.251,4.251,0,0,0,4.251,4.251h4.671a4.251,4.251,0,0,0,4.251-4.251v-4.137a20.005,20.005,0,0,1-9.174-2.959Z" transform="translate(-295.187 -239.925)" fill="#ffa78f"/>
        <path id="Trazado_1047427" data-name="Trazado 1047427" d="M382.839,292.663V296.8a4.25,4.25,0,0,1-4.251,4.251H374.77a4.25,4.25,0,0,0,4.251-4.251v-4.78A25.114,25.114,0,0,0,382.839,292.663Z" transform="translate(-330.18 -255.807)" fill="#f89580"/>
        <path id="Trazado_1047428" data-name="Trazado 1047428" d="M311.466,300.7h-1.572a1.813,1.813,0,0,1-1.813-1.813h0a1.813,1.813,0,0,1,1.813-1.813h1.571V300.7Z" transform="translate(-271.98 -260.217)" fill="#f89580"/>
        <path id="Trazado_1047429" data-name="Trazado 1047429" d="M438.171,300.7h1.572a1.813,1.813,0,0,0,1.813-1.813h0a1.813,1.813,0,0,0-1.813-1.813h-1.572Z" transform="translate(-385.512 -260.217)" fill="#ec806b"/>
        <path id="Trazado_1047430" data-name="Trazado 1047430" d="M357.156,366.9H349.1a.825.825,0,0,1-.825-.825v-2.332a.825.825,0,0,1,.825-.825h8.061a.825.825,0,0,1,.825.825v2.332A.825.825,0,0,1,357.156,366.9Z" transform="translate(-307.053 -317.683)" fill="#d8ecfe"/>
        <path id="Trazado_1047431" data-name="Trazado 1047431" d="M392.733,363.745v2.333a.825.825,0,0,1-.825.825H388.09a.825.825,0,0,0,.825-.825v-2.333a.825.825,0,0,0-.825-.825h3.818A.825.825,0,0,1,392.733,363.745Z" transform="translate(-341.805 -317.683)" fill="#c4e2ff"/>
        <path id="Trazado_1047432" data-name="Trazado 1047432" d="M169.283,394.212v5.281l-8.221,4.776a2.6,2.6,0,0,1-1.85.293l-9.529-2.066-3.326-1.535a1.06,1.06,0,0,1-.513-1.416l.955-2.01a1.058,1.058,0,0,1,1.479-.466l2.461,1.394,7.875,1.175,6.057-4.03A8.319,8.319,0,0,1,169.283,394.212Z" transform="translate(-130.3 -344.993)" fill="#ffa78f"/>
        <path id="Trazado_1047433" data-name="Trazado 1047433" d="M272.59,394.211H257.546a8.319,8.319,0,0,0-4.614,1.4l-6.057,4.03,2.449,4.632,8.221-4.776v6.875a1.315,1.315,0,0,0,1.315,1.315h16.334a1.751,1.751,0,0,0,1.751-1.751v-7.364A4.356,4.356,0,0,0,272.59,394.211Z" transform="translate(-218.564 -344.992)" fill="#ffe177"/>
        <path id="Trazado_1047434" data-name="Trazado 1047434" d="M432.423,398.565v7.364a1.751,1.751,0,0,1-1.751,1.751h-3.04a1.751,1.751,0,0,0,1.751-1.751v-7.364a4.355,4.355,0,0,0-4.355-4.355h3.04A4.355,4.355,0,0,1,432.423,398.565Z" transform="translate(-374.042 -344.991)" fill="#ffd15b"/>
        <path id="Trazado_1047435" data-name="Trazado 1047435" d="M43.444,381.391v2.286a1.265,1.265,0,0,1-1.082,1.251l-4.213.467H27.669a3.238,3.238,0,0,1-3.237-3.238v-5.265h6.184v2.976l7.2.894,4.173-.622A1.265,1.265,0,0,1,43.444,381.391Z" transform="translate(-24.432 -329.877)" fill="#ffdfcf"/>
        <path id="Trazado_1047436" data-name="Trazado 1047436" d="M307.408,27.02a11.444,11.444,0,1,0-17.57-1.677l-1.806,3.742a.86.86,0,0,0,1.139,1.152l3.8-1.782A11.447,11.447,0,0,0,307.408,27.02Z" transform="translate(-254.343 -7.5)" fill="#eaf6ff"/>
        <path id="Trazado_1047437" data-name="Trazado 1047437" d="M372.781,27.024a11.429,11.429,0,0,1-10,3.192,11.434,11.434,0,0,0,0-22.553,11.432,11.432,0,0,1,10,19.361Z" transform="translate(-319.716 -7.504)" fill="#d8ecfe"/>
        <path id="Trazado_1047439" data-name="Trazado 1047439" d="M68.974,110.988h0l.392,2.286a1.785,1.785,0,0,0,1.759,1.483H85.984a1.785,1.785,0,0,0,1.759-1.483l.392-2.286h0a6.8,6.8,0,0,0-6.8-6.8H75.77A6.8,6.8,0,0,0,68.974,110.988Z" transform="translate(-63.305 -91.885)" fill="#a8d3d8"/>
        <path id="Trazado_1047440" data-name="Trazado 1047440" d="M146.745,110.987l-.392,2.286a1.786,1.786,0,0,1-1.76,1.483h-3.818a1.786,1.786,0,0,0,1.76-1.483l.392-2.286a6.8,6.8,0,0,0-6.8-6.8h3.818a6.8,6.8,0,0,1,6.8,6.8Z" transform="translate(-121.913 -91.884)" fill="#8ebac5"/>
        <path id="Trazado_1047441" data-name="Trazado 1047441" d="M91.353,218.4H76.927l-1.247,4.25c-.651,1.769-.388,4.468,1.995,4.48h12.93c2.383-.013,2.645-2.711,1.995-4.48Z" transform="translate(-68.89 -191.561)" fill="#a8d3d8"/>
        <path id="Trazado_1047442" data-name="Trazado 1047442" d="M102.007,159.805a4.656,4.656,0,0,1-4.656,4.656v3.514l-2.557,2.732-2.557-2.732v-3.514a4.656,4.656,0,0,1-4.656-4.656v-5.891a3.3,3.3,0,0,1,3.3-3.3h7.834a3.3,3.3,0,0,1,3.3,3.3v5.891Z" transform="translate(-79.544 -132.402)" fill="#ffdfcf"/>
        <path id="Trazado_1047443" data-name="Trazado 1047443" d="M140.964,153.914v5.892a4.654,4.654,0,0,1-4.656,4.656v3.514l-2.557,2.733-1.531-1.637,1.531-1.1v-2.627a1.463,1.463,0,0,1,.717-1.263,6.69,6.69,0,0,0,1.314-.987,4.647,4.647,0,0,0,1.363-3.293v-5.892a3.3,3.3,0,0,0-3.3-3.3h3.818A3.3,3.3,0,0,1,140.964,153.914Z" transform="translate(-118.501 -132.403)" fill="#ffcebf"/>
        <path id="Trazado_1047444" data-name="Trazado 1047444" d="M62.164,191.177H60.443a1.985,1.985,0,0,1-1.985-1.985h0a1.985,1.985,0,0,1,1.985-1.985h1.721Z" transform="translate(-54.127 -164.334)" fill="#ffcebf"/>
        <path id="Trazado_1047445" data-name="Trazado 1047445" d="M200.923,191.177h1.721a1.985,1.985,0,0,0,1.985-1.985h0a1.985,1.985,0,0,0-1.985-1.985h-1.721Z" transform="translate(-178.46 -164.334)" fill="#ffb09e"/>
      </g>
      <g id="Grupo_1202353" data-name="Grupo 1202353" transform="translate(24.43 7.5)">
        <path id="Trazado_1047446" data-name="Trazado 1047446" d="M334.673,276.781v4.137a4.251,4.251,0,0,0,4.251,4.251h4.671a4.251,4.251,0,0,0,4.251-4.251v-4.137a20.005,20.005,0,0,1-9.174-2.959Z" transform="translate(-295.186 -239.926)" fill="none" stroke="#000" stroke-linecap="round" stroke-linejoin="round" stroke-miterlimit="10" stroke-width="1.5"/>
        <path id="Trazado_1047447" data-name="Trazado 1047447" d="M330.71,399.492v6.874a1.314,1.314,0,0,0,1.315,1.315h16.333a1.751,1.751,0,0,0,1.751-1.751v-7.364a4.355,4.355,0,0,0-4.355-4.355H330.71" transform="translate(-291.728 -344.991)" fill="none" stroke="#000" stroke-linecap="round" stroke-linejoin="round" stroke-miterlimit="10" stroke-width="1.5"/>
        <path id="Trazado_1047448" data-name="Trazado 1047448" d="M311.466,300.7h-1.572a1.813,1.813,0,0,1-1.813-1.813h0a1.813,1.813,0,0,1,1.813-1.813h1.571V300.7Z" transform="translate(-271.98 -260.217)" fill="none" stroke="#000" stroke-linecap="round" stroke-linejoin="round" stroke-miterlimit="10" stroke-width="1.5"/>
        <path id="Trazado_1047449" data-name="Trazado 1047449" d="M438.171,300.7h1.572a1.813,1.813,0,0,0,1.813-1.813h0a1.813,1.813,0,0,0-1.813-1.813h-1.572Z" transform="translate(-385.511 -260.217)" fill="none" stroke="#000" stroke-linecap="round" stroke-linejoin="round" stroke-miterlimit="10" stroke-width="1.5"/>
        <g id="Grupo_1202352" data-name="Grupo 1202352" transform="translate(46.073 38.054)">
          <line id="Línea_990" data-name="Línea 990" y2="0.775" fill="none" stroke="#000" stroke-linecap="round" stroke-linejoin="round" stroke-miterlimit="10" stroke-width="1.5"/>
        </g>
        <path id="Trazado_1047450" data-name="Trazado 1047450" d="M377.784,334.671a5.371,5.371,0,0,1,2.545,0" transform="translate(-332.81 -292.889)" fill="none" stroke="#000" stroke-linecap="round" stroke-linejoin="round" stroke-miterlimit="10" stroke-width="1.5"/>
        <line id="Línea_991" data-name="Línea 991" y2="7.837" transform="translate(53.164 54.853)" fill="none" stroke="#000" stroke-linecap="round" stroke-linejoin="round" stroke-miterlimit="10" stroke-width="1.5"/>
        <path id="Trazado_1047451" data-name="Trazado 1047451" d="M357.156,366.9H349.1a.825.825,0,0,1-.825-.825v-2.332a.825.825,0,0,1,.825-.825h8.061a.825.825,0,0,1,.825.825v2.332A.825.825,0,0,1,357.156,366.9Z" transform="translate(-307.053 -317.683)" fill="none" stroke="#000" stroke-linecap="round" stroke-linejoin="round" stroke-miterlimit="10" stroke-width="1.5"/>
        <path id="Trazado_1047452" data-name="Trazado 1047452" d="M173.8,397.654l1.425.807,7.876,1.175,6.056-4.03a8.316,8.316,0,0,1,4.614-1.4" transform="translate(-154.789 -344.991)" fill="none" stroke="#000" stroke-linecap="round" stroke-linejoin="round" stroke-miterlimit="10" stroke-width="1.5"/>
        <path id="Trazado_1047453" data-name="Trazado 1047453" d="M146.13,436.531a1.055,1.055,0,0,0,.566.647l3.326,1.535,9.529,2.066a2.6,2.6,0,0,0,1.851-.293l8.221-4.775" transform="translate(-130.64 -381.209)" fill="none" stroke="#000" stroke-linecap="round" stroke-linejoin="round" stroke-miterlimit="10" stroke-width="1.5"/>
        <path id="Trazado_1047454" data-name="Trazado 1047454" d="M257.55,394.21a8.316,8.316,0,0,0-4.614,1.4l-6.056,4.03,2.449,4.632,8.221-4.775" transform="translate(-218.567 -344.991)" fill="none" stroke="#000" stroke-linecap="round" stroke-linejoin="round" stroke-miterlimit="10" stroke-width="1.5"/>
        <path id="Trazado_1047455" data-name="Trazado 1047455" d="M337.421,244.221A1.222,1.222,0,0,0,338.643,243v-2.868a3.619,3.619,0,0,0-3.618-3.618h-9.079a3.619,3.619,0,0,0-3.618,3.618V243a1.222,1.222,0,0,0,1.222,1.222" transform="translate(-284.412 -207.365)" fill="none" stroke="#000" stroke-linecap="round" stroke-linejoin="round" stroke-miterlimit="10" stroke-width="1.5"/>
        <path id="Trazado_1047457" data-name="Trazado 1047457" d="M297.122,30.162a11.443,11.443,0,1,0-7.286-4.818l-1.806,3.742a.86.86,0,0,0,1.139,1.152l3.8-1.782" transform="translate(-254.342 -7.501)" fill="none" stroke="#000" stroke-linecap="round" stroke-linejoin="round" stroke-miterlimit="10" stroke-width="1.5"/>
        <path id="Trazado_1047458" data-name="Trazado 1047458" d="M83.705,447.733v1.653a1.5,1.5,0,0,1-1.494,1.494H59.405a1.493,1.493,0,0,1-1.494-1.483l-.071-5.688" transform="translate(-53.588 -388.191)" fill="none" stroke="#000" stroke-linecap="round" stroke-linejoin="round" stroke-miterlimit="10" stroke-width="1.5"/>
        <path id="Trazado_1047459" data-name="Trazado 1047459" d="M164.34,286.99h7.541a4.77,4.77,0,0,1,4.769,4.769v13.1" transform="translate(-146.533 -251.418)" fill="none" stroke="#000" stroke-linecap="round" stroke-linejoin="round" stroke-miterlimit="10" stroke-width="1.5"/>
        <path id="Trazado_1047460" data-name="Trazado 1047460" d="M24.43,293.934V291.76a4.771,4.771,0,0,1,4.772-4.77h7.922" transform="translate(-24.43 -251.418)" fill="none" stroke="#000" stroke-linecap="round" stroke-linejoin="round" stroke-miterlimit="10" stroke-width="1.5"/>
        <path id="Trazado_1047461" data-name="Trazado 1047461" d="M102.007,159.805a4.656,4.656,0,0,1-4.656,4.656v3.514l-2.557,2.732-2.557-2.732v-3.514a4.656,4.656,0,0,1-4.656-4.656v-5.891a3.3,3.3,0,0,1,3.3-3.3h7.834a3.3,3.3,0,0,1,3.3,3.3v5.891Z" transform="translate(-79.543 -132.403)" fill="none" stroke="#000" stroke-linecap="round" stroke-linejoin="round" stroke-miterlimit="10" stroke-width="1.5"/>
        <path id="Trazado_1047462" data-name="Trazado 1047462" d="M62.164,191.177H60.443a1.985,1.985,0,0,1-1.985-1.985h0a1.985,1.985,0,0,1,1.985-1.985h1.721Z" transform="translate(-54.127 -164.334)" fill="none" stroke="#000" stroke-linecap="round" stroke-linejoin="round" stroke-miterlimit="10" stroke-width="1.5"/>
        <path id="Trazado_1047463" data-name="Trazado 1047463" d="M200.923,191.177h1.721a1.985,1.985,0,0,0,1.985-1.985h0a1.985,1.985,0,0,0-1.985-1.985h-1.721Z" transform="translate(-178.46 -164.334)" fill="none" stroke="#000" stroke-linecap="round" stroke-linejoin="round" stroke-miterlimit="10" stroke-width="1.5"/>
        <path id="Trazado_1047464" data-name="Trazado 1047464" d="M138.521,232.223a3.878,3.878,0,0,0,1.838,0" transform="translate(-124 -203.621)" fill="none" stroke="#000" stroke-linecap="round" stroke-linejoin="round" stroke-miterlimit="10" stroke-width="1.5"/>
        <line id="Línea_992" data-name="Línea 992" y1="4.107" transform="translate(24.367 58.584)" fill="none" stroke="#000" stroke-linecap="round" stroke-linejoin="round" stroke-miterlimit="10" stroke-width="1.5"/>
        <line id="Línea_993" data-name="Línea 993" y1="9.805" transform="translate(24.367 44.251)" fill="none" stroke="#000" stroke-linecap="round" stroke-linejoin="round" stroke-miterlimit="10" stroke-width="1.5"/>
        <path id="Trazado_1047465" data-name="Trazado 1047465" d="M85.983,114.758a1.785,1.785,0,0,0,1.759-1.483l.392-2.286h0a6.8,6.8,0,0,0-6.8-6.8h-5.57a6.8,6.8,0,0,0-6.8,6.8h0l.392,2.286a1.785,1.785,0,0,0,1.759,1.483" transform="translate(-63.304 -91.885)" fill="none" stroke="#000" stroke-linecap="round" stroke-linejoin="round" stroke-miterlimit="10" stroke-width="1.5"/>
        <path id="Trazado_1047466" data-name="Trazado 1047466" d="M43.444,381.391v2.286a1.265,1.265,0,0,1-1.082,1.251l-4.213.467H27.669a3.238,3.238,0,0,1-3.237-3.238v-5.265h6.184v2.976l7.2.894,4.173-.622A1.265,1.265,0,0,1,43.444,381.391Z" transform="translate(-24.432 -329.877)" fill="none" stroke="#000" stroke-linecap="round" stroke-linejoin="round" stroke-miterlimit="10" stroke-width="1.5"/>
        <line id="Línea_994" data-name="Línea 994" x2="2.24" transform="translate(9.506 41.963)" fill="none" stroke="#000" stroke-linecap="round" stroke-linejoin="round" stroke-miterlimit="10" stroke-width="1.5"/>
        <line id="Línea_995" data-name="Línea 995" y1="1.3" transform="translate(15.44 24.22)" fill="none" stroke="#000" stroke-linecap="round" stroke-linejoin="round" stroke-miterlimit="10" stroke-width="1.5"/>
        <path id="Trazado_1047467" data-name="Trazado 1047467" d="M76.927,218.4l-1.247,4.25c-.651,1.769-.388,4.468,1.995,4.48" transform="translate(-68.89 -191.561)" fill="none" stroke="#000" stroke-linecap="round" stroke-linejoin="round" stroke-miterlimit="10" stroke-width="1.5"/>
        <path id="Trazado_1047468" data-name="Trazado 1047468" d="M195.047,227.134c2.383-.013,2.645-2.711,1.995-4.48l-1.247-4.25" transform="translate(-173.331 -191.561)" fill="none" stroke="#000" stroke-linecap="round" stroke-linejoin="round" stroke-miterlimit="10" stroke-width="1.5"/>
        <line id="Línea_996" data-name="Línea 996" y1="2.764" transform="translate(6.185 44.251)" fill="none" stroke="#000" stroke-linecap="round" stroke-linejoin="round" stroke-miterlimit="10" stroke-width="1.5"/>
        <line id="Línea_997" data-name="Línea 997" x2="5.75" transform="translate(24.367 47.016)" fill="none" stroke="#000" stroke-linecap="round" stroke-linejoin="round" stroke-miterlimit="10" stroke-width="1.5"/>
        <g id="cross_17735556_1_" data-name="cross_17735556 (1)" transform="translate(38.469 5.17)">
          <g id="Fill_1" data-name="Fill 1" transform="translate(0.231 0.231)">
            <path id="Trazado_1047469" data-name="Trazado 1047469" d="M10.482,12.8h0l-3.76,3.76a1.389,1.389,0,0,1-1.964,0l-.351-.351a1.389,1.389,0,0,1,0-1.964l3.76-3.76-3.76-3.76a1.389,1.389,0,0,1,0-1.964l.351-.351a1.389,1.389,0,0,1,1.964,0l3.76,3.76h0l3.76-3.76a1.389,1.389,0,0,1,1.964,0l.351.351a1.389,1.389,0,0,1,0,1.964l-3.76,3.76,3.76,3.76a1.389,1.389,0,0,1,0,1.964l-.351.351a1.389,1.389,0,0,1-1.964,0Z" transform="translate(-4 -4)" fill="#e32728"/>
          </g>
          <g id="Effect_Line" data-name="Effect Line" transform="translate(0.925 0.925)">
            <path id="Trazado_1047470" data-name="Trazado 1047470" d="M39.816,44.2a.693.693,0,0,1-.491-.2l-3.257-3.258a.231.231,0,1,1,.327-.327l3.257,3.257a.232.232,0,0,0,.328,0,.231.231,0,1,1,.327.328A.693.693,0,0,1,39.816,44.2Z" transform="translate(-29.287 -32.625)" fill="#aa1d1e"/>
            <path id="Trazado_1047471" data-name="Trazado 1047471" d="M13.241,10.162a.231.231,0,0,1-.164-.068L10.514,7.531a.234.234,0,0,0-.224-.06.232.232,0,1,1-.118-.448.7.7,0,0,1,.669.18L13.4,9.767a.231.231,0,0,1-.164.4Z" transform="translate(-9.305 -7.001)" fill="#ee7d7e"/>
            <path id="Trazado_1047472" data-name="Trazado 1047472" d="M7.368,40.375a.231.231,0,0,1-.164-.068.7.7,0,0,1,0-.982l3.258-3.257a.231.231,0,1,1,.327.327L7.532,39.652a.232.232,0,0,0,0,.328.231.231,0,0,1-.164.4Z" transform="translate(-7.001 -29.287)" fill="#aa1d1e"/>
            <path id="Trazado_1047473" data-name="Trazado 1047473" d="M43.575,13.472a.231.231,0,0,1-.164-.4l2.563-2.563a.233.233,0,0,0,.06-.224.232.232,0,0,1,.448-.118.7.7,0,0,1-.18.669L43.739,13.4a.231.231,0,0,1-.164.068Z" transform="translate(-34.931 -9.306)" fill="#ee7d7e"/>
            <circle id="Elipse_12904" data-name="Elipse 12904" cx="0.231" cy="0.231" r="0.231" transform="translate(0 0.694)" fill="#ee7d7e"/>
            <circle id="Elipse_12905" data-name="Elipse 12905" cx="0.231" cy="0.231" r="0.231" transform="translate(10.417 0)" fill="#ee7d7e"/>
          </g>
          <g id="Line" transform="translate(0)">
            <path id="Trazado_1047474" data-name="Trazado 1047474" d="M14.457,16.427a1.615,1.615,0,0,1-1.146-.474l-3.6-3.6-3.6,3.6a1.622,1.622,0,0,1-2.292,0L3.477,15.6a1.622,1.622,0,0,1,0-2.292l3.6-3.6-3.6-3.6a1.622,1.622,0,0,1,0-2.292l.351-.351a1.622,1.622,0,0,1,2.292,0l3.6,3.6,3.6-3.6a1.622,1.622,0,0,1,2.292,0l.351.351a1.622,1.622,0,0,1,0,2.292l-3.6,3.6,3.6,3.6a1.622,1.622,0,0,1,0,2.292l-.351.351a1.615,1.615,0,0,1-1.146.474ZM9.715,11.8a.231.231,0,0,1,.164.068l3.76,3.76a1.157,1.157,0,0,0,1.637,0l.351-.351a1.157,1.157,0,0,0,0-1.637l-3.76-3.76a.231.231,0,0,1,0-.327l3.76-3.76a1.157,1.157,0,0,0,0-1.637L15.276,3.8a1.157,1.157,0,0,0-1.637,0l-3.76,3.76a.231.231,0,0,1-.327,0L5.791,3.8a1.157,1.157,0,0,0-1.637,0L3.8,4.155a1.157,1.157,0,0,0,0,1.637l3.76,3.76a.231.231,0,0,1,0,.327L3.8,13.639a1.157,1.157,0,0,0,0,1.637l.351.351a1.157,1.157,0,0,0,1.637,0l3.76-3.76a.231.231,0,0,1,.164-.068Z" transform="translate(-3.003 -3.003)"/>
          </g>
        </g>
      </g>
    </g>
  </g>
</svg>
