<svg xmlns="http://www.w3.org/2000/svg" xmlns:xlink="http://www.w3.org/1999/xlink" width="118" height="118" viewBox="0 0 118 118">
  <defs>
    <filter id="Trazado_982547" x="0" y="0" width="118" height="118" filterUnits="userSpaceOnUse">
      <feOffset dy="3" input="SourceAlpha"/>
      <feGaussianBlur stdDeviation="3" result="blur"/>
      <feFlood flood-opacity="0.161"/>
      <feComposite operator="in" in2="blur"/>
      <feComposite in="SourceGraphic"/>
    </filter>
  </defs>
  <g id="Grupo_1202384" data-name="Grupo 1202384" transform="translate(-321.796 -3473.017)">
    <g id="Grupo_1202235" data-name="Grupo 1202235" transform="translate(330.796 3479.017)">
      <g id="Grupo_1201680" data-name="Grupo 1201680">
        <g id="Grupo_1201330" data-name="Grupo 1201330">
          <g id="Grupo_1172010" data-name="Grupo 1172010">
            <g id="Grupo_1171046" data-name="Grupo 1171046">
              <g id="Grupo_1148525" data-name="Grupo 1148525">
                <g transform="matrix(1, 0, 0, 1, -9, -6)" filter="url(#Trazado_982547)">
                  <g id="Trazado_982547-2" data-name="Trazado 982547" transform="translate(9 6)" fill="#effbfe">
                    <path d="M 50 98.5 C 43.45188522338867 98.5 37.10042953491211 97.21787261962891 31.12207221984863 94.68923950195312 C 25.34691429138184 92.24655914306641 20.15997123718262 88.74931335449219 15.70532894134521 84.29468536376953 C 11.2506856918335 79.84004211425781 7.753442764282227 74.65309906005859 5.310757160186768 68.8779296875 C 2.782128572463989 62.89957046508789 1.5 56.54811477661133 1.5 50 C 1.5 43.45188522338867 2.782128572463989 37.10042953491211 5.310757160186768 31.12207221984863 C 7.753442764282227 25.34691429138184 11.2506856918335 20.15997123718262 15.70532894134521 15.70532894134521 C 20.15997123718262 11.2506856918335 25.34691429138184 7.753442764282227 31.12207221984863 5.310757160186768 C 37.10042953491211 2.782128572463989 43.45188522338867 1.5 50 1.5 C 56.54811477661133 1.5 62.89957046508789 2.782128572463989 68.8779296875 5.310757160186768 C 74.65309906005859 7.753442764282227 79.84004211425781 11.2506856918335 84.29468536376953 15.70532894134521 C 88.74931335449219 20.15997123718262 92.24655914306641 25.34691429138184 94.68923950195312 31.12207221984863 C 97.21787261962891 37.10042953491211 98.5 43.45188522338867 98.5 50 C 98.5 56.54811477661133 97.21787261962891 62.89957046508789 94.68923950195312 68.8779296875 C 92.24655914306641 74.65309906005859 88.74931335449219 79.84004211425781 84.29468536376953 84.29468536376953 C 79.84004211425781 88.74931335449219 74.65309906005859 92.24655914306641 68.8779296875 94.68923950195312 C 62.89957046508789 97.21787261962891 56.54811477661133 98.5 50 98.5 Z" stroke="none"/>
                    <path d="M 50 3 C 43.65372467041016 3 37.49886322021484 4.242263793945312 31.70639801025391 6.6922607421875 C 26.11003112792969 9.059326171875 21.08335113525391 12.44861602783203 16.76598358154297 16.76598358154297 C 12.44861602783203 21.08335113525391 9.059326171875 26.11003112792969 6.6922607421875 31.70639801025391 C 4.242263793945312 37.49886322021484 3 43.65372467041016 3 50 C 3 56.34627532958984 4.242263793945312 62.50113677978516 6.6922607421875 68.29360198974609 C 9.059326171875 73.88996887207031 12.44861602783203 78.91666412353516 16.76598358154297 83.23401641845703 C 21.08335113525391 87.55138397216797 26.11003112792969 90.940673828125 31.70639801025391 93.3077392578125 C 37.49886322021484 95.75773620605469 43.65372467041016 97 50 97 C 56.34627532958984 97 62.50113677978516 95.75773620605469 68.29360198974609 93.3077392578125 C 73.88996887207031 90.940673828125 78.91666412353516 87.55138397216797 83.23401641845703 83.23401641845703 C 87.55138397216797 78.91666412353516 90.940673828125 73.88996887207031 93.3077392578125 68.29360198974609 C 95.75773620605469 62.50113677978516 97 56.34627532958984 97 50 C 97 43.65372467041016 95.75773620605469 37.49886322021484 93.3077392578125 31.70639801025391 C 90.940673828125 26.11003112792969 87.55138397216797 21.08335113525391 83.23401641845703 16.76598358154297 C 78.91666412353516 12.44861602783203 73.88996887207031 9.059326171875 68.29360198974609 6.6922607421875 C 62.50113677978516 4.242263793945312 56.34627532958984 3 50 3 M 50 0 C 77.61424255371094 0 100 22.38577270507812 100 50 C 100 77.61424255371094 77.61424255371094 100 50 100 C 22.38577270507812 100 0 77.61424255371094 0 50 C 0 22.38577270507812 22.38577270507812 0 50 0 Z" stroke="none" fill="#497f88"/>
                  </g>
                </g>
              </g>
            </g>
          </g>
        </g>
      </g>
    </g>
    <g id="hands_4795329" transform="translate(311.952 3495.123)">
      <path id="Trazado_1047579" data-name="Trazado 1047579" d="M82.159,17.533H79.775V16.209A3.972,3.972,0,0,0,75.8,12.237H73.42v-.265A3.972,3.972,0,0,0,69.448,8H67.065V18.327a3.972,3.972,0,0,0-3.972-3.972H60.75l-.04,27.539-5.221-7.34a3.972,3.972,0,0,0-4.852-.6L48,35.539,58.592,53.545l5.3,5.3V73.669H81.894V60.959L86.13,50.367V21.5a3.972,3.972,0,0,0-3.972-3.972Z" transform="translate(-6.942 -6.941)" fill="#fbb8b0"/>
      <path id="Trazado_1047580" data-name="Trazado 1047580" d="M239.888,155.539l-13.561-13.769a8.154,8.154,0,0,1,0-11.407,7.859,7.859,0,0,1,11.234,0l2.327,2.362,2.327-2.362a7.859,7.859,0,0,1,11.234,0,8.154,8.154,0,0,1,0,11.407Z" transform="translate(-159.64 -111.053)" fill="#f94267"/>
      <path id="Trazado_1047581" data-name="Trazado 1047581" d="M215.3,214.355h-2.118v-.7a2.479,2.479,0,0,0-2.479-2.479h-1.758v-.228A2.958,2.958,0,0,0,206,208H204.71v7.01a2.749,2.749,0,0,0-2.538-2.773h-1.7l-.025,14.828-3.664-4.553a2.538,2.538,0,0,0-3.1-.382L192,223.142l6.355,11.338,4.237,3.178v9.533h11.651v-8.473l3.178-6.414V216.473A2.118,2.118,0,0,0,215.3,214.355Z" transform="translate(-131.877 -180.461)" fill="#ffd4cf"/>
      <path id="Trazado_1047582" data-name="Trazado 1047582" d="M184,136h2.118v13.769H184Z" transform="translate(-124.936 -117.994)"/>
      <path id="Trazado_1047583" data-name="Trazado 1047583" d="M68.861,4.237H67.475A5.039,5.039,0,0,0,62.506,0H60.123a1.059,1.059,0,0,0-1.059,1.059V7.286a5,5,0,0,0-2.913-.931H53.808a1.059,1.059,0,0,0-1.059,1.058l-.035,24.23L49.41,27a1.056,1.056,0,0,0-.114-.135,5.024,5.024,0,0,0-6.146-.756L40.513,27.69a1.059,1.059,0,0,0-.368,1.445l6.23,10.592L48.2,38.653l-5.7-9.687,1.736-1.042a2.908,2.908,0,0,1,3.5.381L52.9,35.567a1.059,1.059,0,0,0,1.922-.612l.038-26.481h1.286a2.916,2.916,0,0,1,2.913,2.913v4.5h2.118V2.118h1.324a2.916,2.916,0,0,1,2.913,2.913V19.065h.056a9.232,9.232,0,0,0,.457,12.394l1.6,1.628L67.517,43.6l-1.785-2.217a1.084,1.084,0,0,0-.076-.085,3.591,3.591,0,0,0-4.394-.541l-1.684,1.011A1.059,1.059,0,0,0,59.2,43.2l6.355,11.338a1.061,1.061,0,0,0,.288.329l3.813,2.86v7.944H58V51.9a1.059,1.059,0,0,0-.31-.749l-5.2-5.2-3.108-5.285-1.827,1.074,3.178,5.4a1.065,1.065,0,0,0,.164.212l4.986,4.986v14.39a1.059,1.059,0,0,0,1.059,1.059h25.42a1.059,1.059,0,0,0,1.059-1.059V58.5l3.067-6.192a1.059,1.059,0,0,0,.11-.47V48.722H84.484v2.871l-3.067,6.192a1.06,1.06,0,0,0-.11.47v7.414H71.774V57.2a1.059,1.059,0,0,0-.424-.847l-4.058-3.043L61.55,43.059l.8-.482a1.476,1.476,0,0,1,1.771.188l3.623,4.5a1.059,1.059,0,0,0,1.884-.662l.023-13.771H70.3a1.7,1.7,0,0,1,1.478,1.714v9.937h2.118V28.6h.228a1.892,1.892,0,0,1,1.89,1.89v14h2.118V31.775h.7a1.421,1.421,0,0,1,1.42,1.42V44.486h2.118V34.953h1.059a1.06,1.06,0,0,1,1.059,1.059V46.6H86.6V39.542l4.831-4.905L89.924,33.15,86.6,36.523v-.511a3.181,3.181,0,0,0-3.178-3.178H82.348a3.543,3.543,0,0,0-3.52-3.178h-.785a4.016,4.016,0,0,0-3.922-3.178H72.833a1.059,1.059,0,0,0-1.059,1.059v3.542a3.251,3.251,0,0,0-1.478-.364H68.6a1.06,1.06,0,0,0-.361.063l-.794-.806a7.1,7.1,0,0,1,0-9.92,6.8,6.8,0,0,1,9.725,0l2.327,2.362a1.059,1.059,0,0,0,1.509,0l2.327-2.362a6.8,6.8,0,0,1,9.725,0,7.1,7.1,0,0,1,0,9.92l-1.91,1.939L92.653,33.4l1.91-1.939a9.227,9.227,0,0,0,0-12.893,8.918,8.918,0,0,0-12.743,0l-1.572,1.6v-5.6a5.037,5.037,0,0,0-5.031-5.031H73.892V9.268a5.037,5.037,0,0,0-5.031-5.031Zm2.913,5.031V15.9a8.84,8.84,0,0,0-4.237,1.364V6.355h1.324a2.916,2.916,0,0,1,2.913,2.913Zm3.442,2.383a2.916,2.916,0,0,1,2.913,2.913v3.491a8.863,8.863,0,0,0-4.237-2.026V11.651Z"/>
    </g>
  </g>
</svg>
