<svg xmlns="http://www.w3.org/2000/svg" xmlns:xlink="http://www.w3.org/1999/xlink" width="118" height="118" viewBox="0 0 118 118">
  <defs>
    <filter id="Trazado_982547" x="0" y="0" width="118" height="118" filterUnits="userSpaceOnUse">
      <feOffset dy="3" input="SourceAlpha"/>
      <feGaussianBlur stdDeviation="3" result="blur"/>
      <feFlood flood-opacity="0.161"/>
      <feComposite operator="in" in2="blur"/>
      <feComposite in="SourceGraphic"/>
    </filter>
  </defs>
  <g id="Grupo_1202392" data-name="Grupo 1202392" transform="translate(-1161.796 -3473.017)">
    <g id="Grupo_1202234" data-name="Grupo 1202234" transform="translate(1170.796 3479.017)">
      <g id="Grupo_1201680" data-name="Grupo 1201680">
        <g id="Grupo_1201330" data-name="Grupo 1201330">
          <g id="Grupo_1172010" data-name="Grupo 1172010">
            <g id="Grupo_1171046" data-name="Grupo 1171046">
              <g id="Grupo_1148525" data-name="Grupo 1148525">
                <g transform="matrix(1, 0, 0, 1, -9, -6)" filter="url(#Trazado_982547)">
                  <g id="Trazado_982547-2" data-name="Trazado 982547" transform="translate(9 6)" fill="#effbfe">
                    <path d="M 50 98.5 C 43.45188522338867 98.5 37.10042953491211 97.21787261962891 31.12207221984863 94.68923950195312 C 25.34691429138184 92.24655914306641 20.15997123718262 88.74931335449219 15.70532894134521 84.29468536376953 C 11.2506856918335 79.84004211425781 7.753442764282227 74.65309906005859 5.310757160186768 68.8779296875 C 2.782128572463989 62.89957046508789 1.5 56.54811477661133 1.5 50 C 1.5 43.45188522338867 2.782128572463989 37.10042953491211 5.310757160186768 31.12207221984863 C 7.753442764282227 25.34691429138184 11.2506856918335 20.15997123718262 15.70532894134521 15.70532894134521 C 20.15997123718262 11.2506856918335 25.34691429138184 7.753442764282227 31.12207221984863 5.310757160186768 C 37.10042953491211 2.782128572463989 43.45188522338867 1.5 50 1.5 C 56.54811477661133 1.5 62.89957046508789 2.782128572463989 68.8779296875 5.310757160186768 C 74.65309906005859 7.753442764282227 79.84004211425781 11.2506856918335 84.29468536376953 15.70532894134521 C 88.74931335449219 20.15997123718262 92.24655914306641 25.34691429138184 94.68923950195312 31.12207221984863 C 97.21787261962891 37.10042953491211 98.5 43.45188522338867 98.5 50 C 98.5 56.54811477661133 97.21787261962891 62.89957046508789 94.68923950195312 68.8779296875 C 92.24655914306641 74.65309906005859 88.74931335449219 79.84004211425781 84.29468536376953 84.29468536376953 C 79.84004211425781 88.74931335449219 74.65309906005859 92.24655914306641 68.8779296875 94.68923950195312 C 62.89957046508789 97.21787261962891 56.54811477661133 98.5 50 98.5 Z" stroke="none"/>
                    <path d="M 50 3 C 43.65372467041016 3 37.49886322021484 4.242263793945312 31.70639801025391 6.6922607421875 C 26.11003112792969 9.059326171875 21.08335113525391 12.44861602783203 16.76598358154297 16.76598358154297 C 12.44861602783203 21.08335113525391 9.059326171875 26.11003112792969 6.6922607421875 31.70639801025391 C 4.242263793945312 37.49886322021484 3 43.65372467041016 3 50 C 3 56.34627532958984 4.242263793945312 62.50113677978516 6.6922607421875 68.29360198974609 C 9.059326171875 73.88996887207031 12.44861602783203 78.91666412353516 16.76598358154297 83.23401641845703 C 21.08335113525391 87.55138397216797 26.11003112792969 90.940673828125 31.70639801025391 93.3077392578125 C 37.49886322021484 95.75773620605469 43.65372467041016 97 50 97 C 56.34627532958984 97 62.50113677978516 95.75773620605469 68.29360198974609 93.3077392578125 C 73.88996887207031 90.940673828125 78.91666412353516 87.55138397216797 83.23401641845703 83.23401641845703 C 87.55138397216797 78.91666412353516 90.940673828125 73.88996887207031 93.3077392578125 68.29360198974609 C 95.75773620605469 62.50113677978516 97 56.34627532958984 97 50 C 97 43.65372467041016 95.75773620605469 37.49886322021484 93.3077392578125 31.70639801025391 C 90.940673828125 26.11003112792969 87.55138397216797 21.08335113525391 83.23401641845703 16.76598358154297 C 78.91666412353516 12.44861602783203 73.88996887207031 9.059326171875 68.29360198974609 6.6922607421875 C 62.50113677978516 4.242263793945312 56.34627532958984 3 50 3 M 50 0 C 77.61424255371094 0 100 22.38577270507812 100 50 C 100 77.61424255371094 77.61424255371094 100 50 100 C 22.38577270507812 100 0 77.61424255371094 0 50 C 0 22.38577270507812 22.38577270507812 0 50 0 Z" stroke="none" fill="#497f88"/>
                  </g>
                </g>
              </g>
            </g>
          </g>
        </g>
      </g>
    </g>
    <g id="pediatric_15192722" transform="translate(1153.421 3497.63)">
      <g id="Grupo_1202391" data-name="Grupo 1202391" transform="translate(38.371 0.988)">
        <g id="Grupo_1202385" data-name="Grupo 1202385" transform="translate(10.099 0)">
          <path id="Trazado_1047584" data-name="Trazado 1047584" d="M156.89,16.729V30.383H144.343V42.93H130.689V30.383H118.142V16.729h12.547V4.182h13.654V16.729Z" transform="translate(-118.142 -4.182)" fill="#08a9f1" fill-rule="evenodd"/>
        </g>
        <g id="Grupo_1202386" data-name="Grupo 1202386" transform="translate(23.874 15.194)">
          <path id="Trazado_1047585" data-name="Trazado 1047585" d="M246.978,120.773v8.973H234.43v12.547h-4.859a13.533,13.533,0,0,1-3.084-4.217,5.776,5.776,0,0,1,0-11.258,14.327,14.327,0,0,1,13.015-8.08A14.724,14.724,0,0,1,246.978,120.773Z" transform="translate(-222.005 -118.739)" fill="#009fe8" fill-rule="evenodd"/>
        </g>
        <g id="Grupo_1202387" data-name="Grupo 1202387" transform="translate(0 45.866)">
          <path id="Trazado_1047586" data-name="Trazado 1047586" d="M42,355.07l10.118,15.863,7.947-5.065L49.947,350Z" transform="translate(-42 -350.002)" fill="#8399fe" fill-rule="evenodd"/>
        </g>
        <g id="Grupo_1202388" data-name="Grupo 1202388" transform="translate(9.034 41.83)">
          <path id="Trazado_1047587" data-name="Trazado 1047587" d="M121.71,334.148l13.289,4.4a6.819,6.819,0,0,0,6-.757l15.228-9.764a3.518,3.518,0,1,0-3.8-5.924l-10.566,6.772a3.533,3.533,0,0,0-2.4-3.616l-16.14-5.338a6.182,6.182,0,0,0-5.327.6l-7.878,4.795,6.551,10.273.749,1.171Z" transform="translate(-110.113 -319.577)" fill="#f7c5b8" fill-rule="evenodd"/>
        </g>
        <g id="Grupo_1202389" data-name="Grupo 1202389" transform="translate(26.547 25.802)">
          <path id="Trazado_1047588" data-name="Trazado 1047588" d="M245.261,198.722h2.11v6.205h-2.11a3.1,3.1,0,1,1,0-6.205Zm21.33,0H268.7a3.1,3.1,0,0,1,0,6.205h-2.114Z" transform="translate(-242.158 -198.722)" fill="#fcac8f" fill-rule="evenodd"/>
        </g>
        <g id="Grupo_1202390" data-name="Grupo 1202390" transform="translate(29.775 17.87)">
          <path id="Trazado_1047589" data-name="Trazado 1047589" d="M278.094,160.989c6.384,0,11.593-4.958,11.593-11.034s-5.209-11.034-11.593-11.034-11.6,4.954-11.6,11.034S271.706,160.989,278.094,160.989Z" transform="translate(-266.497 -138.921)" fill="#f7c5b8" fill-rule="evenodd"/>
        </g>
      </g>
      <path id="Trazado_1047590" data-name="Trazado 1047590" d="M48.709,28.21H60.161V39.666a.927.927,0,0,0,.927.927H74.2a12.777,12.777,0,0,0,5.375,1.174,12.368,12.368,0,0,0,11.642-7.829,3.987,3.987,0,0,0,0-7.973A11.839,11.839,0,0,0,87.875,21.2V13.809a.927.927,0,0,0-.927-.927H75.493V1.427A.927.927,0,0,0,74.566.5H61.088a.927.927,0,0,0-.927.927V12.883H48.709a.927.927,0,0,0-.927.927V27.284A.927.927,0,0,0,48.709,28.21Zm44.562,1.741a2.139,2.139,0,0,1-1.518,2.043,11.344,11.344,0,0,0,0-4.087A2.139,2.139,0,0,1,93.271,29.951Zm-3.186,0a10.261,10.261,0,0,1-10.514,9.962c-5.8,0-10.518-4.469-10.518-9.962a9.967,9.967,0,0,1,6.215-9.087A4.178,4.178,0,0,0,82.01,25.4a.927.927,0,0,0-1.252-1.367,2.324,2.324,0,1,1-1.85-4.019c.22-.013.441-.022.664-.022a10.261,10.261,0,0,1,10.514,9.962ZM49.636,14.736H61.088a.927.927,0,0,0,.927-.927V2.354H73.639V13.809a.927.927,0,0,0,.927.927H86.022v5.138a12.723,12.723,0,0,0-6.45-1.738c-.119,0-.238,0-.357.005h-.03a4.2,4.2,0,0,0-.439.023,12.334,12.334,0,0,0-10.821,7.8,3.987,3.987,0,0,0,0,7.973,11.842,11.842,0,0,0,3.385,4.8h-9.3V27.284a.927.927,0,0,0-.927-.927H49.636V14.736Zm17.75,17.259a2.134,2.134,0,0,1,0-4.087,11.335,11.335,0,0,0,0,4.087ZM95,45.746a4.408,4.408,0,0,0-6.079-1.326l-9.187,5.888a4.391,4.391,0,0,0-2.821-2.873L60.982,42.167a7.029,7.029,0,0,0-6.031.685l-7,4.259-.586-.919a.927.927,0,0,0-1.28-.283l-7.842,5a.927.927,0,0,0-.283,1.28l9.985,15.654a.926.926,0,0,0,1.279.283l7.842-5a.927.927,0,0,0,.283-1.28l-1.2-1.881L59.219,58.1l12.707,4.207a8.018,8.018,0,0,0,2.526.419,7.7,7.7,0,0,0,4.187-1.266l15.026-9.635A4.409,4.409,0,0,0,95,45.746ZM49.011,66.067,40.023,51.975l6.279-4,.559.877.005.01.015.023L55.29,62.065Zm44.765-17.4a2.522,2.522,0,0,1-1.11,1.6L77.639,59.9a5.835,5.835,0,0,1-5.13.647L59.394,56.208a.927.927,0,0,0-.773.088l-3.466,2.11L48.95,48.674l6.965-4.239a5.161,5.161,0,0,1,4.484-.509l15.928,5.268a2.576,2.576,0,0,1,1.742,2.514.922.922,0,0,0-.019.1,2.829,2.829,0,0,1-1.213,2.032,2.41,2.41,0,0,1-2.112.186l-7.253-2.4a.927.927,0,1,0-.583,1.76l7.254,2.4a4.778,4.778,0,0,0,1.5.248,4.043,4.043,0,0,0,2.194-.632,4.623,4.623,0,0,0,1.987-2.957l10.1-6.47a2.542,2.542,0,0,1,3.858,2.688ZM76.926,28.987a2.854,2.854,0,0,1-5.707,0,.927.927,0,1,1,1.854,0,1,1,0,0,0,2,0,.927.927,0,1,1,1.854,0Zm10.067-.927a.927.927,0,0,1,.927.927,2.852,2.852,0,0,1-5.7,0,.927.927,0,1,1,1.854,0,1,1,0,0,0,2,0A.927.927,0,0,1,86.993,28.06Zm-6.5,6.109v2.037a.927.927,0,0,1-1.854,0V34.169a.927.927,0,0,1,1.854,0Z" transform="translate(0)"/>
    </g>
  </g>
</svg>
