<svg xmlns="http://www.w3.org/2000/svg" xmlns:xlink="http://www.w3.org/1999/xlink" width="108" height="108" viewBox="0 0 108 108">
  <defs>
    <filter id="Trazado_904820" x="0" y="0" width="108" height="108" filterUnits="userSpaceOnUse">
      <feOffset dy="3" input="SourceAlpha"/>
      <feGaussianBlur stdDeviation="3" result="blur"/>
      <feFlood flood-opacity="0.161"/>
      <feComposite operator="in" in2="blur"/>
      <feComposite in="SourceGraphic"/>
    </filter>
    <clipPath id="clip-path">
      <path id="path10645" d="M0-682.665H60.268V-622.4H0Z" transform="translate(0 682.665)"/>
    </clipPath>
  </defs>
  <g id="Grupo_1201662" data-name="Grupo 1201662" transform="translate(9 6)">
    <g id="Grupo_1173585" data-name="Grupo 1173585" transform="translate(0 0)">
      <g id="Grupo_1173428" data-name="Grupo 1173428">
        <g id="Grupo_1171958" data-name="Grupo 1171958">
          <g id="Grupo_1167341" data-name="Grupo 1167341">
            <g id="Grupo_1166792" data-name="Grupo 1166792">
              <g transform="matrix(1, 0, 0, 1, -9, -6)" filter="url(#Trazado_904820)">
                <g id="Trazado_904820-2" data-name="Trazado 904820" transform="translate(9 6)" fill="#edf3fc">
                  <path d="M 44.99999618530273 88.49999237060547 C 39.12687301635742 88.49999237060547 33.43022155761719 87.35006713867188 28.06829643249512 85.08216857910156 C 22.88852119445801 82.89130401611328 18.23629570007324 79.75457763671875 14.24084663391113 75.75914001464844 C 10.24540901184082 71.76369476318359 7.108683586120605 67.11146545410156 4.917821407318115 61.93169403076172 C 2.649921178817749 56.56976699829102 1.499996185302734 50.87311553955078 1.499996185302734 44.99999237060547 C 1.499996185302734 39.12686920166016 2.649921178817749 33.43021774291992 4.917821407318115 28.06829261779785 C 7.108683586120605 22.88851737976074 10.24540901184082 18.23630523681641 14.24084663391113 14.24085521697998 C 18.23629570007324 10.24540519714355 22.88852119445801 7.108692169189453 28.06829643249512 4.917829990386963 C 33.43022155761719 2.649929761886597 39.12687301635742 1.500004887580872 44.99999618530273 1.500004887580872 C 50.87311935424805 1.500004887580872 56.56977081298828 2.649929761886597 61.93169784545898 4.917829990386963 C 67.11147308349609 7.108692169189453 71.76369476318359 10.24540519714355 75.75914764404297 14.24085521697998 C 79.75458526611328 18.23630523681641 82.89131164550781 22.88851737976074 85.08216857910156 28.06829261779785 C 87.35007476806641 33.43021774291992 88.5 39.12686920166016 88.5 44.99999237060547 C 88.5 50.87311553955078 87.35007476806641 56.56976699829102 85.08216857910156 61.93169403076172 C 82.89131164550781 67.11146545410156 79.75458526611328 71.76369476318359 75.75914764404297 75.75914001464844 C 71.76369476318359 79.75457763671875 67.11147308349609 82.89130401611328 61.93169784545898 85.08216857910156 C 56.56977081298828 87.35006713867188 50.87311935424805 88.49999237060547 44.99999618530273 88.49999237060547 Z" stroke="none"/>
                  <path d="M 44.99999618530273 2.999992370605469 C 39.32870864868164 2.999992370605469 33.82865142822266 4.11004638671875 28.65262603759766 6.299331665039062 C 23.65165710449219 8.414566040039062 19.15968322753906 11.44333648681641 15.301513671875 15.30150604248047 C 11.44333648681641 19.15967559814453 8.414566040039062 23.65164947509766 6.299339294433594 28.65262222290039 C 4.110054016113281 33.82864761352539 2.999992370605469 39.32870483398438 2.999992370605469 44.99999237060547 C 2.999992370605469 50.67127990722656 4.110054016113281 56.17132186889648 6.299339294433594 61.34736633300781 C 8.414566040039062 66.34833526611328 11.44333648681641 70.84029388427734 15.301513671875 74.69846343994141 C 19.15968322753906 78.55663299560547 23.65165710449219 81.58540344238281 28.65262603759766 83.70063781738281 C 33.82865142822266 85.88992309570312 39.32870864868164 86.99997711181641 44.99999618530273 86.99997711181641 C 50.67128372192383 86.99997711181641 56.17134094238281 85.88992309570312 61.34736633300781 83.70063781738281 C 66.34834289550781 81.58540344238281 70.84030914306641 78.55663299560547 74.69847869873047 74.69846343994141 C 78.55665588378906 70.84029388427734 81.58542633056641 66.34833526611328 83.70065307617188 61.34736633300781 C 85.88993835449219 56.17132186889648 87 50.67127990722656 87 44.99999237060547 C 87 39.32870483398438 85.88993835449219 33.82864761352539 83.70065307617188 28.65262222290039 C 81.58542633056641 23.65164947509766 78.55665588378906 19.15967559814453 74.69847869873047 15.30150604248047 C 70.84030914306641 11.44333648681641 66.34834289550781 8.414566040039062 61.34736633300781 6.299331665039062 C 56.17134094238281 4.11004638671875 50.67128372192383 2.999992370605469 44.99999618530273 2.999992370605469 M 44.99999618530273 -7.62939453125e-06 C 69.85281372070312 -7.62939453125e-06 90 20.14717864990234 90 44.99999237060547 C 90 69.85279083251953 69.85281372070312 89.99997711181641 44.99999618530273 89.99997711181641 C 20.14717864990234 89.99997711181641 -7.62939453125e-06 69.85279083251953 -7.62939453125e-06 44.99999237060547 C -7.62939453125e-06 20.14717864990234 20.14717864990234 -7.62939453125e-06 44.99999618530273 -7.62939453125e-06 Z" stroke="none" fill="#5692e8"/>
                </g>
              </g>
            </g>
          </g>
        </g>
      </g>
    </g>
    <g id="g10569" transform="translate(14.866 697.531)">
      <g id="g10571" transform="translate(17.492 -681.782)">
        <path id="path10573" d="M-49.857-604.163h15.581V-634.18l4.875-4.828v-21.131h-4.542v-1.2h-5.3v-1.327h-5.3v1.327h-5.3v9.574h-4.828v12.733l4.828,4.875Z" transform="translate(54.685 662.665)" fill="#ffdaaa"/>
      </g>
      <g id="g10575" transform="translate(0.883 -654.028)">
        <path id="path10577" d="M-35.513-317.542h11.1V-328l3.472-3.439V-346.49h-3.235v-.854h-3.779v-.945h-3.779v.945h-3.779v6.819h-3.439v9.07l3.439,3.472Z" transform="translate(38.952 348.29)" fill="#fff5cc"/>
      </g>
      <g id="g10579" transform="translate(41.905 -658.411)">
        <path id="path10581" d="M-34.468-362.809H-23.7v-15.439l3.37-3.338v-14.609h-3.14v-.829h-3.668v-.917H-30.8v.917h-3.668v6.619h-3.338v8.8l3.338,3.37Z" transform="translate(37.805 397.94)" fill="#ee8700"/>
      </g>
      <path id="path10583" d="M318.215-661.765h-5.3v-10.9h5.3Z" transform="translate(-285.285 -9.117)" fill="#ffdaaa"/>
      <g id="g10585" transform="translate(32.93 -680.456)">
        <path id="path10587" d="M-54.786,0V8.714h-5.3V0Z" transform="translate(60.091)" fill="#ffdaaa"/>
      </g>
      <path id="path10589" d="M437.63-636.955h-4.542v-7.094h4.542Z" transform="translate(-394.854 -35.207)" fill="#ffdaaa"/>
      <path id="path10591" d="M258.124-657.638h-5.3v9.574h5.3Z" transform="translate(-230.5 -22.817)" fill="#ffdaaa"/>
      <path id="path10593" d="M95.532-350.526H91.753v-7.764h3.779Z" transform="translate(-83.653 -295.738)" fill="#fff5cc"/>
      <path id="path10595" d="M138.334-341.379h-3.779v-6.207h3.779Z" transform="translate(-122.677 -305.497)" fill="#fff5cc"/>
      <path id="path10597" d="M180.593-332.854h-3.235v-5.053h3.235Z" transform="translate(-161.7 -314.321)" fill="#fff5cc"/>
      <path id="path10599" d="M52.729-347.586H48.951v6.819h3.779Z" transform="translate(-44.629 -305.497)" fill="#fff5cc"/>
      <path id="path10601" d="M557.682-400.406h-3.668v-7.536h3.668Z" transform="translate(-505.104 -250.47)" fill="#ee8700"/>
      <path id="path10603" d="M599.226-391.528h-3.668v-6.024h3.668Z" transform="translate(-542.981 -259.942)" fill="#ee8700"/>
      <path id="path10605" d="M640.241-383.252H637.1v-4.9h3.14Z" transform="translate(-580.856 -268.508)" fill="#ee8700"/>
      <path id="path10607" d="M516.138-397.552h-3.668v6.619h3.668Z" transform="translate(-467.228 -259.942)" fill="#ee8700"/>
      <g id="g10609" transform="translate(45.74 -670.918)">
        <path id="path10611" d="M-42.756-96.523l-4.14-5.133,2.212-1.784,2.11,2.616,4.824-5.045,2.054,1.964Z" transform="translate(46.896 105.869)" fill="#d7fc7e"/>
      </g>
      <g id="g10613" transform="translate(2.125 -668.142)">
        <path id="path10615" d="M-49.246-111.174l-4.769-5.912,2.547-2.055,2.43,3.013,5.557-5.811,2.366,2.262Z" transform="translate(54.015 121.94)" fill="#d7fc7e"/>
      </g>
      <path id="path10617" d="M52.729-347.586H48.951v6.819h3.779Z" transform="translate(-44.629 -305.497)" fill="#ffc477"/>
      <g id="g10619" transform="translate(17.492 -670.882)">
        <path id="path10621" d="M-36.469-131.5V-144.23H-40V-131.5l4.828,4.875v29.994h3.531v-29.994Z" transform="translate(40 144.23)" fill="#ff9478"/>
      </g>
      <path id="path10623" d="M256.351-657.638h-3.531v9.574h3.531Z" transform="translate(-230.5 -22.817)" fill="#ff9478"/>
      <g id="g10625" transform="translate(0.883 -653.083)">
        <path id="path10627" d="M-36.469-164.088v-9.07h3.439v-6.819h-3.531v6.819H-40v9.07l3.439,3.473v10.442h3.531v-10.442Z" transform="translate(40 179.977)" fill="#ffc477"/>
      </g>
      <g id="g10629" transform="translate(41.905 -657.494)">
        <path id="path10631" d="M-36.469-159.264v-8.8h3.338v-6.619h-3.531v6.619H-40v8.8l3.338,3.37v15.422h3.531v-15.422Z" transform="translate(40 174.686)" fill="#cd2a00"/>
      </g>
      <g id="g10633" transform="translate(45.74 -668.488)">
        <path id="path10635" d="M-36.469-18.421l.072-.058-1.392-1.726L-40-18.421l4.14,5.133,1.916-2Z" transform="translate(40 20.205)" fill="#4cba68"/>
      </g>
      <g id="g10637" transform="translate(2.125 -665.343)">
        <path id="path10639" d="M-36.469-21.217l.408-.329-1.392-1.726L-40-21.217l4.769,5.912,1.916-2Z" transform="translate(40 23.272)" fill="#4cba68"/>
      </g>
      <g id="g10641" transform="translate(0 -682.665)">
        <g id="g10643" clip-path="url(#clip-path)">
          <path id="path10649" d="M318.215-661.765h-5.3v-10.9h5.3Z" transform="translate(-285.285 673.548)" fill="none" stroke="#000" stroke-miterlimit="10" stroke-width="1"/>
          <g id="g10651" transform="translate(32.93 2.209)">
            <path id="path10653" d="M-54.786,0V8.714h-5.3V0Z" transform="translate(60.091)" fill="none" stroke="#000" stroke-miterlimit="10" stroke-width="1"/>
          </g>
          <g id="g10655" transform="translate(20.252 11.783)">
            <path id="path10657" d="M-21.354,0h6.373V2.837l-3,3h-5.441" transform="translate(23.421)" fill="none" stroke="#000" stroke-miterlimit="10" stroke-width="1"/>
          </g>
          <g id="g10659" transform="translate(24.472 17.62)">
            <path id="path10661" d="M0,0,2.59,2.59V6.768" fill="none" stroke="#000" stroke-miterlimit="10" stroke-width="1"/>
          </g>
          <path id="path10663" d="M437.63-636.955h-4.542v-7.094h4.542Z" transform="translate(-394.854 647.458)" fill="none" stroke="#000" stroke-miterlimit="10" stroke-width="1"/>
          <path id="path10665" d="M258.124-657.638h-5.3v9.574h5.3Z" transform="translate(-230.5 659.848)" fill="none" stroke="#000" stroke-miterlimit="10" stroke-width="1"/>
          <g id="g10667" transform="translate(32.93 15.445)">
            <path id="path10669" d="M0-107.659v-6.009l4.416-4.416" transform="translate(0 118.084)" fill="none" stroke="#000" stroke-miterlimit="10" stroke-width="1"/>
          </g>
          <g id="g10671" transform="translate(23.812 11.783)">
            <path id="path10673" d="M0-30.141V-33.06" transform="translate(0 33.06)" fill="none" stroke="#000" stroke-miterlimit="10" stroke-width="1"/>
          </g>
          <g id="g10675" transform="translate(22.32 29.391)">
            <path id="path10677" d="M0,0H7.957" fill="none" stroke="#000" stroke-miterlimit="10" stroke-width="1"/>
          </g>
          <g id="g10679" transform="translate(17.492 0.883)">
            <path id="path10681" d="M-49.857-604.163h15.581V-634.18l4.875-4.828v-21.131h-4.542v-1.2h-5.3v-1.327h-5.3v1.327h-5.3v9.574h-4.828v12.733l4.828,4.875Z" transform="translate(54.685 662.665)" fill="none" stroke="#000" stroke-miterlimit="10" stroke-width="1"/>
          </g>
          <g id="g10683" transform="translate(34.802 14.221)">
            <path id="path10685" d="M-50.347,0V9.026l-4.875,4.828" transform="translate(55.223)" fill="none" stroke="#fff" stroke-miterlimit="10" stroke-width="1" stroke-dasharray="15 10 15 10 350"/>
          </g>
          <path id="path10687" d="M95.532-350.526H91.753v-7.764h3.779Z" transform="translate(-83.653 386.927)" fill="none" stroke="#000" stroke-miterlimit="10" stroke-width="1"/>
          <path id="path10689" d="M138.334-341.379h-3.779v-6.207h3.779Z" transform="translate(-122.677 377.168)" fill="none" stroke="#000" stroke-miterlimit="10" stroke-width="1"/>
          <g id="g10691" transform="translate(2.849 36.401)">
            <path id="path10693" d="M-15.21,0h4.54V2.021l-2.137,2.137h-3.875" transform="translate(16.683)" fill="none" stroke="#000" stroke-miterlimit="10" stroke-width="1"/>
          </g>
          <g id="g10695" transform="translate(5.855 40.559)">
            <path id="path10697" d="M0,0,1.845,1.845V4.821" fill="none" stroke="#000" stroke-miterlimit="10" stroke-width="1"/>
          </g>
          <path id="path10699" d="M180.593-332.854h-3.235v-5.053h3.235Z" transform="translate(-161.7 368.344)" fill="none" stroke="#000" stroke-miterlimit="10" stroke-width="1"/>
          <path id="path10701" d="M52.729-347.586H48.951v6.819h3.779Z" transform="translate(-44.629 377.168)" fill="none" stroke="#000" stroke-miterlimit="10" stroke-width="1"/>
          <g id="g10703" transform="translate(11.879 39.01)">
            <path id="path10705" d="M0-76.685v-4.28L3.145-84.11" transform="translate(0 84.11)" fill="none" stroke="#000" stroke-miterlimit="10" stroke-width="1"/>
          </g>
          <g id="g10707" transform="translate(5.384 36.401)">
            <path id="path10709" d="M0-21.47v-2.079" transform="translate(0 23.549)" fill="none" stroke="#000" stroke-miterlimit="10" stroke-width="1"/>
          </g>
          <g id="g10711" transform="translate(4.322 48.943)">
            <path id="path10713" d="M0,0H5.668" fill="none" stroke="#000" stroke-miterlimit="10" stroke-width="1"/>
          </g>
          <g id="g10715" transform="translate(0.883 28.637)">
            <path id="path10717" d="M-35.513-317.542h11.1V-328l3.472-3.439V-346.49h-3.235v-.854h-3.779v-.945h-3.779v.945h-3.779v6.819h-3.439v9.07l3.439,3.472Z" transform="translate(38.952 348.29)" fill="none" stroke="#000" stroke-miterlimit="10" stroke-width="1"/>
          </g>
          <path id="path10719" d="M557.682-400.406h-3.668v-7.536h3.668Z" transform="translate(-505.104 432.195)" fill="none" stroke="#000" stroke-miterlimit="10" stroke-width="1"/>
          <path id="path10721" d="M599.226-391.528h-3.668v-6.024h3.668Z" transform="translate(-542.981 422.723)" fill="none" stroke="#000" stroke-miterlimit="10" stroke-width="1"/>
          <g id="g10723" transform="translate(43.813 31.789)">
            <path id="path10725" d="M-14.762,0h4.406V1.961l-2.074,2.074h-3.761" transform="translate(16.192)" fill="none" stroke="#000" stroke-miterlimit="10" stroke-width="1"/>
          </g>
          <g id="g10727" transform="translate(46.731 35.825)">
            <path id="path10729" d="M0,0,1.791,1.791V4.679" fill="none" stroke="#000" stroke-miterlimit="10" stroke-width="1"/>
          </g>
          <path id="path10731" d="M640.241-383.252H637.1v-4.9h3.14Z" transform="translate(-580.856 414.157)" fill="none" stroke="#000" stroke-miterlimit="10" stroke-width="1"/>
          <path id="path10733" d="M516.138-397.552h-3.668v6.619h3.668Z" transform="translate(-467.228 422.723)" fill="none" stroke="#000" stroke-miterlimit="10" stroke-width="1"/>
          <g id="g10735" transform="translate(52.578 34.321)">
            <path id="path10737" d="M0-74.43v-4.154l3.053-3.053" transform="translate(0 81.637)" fill="none" stroke="#000" stroke-miterlimit="10" stroke-width="1"/>
          </g>
          <g id="g10739" transform="translate(46.274 31.789)">
            <path id="path10741" d="M0-20.838v-2.018" transform="translate(0 22.856)" fill="none" stroke="#000" stroke-miterlimit="10" stroke-width="1"/>
          </g>
          <g id="g10743" transform="translate(45.243 43.963)">
            <path id="path10745" d="M0,0H5.5" fill="none" stroke="#000" stroke-miterlimit="10" stroke-width="1"/>
          </g>
          <g id="g10747" transform="translate(41.905 24.254)">
            <path id="path10749" d="M-34.468-362.809H-23.7v-15.439l3.37-3.338v-14.609h-3.14v-.829h-3.668v-.917H-30.8v.917h-3.668v6.619h-3.338v8.8l3.338,3.37Z" transform="translate(37.805 397.94)" fill="none" stroke="#000" stroke-miterlimit="10" stroke-width="1"/>
          </g>
          <g id="g10751" transform="translate(34.958 34.607)">
            <path id="path10753" d="M0,0V21.835" fill="none" stroke="#fff" stroke-miterlimit="10" stroke-width="1" stroke-dasharray="15 10 15 10 350"/>
          </g>
          <g id="g10755" transform="translate(45.74 11.747)">
            <path id="path10757" d="M-42.756-96.523l-4.14-5.133,2.212-1.784,2.11,2.616,4.824-5.045,2.054,1.964Z" transform="translate(46.896 105.869)" fill="none" stroke="#000" stroke-miterlimit="10" stroke-width="1"/>
          </g>
          <g id="g10759" transform="translate(2.125 14.523)">
            <path id="path10761" d="M-49.246-111.174l-4.769-5.912,2.547-2.055,2.43,3.013,5.557-5.811,2.366,2.262Z" transform="translate(54.015 121.94)" fill="none" stroke="#000" stroke-miterlimit="10" stroke-width="1"/>
          </g>
        </g>
      </g>
    </g>
  </g>
</svg>
