<svg xmlns="http://www.w3.org/2000/svg" xmlns:xlink="http://www.w3.org/1999/xlink" width="118" height="118" viewBox="0 0 118 118">
  <defs>
    <filter id="Trazado_982547" x="0" y="0" width="118" height="118" filterUnits="userSpaceOnUse">
      <feOffset dy="3" input="SourceAlpha"/>
      <feGaussianBlur stdDeviation="3" result="blur"/>
      <feFlood flood-opacity="0.161"/>
      <feComposite operator="in" in2="blur"/>
      <feComposite in="SourceGraphic"/>
    </filter>
  </defs>
  <g id="Grupo_1202239" data-name="Grupo 1202239" transform="translate(9 6)">
    <g id="Grupo_1201680" data-name="Grupo 1201680">
      <g id="Grupo_1201330" data-name="Grupo 1201330">
        <g id="Grupo_1172010" data-name="Grupo 1172010">
          <g id="Grupo_1171046" data-name="Grupo 1171046">
            <g id="Grupo_1148525" data-name="Grupo 1148525">
              <g transform="matrix(1, 0, 0, 1, -9, -6)" filter="url(#Trazado_982547)">
                <g id="Trazado_982547-2" data-name="Trazado 982547" transform="translate(9 6)" fill="#effbfe">
                  <path d="M 50 98.5 C 43.45188522338867 98.5 37.10042953491211 97.21787261962891 31.12207221984863 94.68923950195312 C 25.34691429138184 92.24655914306641 20.15997123718262 88.74931335449219 15.70532894134521 84.29468536376953 C 11.2506856918335 79.84004211425781 7.753442764282227 74.65309906005859 5.310757160186768 68.8779296875 C 2.782128572463989 62.89957046508789 1.5 56.54811477661133 1.5 50 C 1.5 43.45188522338867 2.782128572463989 37.10042953491211 5.310757160186768 31.12207221984863 C 7.753442764282227 25.34691429138184 11.2506856918335 20.15997123718262 15.70532894134521 15.70532894134521 C 20.15997123718262 11.2506856918335 25.34691429138184 7.753442764282227 31.12207221984863 5.310757160186768 C 37.10042953491211 2.782128572463989 43.45188522338867 1.5 50 1.5 C 56.54811477661133 1.5 62.89957046508789 2.782128572463989 68.8779296875 5.310757160186768 C 74.65309906005859 7.753442764282227 79.84004211425781 11.2506856918335 84.29468536376953 15.70532894134521 C 88.74931335449219 20.15997123718262 92.24655914306641 25.34691429138184 94.68923950195312 31.12207221984863 C 97.21787261962891 37.10042953491211 98.5 43.45188522338867 98.5 50 C 98.5 56.54811477661133 97.21787261962891 62.89957046508789 94.68923950195312 68.8779296875 C 92.24655914306641 74.65309906005859 88.74931335449219 79.84004211425781 84.29468536376953 84.29468536376953 C 79.84004211425781 88.74931335449219 74.65309906005859 92.24655914306641 68.8779296875 94.68923950195312 C 62.89957046508789 97.21787261962891 56.54811477661133 98.5 50 98.5 Z" stroke="none"/>
                  <path d="M 50 3 C 43.65372467041016 3 37.49886322021484 4.242263793945312 31.70639801025391 6.6922607421875 C 26.11003112792969 9.059326171875 21.08335113525391 12.44861602783203 16.76598358154297 16.76598358154297 C 12.44861602783203 21.08335113525391 9.059326171875 26.11003112792969 6.6922607421875 31.70639801025391 C 4.242263793945312 37.49886322021484 3 43.65372467041016 3 50 C 3 56.34627532958984 4.242263793945312 62.50113677978516 6.6922607421875 68.29360198974609 C 9.059326171875 73.88996887207031 12.44861602783203 78.91666412353516 16.76598358154297 83.23401641845703 C 21.08335113525391 87.55138397216797 26.11003112792969 90.940673828125 31.70639801025391 93.3077392578125 C 37.49886322021484 95.75773620605469 43.65372467041016 97 50 97 C 56.34627532958984 97 62.50113677978516 95.75773620605469 68.29360198974609 93.3077392578125 C 73.88996887207031 90.940673828125 78.91666412353516 87.55138397216797 83.23401641845703 83.23401641845703 C 87.55138397216797 78.91666412353516 90.940673828125 73.88996887207031 93.3077392578125 68.29360198974609 C 95.75773620605469 62.50113677978516 97 56.34627532958984 97 50 C 97 43.65372467041016 95.75773620605469 37.49886322021484 93.3077392578125 31.70639801025391 C 90.940673828125 26.11003112792969 87.55138397216797 21.08335113525391 83.23401641845703 16.76598358154297 C 78.91666412353516 12.44861602783203 73.88996887207031 9.059326171875 68.29360198974609 6.6922607421875 C 62.50113677978516 4.242263793945312 56.34627532958984 3 50 3 M 50 0 C 77.61424255371094 0 100 22.38577270507812 100 50 C 100 77.61424255371094 77.61424255371094 100 50 100 C 22.38577270507812 100 0 77.61424255371094 0 50 C 0 22.38577270507812 22.38577270507812 0 50 0 Z" stroke="none" fill="#497f88"/>
                </g>
              </g>
            </g>
          </g>
        </g>
      </g>
    </g>
    <g id="hands_4795329" transform="translate(-18.032 16.772)">
      <path id="Trazado_1047707" data-name="Trazado 1047707" d="M81.488,17.345H79.152v-1.3a3.894,3.894,0,0,0-3.894-3.894H72.921v-.26A3.894,3.894,0,0,0,69.027,8H66.691V18.124A3.894,3.894,0,0,0,62.8,14.23H60.5l-.039,27-5.119-7.2a3.894,3.894,0,0,0-4.757-.586L48,35,58.384,52.651l5.192,5.192V72.38H81.228V59.919l4.154-10.384v-28.3a3.894,3.894,0,0,0-3.894-3.894Z" transform="translate(-6.963 -6.962)" fill="#fbb8b0"/>
      <path id="Trazado_1047708" data-name="Trazado 1047708" d="M239.576,155l-13.295-13.5a7.993,7.993,0,0,1,0-11.183,7.7,7.7,0,0,1,11.014,0l2.281,2.316,2.281-2.316a7.7,7.7,0,0,1,11.014,0,7.993,7.993,0,0,1,0,11.183Z" transform="translate(-160.118 -111.386)" fill="#f94267"/>
      <path id="Trazado_1047709" data-name="Trazado 1047709" d="M214.844,214.23h-2.077v-.685a2.43,2.43,0,0,0-2.43-2.43h-1.723v-.224A2.9,2.9,0,0,0,205.723,208h-1.262v6.872a2.7,2.7,0,0,0-2.488-2.718h-1.666l-.025,14.537-3.592-4.463a2.488,2.488,0,0,0-3.039-.374l-1.651.991,6.23,11.115,4.154,3.115v9.345h11.422v-8.307l3.115-6.288V216.307A2.077,2.077,0,0,0,214.844,214.23Z" transform="translate(-132.272 -181.002)" fill="#ffd4cf"/>
      <path id="Trazado_1047710" data-name="Trazado 1047710" d="M184,136h2.077v13.5H184Z" transform="translate(-125.31 -118.347)"/>
      <path id="Trazado_1047711" data-name="Trazado 1047711" d="M68.295,4.154H66.935A4.94,4.94,0,0,0,62.064,0H59.728A1.038,1.038,0,0,0,58.69,1.038v6.1a4.9,4.9,0,0,0-2.856-.913h-2.3A1.038,1.038,0,0,0,52.5,7.267l-.034,23.754-3.239-4.553a1.036,1.036,0,0,0-.112-.132,4.925,4.925,0,0,0-6.025-.741L40.5,27.146a1.038,1.038,0,0,0-.361,1.417L46.25,38.947l1.79-1.053-5.586-9.5,1.7-1.021a2.851,2.851,0,0,1,3.431.373l5.065,7.119a1.038,1.038,0,0,0,1.885-.6l.037-25.961h1.261a2.859,2.859,0,0,1,2.856,2.856v4.413h2.077V2.077h1.3A2.859,2.859,0,0,1,64.92,4.932V18.691h.055a9.05,9.05,0,0,0,.448,12.151l1.572,1.6-.017,10.311-1.75-2.174a1.061,1.061,0,0,0-.075-.083,3.521,3.521,0,0,0-4.308-.53l-1.651.991a1.038,1.038,0,0,0-.372,1.4l6.23,11.115a1.04,1.04,0,0,0,.283.323l3.738,2.8V64.38H57.651v-13.5a1.038,1.038,0,0,0-.3-.734l-5.1-5.1L49.2,39.867,47.41,40.92l3.115,5.3a1.044,1.044,0,0,0,.161.208l4.888,4.888V65.418a1.038,1.038,0,0,0,1.038,1.038H81.534a1.038,1.038,0,0,0,1.038-1.038V57.354l3.007-6.07a1.038,1.038,0,0,0,.108-.461V47.766H83.611V50.58L80.6,56.65a1.039,1.039,0,0,0-.108.461V64.38H71.15V56.073a1.038,1.038,0,0,0-.415-.831l-3.978-2.984-5.63-10.044.787-.472a1.447,1.447,0,0,1,1.736.184L67.2,46.339a1.038,1.038,0,0,0,1.847-.649l.023-13.5H69.7a1.663,1.663,0,0,1,1.449,1.68v9.742h2.077V28.036h.224A1.855,1.855,0,0,1,75.3,29.89V43.612h2.077V31.152h.685a1.393,1.393,0,0,1,1.392,1.392V43.612h2.077V34.267h1.038a1.04,1.04,0,0,1,1.038,1.038V45.689h2.077V38.766l4.736-4.809L88.944,32.5l-3.257,3.307v-.5a3.119,3.119,0,0,0-3.115-3.115H81.516a3.474,3.474,0,0,0-3.451-3.115H77.3A3.937,3.937,0,0,0,73.45,25.96H72.189A1.038,1.038,0,0,0,71.15,27v3.472a3.188,3.188,0,0,0-1.449-.357H68.035a1.039,1.039,0,0,0-.354.062l-.779-.791a6.96,6.96,0,0,1,0-9.726,6.666,6.666,0,0,1,9.534,0l2.281,2.316a1.038,1.038,0,0,0,1.48,0l2.281-2.316a6.666,6.666,0,0,1,9.534,0,6.96,6.96,0,0,1,0,9.726l-1.873,1.9,1.48,1.457,1.872-1.9a9.046,9.046,0,0,0,0-12.64A8.743,8.743,0,0,0,81,18.2l-1.541,1.565V14.278a4.938,4.938,0,0,0-4.932-4.932h-1.3v-.26a4.938,4.938,0,0,0-4.932-4.932ZM71.15,9.086v6.505A8.666,8.666,0,0,0,67,16.928V6.23h1.3A2.859,2.859,0,0,1,71.15,9.086Zm3.375,2.336a2.859,2.859,0,0,1,2.856,2.856V17.7a8.689,8.689,0,0,0-4.154-1.986V11.422Z" transform="translate(0)"/>
    </g>
  </g>
</svg>
