<svg xmlns="http://www.w3.org/2000/svg" xmlns:xlink="http://www.w3.org/1999/xlink" width="118" height="118" viewBox="0 0 118 118">
  <defs>
    <filter id="Trazado_982547" x="0" y="0" width="118" height="118" filterUnits="userSpaceOnUse">
      <feOffset dy="3" input="SourceAlpha"/>
      <feGaussianBlur stdDeviation="3" result="blur"/>
      <feFlood flood-opacity="0.161"/>
      <feComposite operator="in" in2="blur"/>
      <feComposite in="SourceGraphic"/>
    </filter>
  </defs>
  <g id="Grupo_1202450" data-name="Grupo 1202450" transform="translate(-740.796 -4029.842)">
    <g id="Grupo_1202238" data-name="Grupo 1202238" transform="translate(749.796 4035.842)">
      <g id="Grupo_1201680" data-name="Grupo 1201680">
        <g id="Grupo_1201330" data-name="Grupo 1201330">
          <g id="Grupo_1172010" data-name="Grupo 1172010">
            <g id="Grupo_1171046" data-name="Grupo 1171046">
              <g id="Grupo_1148525" data-name="Grupo 1148525">
                <g transform="matrix(1, 0, 0, 1, -9, -6)" filter="url(#Trazado_982547)">
                  <g id="Trazado_982547-2" data-name="Trazado 982547" transform="translate(9 6)" fill="#effbfe">
                    <path d="M 50 98.5 C 43.45188522338867 98.5 37.10042953491211 97.21787261962891 31.12207221984863 94.68923950195312 C 25.34691429138184 92.24655914306641 20.15997123718262 88.74931335449219 15.70532894134521 84.29468536376953 C 11.2506856918335 79.84004211425781 7.753442764282227 74.65309906005859 5.310757160186768 68.8779296875 C 2.782128572463989 62.89957046508789 1.5 56.54811477661133 1.5 50 C 1.5 43.45188522338867 2.782128572463989 37.10042953491211 5.310757160186768 31.12207221984863 C 7.753442764282227 25.34691429138184 11.2506856918335 20.15997123718262 15.70532894134521 15.70532894134521 C 20.15997123718262 11.2506856918335 25.34691429138184 7.753442764282227 31.12207221984863 5.310757160186768 C 37.10042953491211 2.782128572463989 43.45188522338867 1.5 50 1.5 C 56.54811477661133 1.5 62.89957046508789 2.782128572463989 68.8779296875 5.310757160186768 C 74.65309906005859 7.753442764282227 79.84004211425781 11.2506856918335 84.29468536376953 15.70532894134521 C 88.74931335449219 20.15997123718262 92.24655914306641 25.34691429138184 94.68923950195312 31.12207221984863 C 97.21787261962891 37.10042953491211 98.5 43.45188522338867 98.5 50 C 98.5 56.54811477661133 97.21787261962891 62.89957046508789 94.68923950195312 68.8779296875 C 92.24655914306641 74.65309906005859 88.74931335449219 79.84004211425781 84.29468536376953 84.29468536376953 C 79.84004211425781 88.74931335449219 74.65309906005859 92.24655914306641 68.8779296875 94.68923950195312 C 62.89957046508789 97.21787261962891 56.54811477661133 98.5 50 98.5 Z" stroke="none"/>
                    <path d="M 50 3 C 43.65372467041016 3 37.49886322021484 4.242263793945312 31.70639801025391 6.6922607421875 C 26.11003112792969 9.059326171875 21.08335113525391 12.44861602783203 16.76598358154297 16.76598358154297 C 12.44861602783203 21.08335113525391 9.059326171875 26.11003112792969 6.6922607421875 31.70639801025391 C 4.242263793945312 37.49886322021484 3 43.65372467041016 3 50 C 3 56.34627532958984 4.242263793945312 62.50113677978516 6.6922607421875 68.29360198974609 C 9.059326171875 73.88996887207031 12.44861602783203 78.91666412353516 16.76598358154297 83.23401641845703 C 21.08335113525391 87.55138397216797 26.11003112792969 90.940673828125 31.70639801025391 93.3077392578125 C 37.49886322021484 95.75773620605469 43.65372467041016 97 50 97 C 56.34627532958984 97 62.50113677978516 95.75773620605469 68.29360198974609 93.3077392578125 C 73.88996887207031 90.940673828125 78.91666412353516 87.55138397216797 83.23401641845703 83.23401641845703 C 87.55138397216797 78.91666412353516 90.940673828125 73.88996887207031 93.3077392578125 68.29360198974609 C 95.75773620605469 62.50113677978516 97 56.34627532958984 97 50 C 97 43.65372467041016 95.75773620605469 37.49886322021484 93.3077392578125 31.70639801025391 C 90.940673828125 26.11003112792969 87.55138397216797 21.08335113525391 83.23401641845703 16.76598358154297 C 78.91666412353516 12.44861602783203 73.88996887207031 9.059326171875 68.29360198974609 6.6922607421875 C 62.50113677978516 4.242263793945312 56.34627532958984 3 50 3 M 50 0 C 77.61424255371094 0 100 22.38577270507812 100 50 C 100 77.61424255371094 77.61424255371094 100 50 100 C 22.38577270507812 100 0 77.61424255371094 0 50 C 0 22.38577270507812 22.38577270507812 0 50 0 Z" stroke="none" fill="#497f88"/>
                  </g>
                </g>
              </g>
            </g>
          </g>
        </g>
      </g>
    </g>
    <g id="individualized_17859591" transform="translate(742.904 4028.144)">
      <g id="Grupo_1202449" data-name="Grupo 1202449" transform="translate(26.958 29.388)">
        <path id="Trazado_1047873" data-name="Trazado 1047873" d="M163.16,35.45h38.717a2.218,2.218,0,0,1,2.214,2.21V67.017a2.218,2.218,0,0,1-2.214,2.21H163.16a2.217,2.217,0,0,1-2.21-2.21V37.66A2.217,2.217,0,0,1,163.16,35.45Z" transform="translate(-143.814 -35.45)" fill="#ffddaf" fill-rule="evenodd"/>
        <path id="Trazado_1047874" data-name="Trazado 1047874" d="M210.463,41.69a2.5,2.5,0,0,1,.4,1.374V72.421a2.048,2.048,0,0,1-1.815,2.21h-39.51a1.5,1.5,0,0,1-.767-.209,74.144,74.144,0,0,1,12.754-17.177C191.187,47.514,201.86,42.108,210.463,41.69Z" transform="translate(-150.587 -40.854)" fill="#ffecca" fill-rule="evenodd"/>
        <path id="Trazado_1047875" data-name="Trazado 1047875" d="M190.281,61.7h32.25a1.756,1.756,0,0,1,1.751,1.751V86.7a1.759,1.759,0,0,1-1.751,1.751h-32.25A1.759,1.759,0,0,1,188.53,86.7V63.451A1.756,1.756,0,0,1,190.281,61.7Z" transform="translate(-167.7 -58.184)" fill="#008b86" fill-rule="evenodd"/>
        <path id="Trazado_1047876" data-name="Trazado 1047876" d="M217.183,61.7h5.981a1.622,1.622,0,0,1,1.439,1.751V86.7a1.626,1.626,0,0,1-1.439,1.751H190.289a1.524,1.524,0,0,1-1.389-1.306,75.231,75.231,0,0,1,10.058-12.568A59.21,59.21,0,0,1,217.183,61.7Z" transform="translate(-168.021 -58.184)" fill="#52b1aa" fill-rule="evenodd"/>
        <path id="Trazado_1047877" data-name="Trazado 1047877" d="M252.441,320.62h3.732v3.87a3.773,3.773,0,0,0-2.6-1.033H252.44V320.62Zm17.986,0h3.732v21.658h-3.732Z" transform="translate(-223.05 -282.423)" fill="#9e4623" fill-rule="evenodd"/>
        <path id="Trazado_1047878" data-name="Trazado 1047878" d="M230.71,287.62h27.543v4.42H230.71Z" transform="translate(-204.23 -253.843)" fill="#c96135" fill-rule="evenodd"/>
        <path id="Trazado_1047879" data-name="Trazado 1047879" d="M116.677,187.037l-3.489-1.393c-7.575-.513-8.421,11.178-7.388,17.914l11.842.41.429-3.39h4.15v-1.287h6.147l-.038-3.706-9.5-.907C118.25,189.991,117.843,189.043,116.677,187.037Z" transform="translate(-95.742 -165.512)" fill="#499cb9" fill-rule="evenodd"/>
        <path id="Trazado_1047880" data-name="Trazado 1047880" d="M276.4,264.01a7.726,7.726,0,0,1,4.921,1.318,1.019,1.019,0,0,1-.315,1.826h-4.576Z" transform="translate(-243.8 -233.377)" fill="#fdcc9a" fill-rule="evenodd"/>
        <path id="Trazado_1047881" data-name="Trazado 1047881" d="M42.621,191.348v-13.81H38.174a1.076,1.076,0,0,1-1.074-1.074v-1.55a1.076,1.076,0,0,1,1.074-1.074h6.387a1.913,1.913,0,0,1,1.906,1.906v13.976A12.91,12.91,0,0,0,42.621,191.348Z" transform="translate(-36.554 -155.303)" fill="#d3d3d3" fill-rule="evenodd"/>
        <path id="Trazado_1047882" data-name="Trazado 1047882" d="M42.621,203.057v-13.81H38.174a1.076,1.076,0,0,1-1.074-1.074v-.813h5.658a1.913,1.913,0,0,1,1.906,1.906v12.742A12.942,12.942,0,0,0,42.621,203.057Z" transform="translate(-36.554 -167.012)" fill="#b3b4b4" fill-rule="evenodd"/>
        <path id="Trazado_1047883" data-name="Trazado 1047883" d="M225.654,349.221v-3.638a3.8,3.8,0,0,0-3.793-3.793H215.82a12.793,12.793,0,0,1,1.428,4.973H220.4l.327,2.457h4.924Z" transform="translate(-191.335 -300.757)" fill="#f79420" fill-rule="evenodd"/>
        <path id="Trazado_1047884" data-name="Trazado 1047884" d="M222.12,356.82a12.768,12.768,0,0,1,.585,2.962h3.156l.327,2.457h2.661v-1.625a3.8,3.8,0,0,0-3.793-3.793Z" transform="translate(-196.791 -313.774)" fill="#fbb03a" fill-rule="evenodd"/>
        <path id="Trazado_1047885" data-name="Trazado 1047885" d="M297.46,427.51h6.283v2.836h-5.263A4.482,4.482,0,0,0,297.46,427.51Z" transform="translate(-262.039 -374.995)" fill="#555" fill-rule="evenodd"/>
        <path id="Trazado_1047886" data-name="Trazado 1047886" d="M258.5,401.312h3.03v-2.028a2.031,2.031,0,0,0-2.028-2.024H252.47v3.185a4.5,4.5,0,0,1,6.026.867Z" transform="translate(-223.076 -348.797)" fill="#d3d3d3" fill-rule="evenodd"/>
        <path id="Trazado_1047887" data-name="Trazado 1047887" d="M242.323,415.18a4.505,4.505,0,1,1-4.5,4.507A4.5,4.5,0,0,1,242.323,415.18Z" transform="translate(-210.388 -364.317)" fill="#555" fill-rule="evenodd"/>
        <path id="Trazado_1047888" data-name="Trazado 1047888" d="M253.253,415.18a3.51,3.51,0,1,1-2.813,2.27,4.419,4.419,0,0,1,.242-1.461A4.473,4.473,0,0,1,253.253,415.18Z" transform="translate(-221.318 -364.317)" fill="#686868" fill-rule="evenodd"/>
        <path id="Trazado_1047889" data-name="Trazado 1047889" d="M167.947,127.1c1.279,5.391-1.428,11.7-5.706,7.256l-.832,2.966a5.787,5.787,0,0,1-3.98-2.662l2.1-3.421a3.034,3.034,0,0,1,4.379-3.429A5.055,5.055,0,0,0,167.947,127.1Z" transform="translate(-140.766 -114.824)" fill="#fdcc9a" fill-rule="evenodd"/>
        <path id="Trazado_1047890" data-name="Trazado 1047890" d="M162.889,99.724A4.853,4.853,0,0,1,161.742,95c1.352-4.613,4.781-1.614,10.505-4.671.2,2.38-.008,4.241-1.1,5.107l-.076.083a5.081,5.081,0,0,1-3.607.445,3.034,3.034,0,0,0-4.379,3.429Z" transform="translate(-144.329 -82.979)" fill="#fbb03a" fill-rule="evenodd"/>
        <path id="Trazado_1047891" data-name="Trazado 1047891" d="M46,289.69A12.976,12.976,0,1,1,33.02,302.664,12.978,12.978,0,0,1,46,289.69Z" transform="translate(-33.02 -255.636)" fill="#555" fill-rule="evenodd"/>
        <path id="Trazado_1047892" data-name="Trazado 1047892" d="M58.227,289.69A12.977,12.977,0,0,1,69.7,308.724a12.977,12.977,0,0,1-21.064-14.8A12.935,12.935,0,0,1,58.227,289.69Z" transform="translate(-45.249 -255.636)" fill="#686868" fill-rule="evenodd"/>
        <path id="Trazado_1047893" data-name="Trazado 1047893" d="M66.472,313.33a9.81,9.81,0,1,1-9.812,9.808A9.808,9.808,0,0,1,66.472,313.33Z" transform="translate(-53.494 -276.109)" fill="#b3b4b4" fill-rule="evenodd"/>
        <path id="Trazado_1047894" data-name="Trazado 1047894" d="M74.57,344.115a9.811,9.811,0,0,1-17.393-8.68,9.811,9.811,0,0,1,17.393,8.68Z" transform="translate(-53.494 -291.551)" fill="#d3d3d3" fill-rule="evenodd"/>
        <path id="Trazado_1047895" data-name="Trazado 1047895" d="M119.6,374.68a1.593,1.593,0,1,1-1.6,1.591A1.594,1.594,0,0,1,119.6,374.68Z" transform="translate(-106.617 -329.242)" fill="#555" fill-rule="evenodd"/>
      </g>
      <path id="Trazado_1047896" data-name="Trazado 1047896" d="M61.9,61.168a6.627,6.627,0,0,0-1.4-.22l.012,1.279h3.462a.074.074,0,0,0-.019-.114,6.774,6.774,0,0,0-2.055-.946Zm-1.149-2.453-.793-2.958a.937.937,0,1,1,1.811-.482l.919,3.44H81.79A.819.819,0,0,0,82.6,57.9V34.654a.819.819,0,0,0-.813-.816H49.538a.819.819,0,0,0-.813.816v2.817a14.065,14.065,0,0,0,5.714-1.556.93.93,0,0,1,1.366.747h0a12.941,12.941,0,0,1-.08,3.367,4.931,4.931,0,0,1-.615,1.693,12.1,12.1,0,0,1-.433,6.72c-1.064,2.628-3.276,3.823-5.741,2.138l-.054.182a11.887,11.887,0,0,1,1.2,2.7,27.03,27.03,0,0,1,.8,4.234l8.752.836a.954.954,0,0,1,.478.186ZM38.363,78.406l-5.6,3.235A8.853,8.853,0,0,0,39,85.24v-6.47A2.571,2.571,0,0,1,38.363,78.406Zm-6.538,1.613,5.6-3.235v-.737l-5.6-3.235A8.884,8.884,0,0,0,31.825,80.019Zm.934-8.819,5.6,3.235A2.467,2.467,0,0,1,39,74.067V67.6A8.861,8.861,0,0,0,32.759,71.2Zm8.114-3.6v6.47a2.507,2.507,0,0,1,.631.364l5.6-3.235A8.879,8.879,0,0,0,40.873,67.6Zm7.173,5.221-5.6,3.235v.733l5.6,3.235A8.9,8.9,0,0,0,48.046,72.817Zm-.939,8.82-5.6-3.235a2.56,2.56,0,0,1-.638.368v6.47A8.852,8.852,0,0,0,47.107,81.637ZM40.4,75.954a.657.657,0,1,0,0,.931A.657.657,0,0,0,40.4,75.954Zm-.463-10.283A10.747,10.747,0,1,1,29.186,76.416,10.745,10.745,0,0,1,39.936,65.671Zm0-3.166a13.857,13.857,0,0,1,8.307,2.749l.046-.372-5.813-4.257a.934.934,0,1,1,1.105-1.507l6.006,4.4H52.5c0-.486-.012-.774.342-1.07a.95.95,0,0,1,.6-.217h5.2l-.019-1.917-8.6-.824a.928.928,0,0,1-.592-.24L45.748,55.94A.935.935,0,0,1,47,54.551l1.757,1.579a12.716,12.716,0,0,0-.919-3.338.942.942,0,0,1-.372.019,6.67,6.67,0,0,1-4.1-2.347,4.76,4.76,0,0,0-3.394,2.051,14.084,14.084,0,0,0-2.165,6.455v3.694a14.116,14.116,0,0,1,2.128-.159Zm10,4.242A14.042,14.042,0,0,1,52,69.484h3.41V68.52H53.437a.937.937,0,0,1-.938-.938V65.391H50.107ZM52.9,71.355a13.984,13.984,0,0,1,.813,3.1h2.312a.935.935,0,0,1,.934.892l.209,1.564h3.17v-2.7a2.864,2.864,0,0,0-2.856-2.856Zm.95,4.977A13.916,13.916,0,1,1,32.088,64.926V52.556H28.578a2.012,2.012,0,0,1-2.012-2.009V49a2.013,2.013,0,0,1,2.012-2.012h6.387a2.846,2.846,0,0,1,2.844,2.844v2.6a6.924,6.924,0,0,1,5.069-3.789l.277-.451V31.6A3.156,3.156,0,0,1,46.3,28.45H85.019A3.158,3.158,0,0,1,88.171,31.6V60.955A3.155,3.155,0,0,1,85.019,64.1h-3.1v3.479a.938.938,0,0,1-.938.938H79V89.241a.938.938,0,0,1-.938.938H74.336a.937.937,0,0,1-.938-.938V68.519H61.02v2.556a4.72,4.72,0,0,1,1.192,3.136v2.7h1.169a2.971,2.971,0,0,1,2.966,2.962v1.09h2.316a.94.94,0,0,1,.938.938v2.836a.94.94,0,0,1-.938.938h-4.4a5.441,5.441,0,1,1-8.843-5.1V77.888l-.209-1.556H53.851ZM33.963,63.845a14.031,14.031,0,0,1,1.97-.759V49.83a.972.972,0,0,0-.968-.968H28.578a.135.135,0,0,0-.137.137v1.55a.138.138,0,0,0,.137.137h4.446a.937.937,0,0,1,.938.938V63.845ZM48.448,67.9a12.039,12.039,0,1,0,3.528,8.514A12,12,0,0,0,48.448,67.9ZM45.031,38.485a4.174,4.174,0,0,1,1.819-.77V34.654a2.7,2.7,0,0,1,2.688-2.688h32.25a2.7,2.7,0,0,1,2.688,2.688V57.9a2.7,2.7,0,0,1-2.688,2.688H65.04a1.9,1.9,0,0,1,.816,1.637H85.018a1.279,1.279,0,0,0,1.275-1.272V31.6a1.28,1.28,0,0,0-1.275-1.272H46.3A1.277,1.277,0,0,0,45.031,31.6Zm7.32,4.886a6,6,0,0,1-2.479-.091c-.159-.042-.4-.2-.722-.277m-.288-.048a2.1,2.1,0,0,0-2.3,1.91c-.058.66.259.927-.05,1.428l-1.773,2.893a4.888,4.888,0,0,0,2.2,1.579l.588-2.1a.938.938,0,0,1,1.575-.4c1.67,1.739,2.966,1.633,3.835-.52a9.749,9.749,0,0,0,.5-4.677l-1.09.3m-7.082-1.7a3.924,3.924,0,0,0-.137,1.542,3.978,3.978,0,0,1,3.725-2.138,5.576,5.576,0,0,1,.7.1c.334.038.718.288,1.018.346a4.143,4.143,0,0,0,1.542-.011,2.946,2.946,0,0,0,1.082-.4c.706-.563.813-1.956.809-2.927-4.941,2.056-7.731.039-8.741,3.484ZM49.116,43l-.254-.042M58.893,79.313A5.424,5.424,0,0,1,62.8,80.965h1.67v-1.09a1.094,1.094,0,0,0-1.09-1.086H57.286v.769A5.382,5.382,0,0,1,58.893,79.313Zm5.1,3.528a5.415,5.415,0,0,1,.265.96h3.471v-.96Zm-2.57-.608a3.568,3.568,0,1,0,0,5.046A3.57,3.57,0,0,0,61.418,82.233Zm-4.131-12.75a4.794,4.794,0,0,1,1.856.3V68.519H57.287Zm19.843-.964H75.273V88.3H77.13ZM54.375,64.1v2.544H80.042V64.1ZM71.7,49.226l1.848.015A1.462,1.462,0,0,0,74.8,46.975a1.586,1.586,0,0,0-1.31-.65H71.7v2.9Zm1.6-4.777c.623-.118,1.256-.246,1.5-.654a1.457,1.457,0,0,0-1.3-2.26.735.735,0,0,1-.133.008v0H71.7v2.9Zm.023,6.649H70.763a.936.936,0,0,1-.938-.934V40.612a.938.938,0,0,1,.938-.938h2.562a3.1,3.1,0,0,1,1.72.292,3.388,3.388,0,0,1,.851,5.418,3.388,3.388,0,0,1-.851,5.422A3.079,3.079,0,0,1,73.326,51.1ZM61.544,45.312h2.419l-1.207-2.544Zm3.311,1.875h-4.2l-1.614,3.4a.936.936,0,0,1-1.693-.8l4.564-9.595a.937.937,0,0,1,1.693,0l4.56,9.595a.936.936,0,0,1-1.693.8Z"/>
    </g>
  </g>
</svg>
